<?xml version="1.0" encoding="UTF-8" standalone="no"?>
<svg
   id="Layer_1"
   data-name="Layer 1"
   viewBox="0 0 512 512"
   version="1.1"
   sodipodi:docname="minus5seconds.svg"
   inkscape:version="1.1 (c68e22c387, 2021-05-23)"
   xmlns:inkscape="http://www.inkscape.org/namespaces/inkscape"
   xmlns:sodipodi="http://sodipodi.sourceforge.net/DTD/sodipodi-0.dtd"
   xmlns="http://www.w3.org/2000/svg"
   xmlns:svg="http://www.w3.org/2000/svg">
  <defs
     id="defs54" />
  <sodipodi:namedview
     id="namedview52"
     pagecolor="#ffffff"
     bordercolor="#666666"
     borderopacity="1.0"
     inkscape:pageshadow="2"
     inkscape:pageopacity="0.0"
     inkscape:pagecheckerboard="0"
     showgrid="false"
     inkscape:zoom="1.0351562"
     inkscape:cx="255.51699"
     inkscape:cy="154.08303"
     inkscape:window-width="1366"
     inkscape:window-height="715"
     inkscape:window-x="-8"
     inkscape:window-y="-8"
     inkscape:window-maximized="1"
     inkscape:current-layer="Layer_1" />
  <title
     id="title45">rewind1-glyph</title>
  <path
     d="M488.67,452.31c13.09,0,23.33-10.63,23.33-24.2V83.89c0-13.57-10.25-24.19-23.34-24.19a25.26,25.26,0,0,0-12.58,3.46L216.19,235.26a23.53,23.53,0,0,0,0,41.47l259.9,172.11a25.24,25.24,0,0,0,12.58,3.46Z"
     fill="#000000"
     id="path47"
     style="fill:#000000" />
  <path
     d="M284.88,452.31c13.09,0,23.33-10.63,23.33-24.2V83.89c0-13.57-10.25-24.19-23.34-24.19a25.26,25.26,0,0,0-12.58,3.46L12.41,235.26a23.53,23.53,0,0,0,0,41.47L272.3,448.85a25.24,25.24,0,0,0,12.58,3.46Z"
     fill="#000000"
     id="path49"
     style="fill:#000000" />
  <path
     style="fill:#000000"
     id="path52"
     d="m 10.168737,13.077146 c 3.996798,-1.007807 8.023697,-1.775079 12.114508,-2.277817 5.138248,-0.542791 10.307684,-0.626703 15.469399,-0.676342 3.728775,-0.05268 7.457783,-0.0021 11.18666,-0.0061 4.96029,-0.03166 9.920686,-0.0447 14.88107,-0.05649 6.459302,-0.082724 12.919253,-0.04633 19.378519,0.01702 4.863585,-0.1728134 9.671328,0.589308 14.493652,1.088152 5.329085,0.629285 10.693845,0.689495 16.043925,1.028016 5.75634,0.464245 11.51901,0.656623 17.29183,0.657685 6.40829,0.0051 12.81608,0.09154 19.22403,0.146948 2.96793,0.05233 5.93838,-0.03645 8.90514,0.06981 0,0 12.03211,-8.7433322 12.03211,-8.7433322 v 0 C 168.15373,4.42821 165.11477,4.35623 162.07781,4.4062676 155.6003,4.4626279 149.122,4.5396377 142.64452,4.4332003 136.92828,4.2920388 131.2094,4.1589702 125.50379,3.7619001 120.17724,3.3967237 114.84363,3.1916445 109.52236,2.7545278 104.67777,2.2594609 99.869183,1.2464201 94.983662,1.5152735 88.509695,1.5771376 82.035006,1.6164157 75.561036,1.5306881 70.662512,1.5168258 65.763927,1.5017551 60.865602,1.4549981 57.118076,1.4382356 53.370459,1.4630428 49.622939,1.4742198 44.392958,1.5646444 39.162648,1.7520534 33.944912,2.1289202 29.966569,2.5193335 25.999754,3.0379647 22.131129,4.080425 c 0,0 -11.962392,8.996721 -11.962392,8.996721 z" />
  <path
     style="fill:#000000"
     id="path54"
     d="m 10.219973,25.645155 c 2.877219,-0.18536 5.784372,0.07869 8.656327,-0.203188 2.020535,-0.198309 3.961713,-0.662124 5.9435,-1.076855 4.393894,-1.125304 8.726562,-2.44352 13.213942,-3.146265 5.702306,-0.635535 11.454645,-0.543376 17.183554,-0.576497 6.65915,-0.03366 13.318516,-0.03157 19.977491,0.02985 5.14363,0.05614 10.287559,0.04 15.431322,0.0175 6.671179,-0.06438 13.342391,-0.05527 20.013591,-0.01023 4.46264,0.204652 8.908,-0.154264 13.35413,-0.470798 4.30565,-0.330381 8.62378,-0.401607 12.93984,-0.454025 4.41269,0.0018 8.8255,-0.0066 13.23817,0.009 1.72566,-0.02559 3.63629,8.96e-4 5.25781,0.123152 0,0 12.21291,-8.863269 12.21291,-8.863269 v 0 c -1.63366,0.521505 -3.91079,-0.185314 -5.59881,0.115586 -4.44407,0.01117 -8.88818,-0.006 -13.33215,0.04503 -4.29488,0.01115 -8.59706,-0.03037 -12.88305,0.288643 -4.48505,0.359679 -8.96428,0.823705 -13.47116,0.693237 -6.66156,0.04432 -13.32315,0.0558 -19.98469,-0.01054 -5.151468,-0.02404 -10.303049,-0.04123 -15.454488,0.0013 -6.668452,0.04381 -13.336973,0.02053 -20.005413,-0.01551 -5.699773,-0.0094 -11.406267,-0.0094 -17.099808,0.274012 -4.61193,0.532726 -9.029006,1.891036 -13.471547,3.199861 -0.625448,0.138301 -5.005011,1.123977 -5.724654,1.217366 -2.749173,0.356765 -5.548084,0.0031 -8.305788,0.02792 0,0 -12.091029,8.784647 -12.091029,8.784647 z" />
  <path
     style="fill:#000000"
     id="path56"
     d="m 11.311544,16.943565 c 5.903886,-0.175938 11.766982,-0.964412 17.654002,-1.422583 5.7485,-0.386592 11.509501,-0.509605 17.269219,-0.562488 3.816018,-0.0047 7.631969,-0.02659 11.447989,-0.02993 7.482417,-0.03795 14.964133,-0.157161 22.446766,-0.192166 9.946827,-0.04509 19.89454,0.128521 29.84013,-0.0588 5.55571,-0.15655 11.10955,-0.37014 16.66443,-0.552494 2.894,-0.09416 5.78953,-0.09657 8.68457,-0.123048 3.49233,-0.004 6.98457,-0.02476 10.4769,-0.01753 3.64648,-0.02537 7.29299,0.03656 10.9393,-2.01e-4 0.64862,-9.02e-4 1.29723,-0.0018 1.94584,-0.0027 0,0 11.89537,-8.6424407 11.89537,-8.6424407 v 0 c -0.64607,-9.363e-4 -1.29213,-0.00187 -1.9382,-0.00281 -3.64384,-0.038158 -7.28795,0.024899 -10.93197,-0.00434 -3.47402,0.00385 -6.9479,-0.023669 -10.42192,-0.026149 -2.91817,-0.017924 -5.83775,-0.00685 -8.7541,0.1071898 -5.72005,0.2462552 -11.42739,0.7380836 -17.1504,0.9312495 -9.97349,0.3095267 -19.95646,0.093147 -29.933641,0.1705001 C 84.147942,6.4785216 76.851159,6.3594057 69.553597,6.3057931 65.730682,6.2943778 61.907179,6.2468531 58.084648,6.3234179 52.212384,6.4349873 46.344053,6.6783318 40.48129,7.0320687 34.779507,7.3772509 29.092381,8.1683218 23.382617,8.1734172 c 0,0 -12.071073,8.7701478 -12.071073,8.7701478 z" />
  <circle
     id="path58"
     style="fill:#F5F5F5;stroke:#000000"
     cx="170.98869"
     cy="9.6603775"
     r="0.48633182" />
  <circle
     id="path60"
     style="fill:#F5F5F5;stroke:#000000"
     cx="170.98869"
     cy="9.6603775"
     r="0.48633182" />
  <path
     style="fill:#000000"
     id="path62"
     d="m 94.390793,10.181301 c 5.39991,-0.205438 10.805417,-0.124347 16.207777,-0.09866 4.3999,0.02604 8.80007,0.02601 13.20009,0.01616 4.66176,-0.0013 9.32344,-0.01474 13.98525,-0.0044 4.06101,0.200019 8.11123,0.559707 12.1718,0.788003 3.39812,0.195885 6.80334,0.194785 10.20585,0.221849 1.38293,0.01161 2.76588,0.01995 4.14884,0.02767 0,0 12.01033,-8.7268887 12.01033,-8.7268887 v 0 c -1.40296,0.00904 -2.80591,0.018871 -4.2089,0.023231 -3.40469,0.00312 -6.80964,-0.020701 -10.21268,-0.1363446 -4.10219,-0.1622191 -8.18863,-0.5098222 -12.2833,-0.7939212 -4.6578,0.010298 -9.31547,-0.00304 -13.97322,-0.00437 -4.41484,-0.00995 -8.82983,-0.00969 -13.24457,0.016158 -5.31171,0.024932 -10.62718,0.1119939 -15.93619,-0.098657 0,0 -12.071077,8.7701485 -12.071077,8.7701485 z" />
  <circle
     id="path64"
     style="fill:#F5F5F5;stroke:#000000"
     cx="173.8868"
     cy="6.7622647"
     r="0.48633182" />
  <circle
     id="path66"
     style="fill:#F5F5F5;stroke:#000000"
     cx="173.8868"
     cy="6.7622647"
     r="0.48633182" />
  <path
     style="fill:#000000"
     id="path70"
     d="m 8.97437,18.98479 c 0.7636745,4.933248 0.4446164,9.946913 0.2732634,14.912864 -0.1547342,4.655752 -0.2925863,9.311817 -0.298183,13.970402 -0.017756,5.587323 0.066806,11.174255 0.085987,16.76177 C 9.1710043,70.472065 8.7419791,76.29836 8.3641102,82.123631 7.972232,85.769365 7.500073,89.401028 7.2609758,93.061093 c 0,0 13.1228902,-6.568349 13.1228902,-6.568349 v 0 c 0.285552,-3.641856 0.695917,-7.27094 1.00044,-10.911131 0.27863,-5.828157 0.679607,-11.652592 0.48729,-17.492216 0.01868,-5.620386 0.08968,-11.239577 0.130617,-16.859691 0.06403,-4.631191 0.07925,-9.263424 0.214266,-13.893457 0.11473,-5.084785 0.376421,-10.183362 -0.04653,-15.25992 0,0 -13.1955787,6.908461 -13.195579,6.908461 z" />
  <path
     style="fill:#000000"
     id="path72"
     d="m 12.174344,94.200046 c 3.060942,-1.111757 6.230542,-1.84541 9.395791,-2.585165 5.177633,-1.142599 10.505895,-1.423414 15.782971,-1.778018 7.495637,-0.13161 14.891402,-1.36675 22.305218,-2.346769 4.026973,-0.57307 8.080455,-0.870144 12.142691,-1.014862 3.497735,-0.08485 6.993576,-0.129217 10.480775,0.177071 3.760185,0.346508 7.293616,1.632631 10.781419,2.999515 4.203609,1.730835 8.459011,3.354062 12.531421,5.380177 3.46807,2.017897 7.14147,3.624001 10.67479,5.516125 4.01595,2.19051 8.15902,4.20928 11.68391,7.15913 1.93684,1.72239 2.42323,4.03334 2.63083,6.49578 0.19584,3.74348 0.1224,7.49382 0.0943,11.24037 -0.0209,3.96089 0.0958,7.91069 -0.46574,11.83905 -0.258,3.84324 -2.20671,7.01669 -3.92865,10.33029 -1.66787,2.41563 -3.162,4.98455 -5.07206,7.21835 -2.37927,3.09308 -5.10443,5.36028 -8.39698,7.40544 -0.58706,0.36778 -1.18954,0.71204 -1.76119,1.10334 -1.52998,1.04728 -1.72906,1.39874 -3.26856,2.37096 -0.51243,0.32361 -2.10942,1.19447 -1.58728,0.88676 11.24237,-6.62528 15.14687,-8.27859 9.83956,-5.9488 -3.07776,1.27268 -6.30921,2.06396 -9.53666,2.84453 -5.52316,1.15352 -11.003762,2.49745 -16.477983,3.86169 -5.590951,1.31974 -11.241705,2.41891 -16.911853,3.34319 -4.459011,0.62949 -8.965219,0.72762 -13.460405,0.79007 -3.464491,0.10291 -6.687772,-1.16264 -9.914144,-2.24195 -3.780196,-1.60791 -7.778033,-2.52562 -11.73486,-3.56774 -3.696516,-0.80685 -7.222527,-2.18906 -10.691115,-3.67254 -2.831247,-1.43894 -5.337867,-3.50796 -7.408809,-5.9081 -1.582102,-2.19372 -2.914473,-4.55678 -4.397931,-6.8221 -1.107279,-1.88143 -0.544759,-0.96346 -1.684938,-2.75552 0,0 -12.7679748,7.46402 -12.7679748,7.46402 v 0 c 1.1541729,1.72647 0.581743,0.81975 1.7075436,2.72628 1.4659631,2.3546 2.7616411,4.82509 4.4351469,7.04023 2.1945606,2.58122 4.9478263,4.72156 7.8855293,6.39481 3.509706,1.5616 7.061793,3.1079 10.854954,3.83573 3.914282,1.02437 7.888066,1.91572 11.621858,3.50667 3.309303,1.19471 6.633453,2.57946 10.201713,2.6686 4.561259,-0.0749 9.130776,-0.21519 13.668578,-0.70653 5.797121,-0.75368 11.494741,-2.22341 17.216999,-3.39357 5.344203,-1.34004 10.705956,-2.61544 16.125764,-3.61332 3.242987,-0.75971 6.502837,-1.47698 9.628777,-2.64987 8.11649,-2.87179 14.9615,-8.25425 22.09543,-12.89439 3.19055,-2.18831 5.92575,-4.80136 8.30244,-7.86731 1.80107,-2.37384 3.46451,-4.86649 4.92409,-7.46481 1.80938,-3.40309 3.37075,-6.85653 3.64702,-10.77013 0.48824,-3.99302 0.39525,-7.99412 0.4014,-12.01188 0.0223,-3.81856 0.10336,-7.64062 -0.0134,-11.4574 -0.31767,-2.81925 -1.11103,-5.48315 -3.30275,-7.440197 -3.64044,-2.994418 -7.87086,-5.016538 -11.97322,-7.295544 -3.47724,-2.008156 -7.09738,-3.700175 -10.61091,-5.642271 -1.23623,-0.608614 -2.43885,-1.290107 -3.70638,-1.830529 -2.95598,-1.260317 -6.06195,-2.203811 -8.98455,-3.556589 -3.50643,-1.553853 -7.023865,-3.027028 -10.871652,-3.468468 -3.534029,-0.377715 -7.060086,-0.408391 -10.614524,-0.303952 -4.175458,0.06659 -8.33853,0.379493 -12.464782,1.048558 -7.413242,1.084957 -14.819083,2.425943 -22.333491,2.507236 -5.203961,0.281485 -10.475417,0.389601 -15.605995,1.342784 -3.116708,0.714057 -6.244368,1.377929 -9.296822,2.332284 0,0 -11.81533,9.179284 -11.81533,9.179284 z" />
  <path
     style="fill:#000000"
     id="path74"
     d="m 12.992554,75.886369 c 3.776389,-0.08485 7.553752,-0.09672 11.330909,-0.110594 4.247565,-0.0127 8.494983,0.02854 12.742475,0.04242 4.797881,0.123905 9.569737,0.918256 14.331147,1.514775 4.710539,0.58985 9.435517,1.017164 14.126982,1.75154 4.402198,0.837656 8.867353,1.235121 13.288989,1.939731 4.941622,0.924936 9.908947,1.698173 14.908279,2.230093 2.674278,0.251477 5.247164,1.025192 7.842705,1.670403 1.15998,0.317576 2.32876,0.599536 3.49029,0.911099 0,0 12.26879,-8.466859 12.26879,-8.466859 v 0 c -1.1835,-0.269787 -2.37434,-0.510163 -3.54259,-0.842771 -2.65339,-0.754067 -5.32879,-1.484586 -8.07223,-1.819664 C 100.67351,74.345904 95.661436,73.71276 90.714112,72.695559 86.349599,71.828657 81.918339,71.424597 77.535105,70.659468 72.784617,69.80936 67.979363,69.51981 63.187072,68.991008 60.356281,68.631604 57.52791,68.248603 54.707045,67.81703 c -1.358806,-0.207888 -2.699451,-0.552173 -4.068953,-0.670641 -0.547572,-0.04737 -1.099217,0.006 -1.648826,0.009 -4.286419,0.01389 -8.572765,0.05487 -12.859256,0.04242 -3.675678,-0.01364 -7.351616,-0.02386 -11.026471,-0.110594 0,0 -12.110985,8.799146 -12.110985,8.799146 z" />
  <path
     style="fill:#000000"
     id="path76"
     d="M 109.44318,80.626251 C 103.80773,80.489423 98.173717,80.203444 92.554285,79.746659 86.882919,79.481766 81.281176,78.590843 75.650512,77.936502 69.637303,77.236376 63.582462,77.019309 57.533488,76.94494 c -4.9245,-0.05044 -9.849421,-0.139283 -14.77429,-0.124317 -3.208751,0.01662 -6.414941,-0.144466 -9.612285,0.17213 -2.309669,0.339263 -4.652797,0.415872 -6.938531,0.89841 0,0 -11.77631,9.100589 -11.77631,9.100589 v 0 c 2.17345,-0.890647 4.531689,-0.733595 6.823075,-1.142759 3.199781,-0.44319 6.40329,-0.427174 9.632786,-0.401203 4.981035,0.0032 9.962144,-0.09718 14.943303,-0.02859 6.013161,0.114507 12.035002,0.215514 18.018969,0.88099 5.646896,0.675072 11.250018,1.693138 16.950893,1.84375 5.523495,0.430997 11.062715,0.658043 16.571008,1.252461 0,0 12.071074,-8.770148 12.071074,-8.770148 z" />
  <path
     style="fill:#000000"
     id="path78"
     d="m 63.374346,81.641555 c 3.623918,-1.228654 7.422003,-1.823728 11.206185,-2.300334 4.089539,-0.441233 8.203591,-0.564335 12.313711,-0.610942 3.727425,-0.04107 7.456617,-0.09085 11.182362,0.04464 4.938896,0.563826 9.652836,2.308382 14.308156,3.97463 2.74285,1.026909 5.61426,1.772853 8.02939,3.478266 2.01085,1.743413 4.30826,3.079142 6.45781,4.626505 2.14039,1.590348 4.08137,3.438594 5.54881,5.668972 1.42231,2.544642 2.75042,5.179348 3.85818,7.881208 0.80993,2.24834 0.97913,4.65087 1.36752,6.99526 0.84788,2.84278 1.0939,5.79589 1.58875,8.70432 0.55817,3.0404 0.78115,6.12385 0.9224,9.20707 0.0955,2.94061 0.11169,5.88269 0.0958,8.82452 -0.0929,2.78062 0.18015,5.58641 -0.17466,8.35063 -0.47179,2.68703 -2.15065,4.47521 -3.97731,6.36089 -1.6697,1.53037 -3.11699,3.34593 -4.96285,4.68001 -0.45286,0.32731 -0.94589,0.59511 -1.41883,0.89267 3.72351,-2.17728 7.44701,-4.35456 11.17052,-6.53184 -5.76542,3.19172 -11.41251,6.5854 -17.1567,9.81954 -3.73838,2.10481 7.43756,-4.27867 11.13861,-6.44845 0.44339,-0.25994 -0.90584,0.48619 -1.36445,0.71824 -0.46527,0.23541 -0.9379,0.45598 -1.40685,0.68398 -1.29066,0.70601 -2.77687,1.0261 -4.05844,1.7476 -4.64677,2.61605 -9.24933,5.30988 -13.87231,7.96776 -0.36552,0.21015 -1.45793,0.84775 -1.09316,0.63631 3.90028,-2.2607 7.79978,-4.52275 11.69967,-6.78413 -2.22632,1.26117 -4.68947,1.77724 -7.15126,2.34313 -3.31779,0.87285 -6.6393,1.72973 -9.94483,2.6486 -2.98494,0.60845 -5.82443,1.72204 -8.762139,2.49736 -2.900424,0.73339 -5.903673,0.73943 -8.869251,0.94616 -3.478655,0.17524 -6.571921,1.69843 -9.74404,2.95489 -2.644993,0.96881 -5.418113,1.43178 -8.213173,1.66533 -2.732252,0.16836 -5.471419,0.15212 -8.207521,0.1429 -4.050608,0.002 -8.029559,0.91251 -12.046139,1.37133 -4.05027,0.33109 -8.125399,0.69903 -12.176143,0.2439 -4.314159,-0.55775 -8.540109,-1.34075 -12.691903,-2.65037 -3.954405,-1.3292 -7.763084,-3.00106 -11.254369,-5.2883 -2.58376,-1.86719 -4.207211,-4.61793 -5.582991,-7.42994 -1.3261424,-2.63478 -2.143604,-5.47122 -3.3321863,-8.16648 -0.7610235,-1.53526 -1.5147395,-3.06494 -2.2017453,-4.63477 0,0 -12.844344,7.22442 -12.844344,7.22442 v 0 c 0.6830649,1.57189 1.4170268,3.11453 2.1540634,4.66172 1.1732376,2.72162 1.9727945,5.59544 3.3819028,8.21662 1.5021607,3.03554 3.27549774,5.9961 6.0006553,8.09406 3.6046966,2.38339 7.5433401,4.05536 11.5928691,5.54285 2.306788,0.75246 4.677954,1.55409 7.058799,2.04117 1.865649,0.38168 3.81924,0.37446 5.667317,0.88158 4.13872,0.73504 8.31836,0.21546 12.489597,-0.027 2.206024,-0.19126 4.40279,-0.42574 6.590787,-0.7739 0.250066,-0.0398 3.242228,-0.60468 3.554709,-0.63062 0.555046,-0.0461 1.113869,0.009 1.670803,0.0141 2.734885,0.006 5.471165,0.067 8.205144,-0.009 2.899485,-0.16087 5.783791,-0.53996 8.56396,-1.41718 3.196522,-1.04076 6.114756,-2.9023 9.51858,-3.27939 2.976598,-0.25837 5.992983,-0.10742 8.936631,-0.70258 3.00657,-0.66245 5.819261,-1.88217 8.83577,-2.50398 3.310384,-0.86881 6.591397,-1.8424 9.921597,-2.64119 2.42086,-0.72866 5.00098,-0.81524 7.27991,-2.02996 4.58658,-2.61718 9.17577,-5.22979 13.75974,-7.85154 0.36049,-0.20618 1.43436,-0.83779 1.07353,-0.63221 -3.85245,2.19501 -7.70668,4.38699 -11.54852,6.60051 -0.40915,0.23574 0.82092,-0.46939 1.24988,-0.66681 0.0599,-0.0275 2.74963,-1.08543 2.82349,-1.11451 8.64223,-3.96296 30.58917,-17.52004 5.85531,-3.06792 -0.98671,0.57654 4.09668,-2.1421 3.01461,-1.63282 9.87729,-5.73398 13.88998,-6.93966 20.3376,-14.0352 1.88179,-2.12927 3.3599,-4.3526 3.62654,-7.26598 0.16825,-2.81338 0.0254,-5.63626 0.0733,-8.45349 -0.0187,-2.96551 0.0197,-5.9333 -0.11839,-8.89643 -0.17311,-3.12747 -0.52623,-6.24259 -1.02504,-9.33509 -0.44193,-2.92606 -0.80111,-5.86184 -1.54209,-8.73405 -0.39815,-2.4589 -0.54138,-4.989659 -1.54128,-7.304806 -1.20613,-2.749147 -2.56867,-5.447466 -3.99628,-8.08361 -1.49261,-2.419471 -3.55486,-4.3884 -5.81844,-6.099543 -2.03938,-1.70193 -4.49675,-2.818576 -6.43024,-4.680323 -0.6998,-0.547078 -1.31524,-1.083327 -2.11687,-1.486361 -2.00915,-1.010137 -4.28624,-1.390425 -6.36071,-2.22657 -4.74952,-1.671437 -9.52729,-3.375985 -14.4742,-4.360409 -3.72321,-0.313119 -7.46535,-0.106398 -11.199119,-0.167708 -4.18244,0.0705 -8.36516,0.203794 -12.53226,0.592107 -3.737028,0.375853 -7.456532,0.904484 -11.098665,1.830658 0,0 -11.81533,9.179284 -11.81533,9.179284 z" />
  <path
     style="fill:#000000"
     id="path80"
     d="m -1.5690063,148.35357 c 3.5640946,0.5918 6.7103228,2.72626 9.6782242,4.68173 3.1988621,2.4105 6.0253601,5.26516 9.1868301,7.72077 3.253949,2.47091 6.59001,4.8649 10.391159,6.40499 3.61601,1.4889 7.156544,3.14952 10.74973,4.68595 3.29608,1.39908 6.801522,2.14588 10.041921,3.66471 3.729745,1.88513 7.713711,2.9565 11.805721,3.68646 3.934494,0.79446 7.894972,1.3887 11.894198,1.71907 2.708591,-0.0287 5.28647,0.42848 7.88765,1.11709 2.68339,0.71986 5.462695,0.81183 8.21421,1.04022 6.228013,0.6453 12.477403,1.03156 18.726313,1.40535 5.33848,0.2642 10.69534,0.74241 15.99948,-0.0817 1.88314,-0.47717 3.85199,-0.95374 5.55428,-1.93685 4.65436,-2.68802 9.32331,-5.35586 13.87946,-8.20718 0.39231,-0.24552 0.69771,-0.63731 0.91018,-1.04846 0.21258,-0.41134 0.21937,-0.89969 0.32905,-1.34953 0,0 -13.50165,6.23574 -13.50165,6.23574 v 0 c -2.64451,3.86077 -12.53575,7.80119 9.87906,-4.85113 0.52108,-0.29413 -1.01847,0.63202 -1.55537,0.89617 -1.34462,0.66156 -2.40122,0.96458 -3.82071,1.4436 -1.83669,0.40635 -2.70479,0.67667 -4.61522,0.77098 -3.78538,0.18687 -7.5997,-0.28589 -11.38467,-0.25991 -6.13382,-0.27874 -12.25997,-0.67892 -18.33752,-1.58334 -2.674243,-0.35759 -5.400045,-0.27526 -8.041878,-0.89903 -2.693582,-0.67883 -5.299499,-1.5034 -8.128103,-1.27991 -4.011973,-0.22715 -7.99863,-0.70822 -11.939311,-1.51128 -3.981159,-0.63314 -7.809858,-1.64102 -11.439019,-3.44392 -0.489948,-0.23687 -2.757677,-1.34813 -3.222081,-1.509 -0.54548,-0.18895 -1.127932,-0.24877 -1.684739,-0.40114 -1.780025,-0.48711 -3.472393,-1.21926 -5.230398,-1.77363 -6.265061,-2.58525 2.562959,1.11557 -3.477796,-1.60435 -2.406216,-1.08343 -4.941933,-1.89922 -7.275697,-3.15117 -3.781502,-1.28294 -7.050135,-3.56518 -10.169178,-6.02546 -3.214658,-2.44619 -6.101679,-5.29537 -9.304842,-7.7595 -3.051514,-2.07644 -6.207622,-4.2664 -9.746312,-5.39315 0,0 -12.2529723,8.59677 -12.2529723,8.59677 z" />
  <path
     style="fill:#000000"
     id="path82"
     d="m 138.42549,137.89081 c -1.90804,2.68183 -4.74139,4.66581 -6.39263,7.53645 -0.40256,0.69985 -0.68047,1.46436 -1.02071,2.19654 -1.62306,4.59216 -3.79722,8.92457 -6.03214,13.23752 -1.41732,3.15062 -1.85494,6.53933 -2.08373,9.94744 0,0 13.23321,-6.62302 13.23321,-6.62302 v 0 c 0.25065,-3.23854 0.78042,-6.44345 2.25586,-9.37927 2.15147,-4.32531 4.03193,-8.757 5.95133,-13.18765 0.38255,-0.66203 0.71754,-1.35393 1.14764,-1.9861 1.89421,-2.78417 4.63083,-4.91524 6.67805,-7.57837 0,0 -13.73688,5.83646 -13.73688,5.83646 z" />
  <path
     style="fill:#000000"
     id="path84"
     d="m 114.59259,159.9965 c 1.62014,4.20195 3.34055,8.36495 4.9622,12.56977 0,0 12.61804,-7.0331 12.61804,-7.0331 v 0 c -1.67162,-4.22118 -3.38292,-8.45898 -4.56265,-12.84774 0,0 -13.01759,7.31107 -13.01759,7.31107 z" />
  <path
     style="fill:#000000"
     id="path88"
     d="m 17.822743,79.75052 c 5.215255,-0.15684 10.432598,-0.17616 15.649698,-0.152347 4.273718,0.05781 8.547733,0.05751 12.821639,0.08686 3.075978,-0.119277 6.087622,0.498501 9.095046,1.040234 4.199644,1.127891 8.368647,2.371257 12.543259,3.5901 3.812889,1.247004 7.793258,1.673411 11.749878,2.188391 3.398636,0.368559 6.134078,2.380197 9.103522,3.847852 3.493649,1.579413 7.244509,2.488096 10.954519,3.405033 3.977896,0.808297 7.970646,1.523743 12.003546,1.989271 0.47169,0.07325 0.94337,0.146492 1.41505,0.219738 0,0 12.11399,-8.504321 12.11399,-8.504321 v 0 c -0.50506,-0.08673 -1.01011,-0.173469 -1.51517,-0.260203 -4.02,-0.349853 -7.98674,-1.01247 -11.94458,-1.792009 -3.62804,-0.830134 -7.24393,-1.824475 -10.71221,-3.17259 -3.102294,-1.514966 -5.933183,-3.661793 -9.441122,-4.200238 -3.898274,-0.507679 -7.832452,-0.894304 -11.619683,-2.001078 -4.192175,-1.232252 -8.446351,-2.274919 -12.55151,-3.783512 -3.069499,-0.524421 -6.124312,-1.369787 -9.263819,-1.23484 -4.353606,0.02934 -8.707318,0.02956 -13.060744,0.08686 -5.077287,0.02289 -10.155044,0.01092 -15.230324,-0.152347 0,0 -12.110985,8.799146 -12.110985,8.799146 z" />
  <path
     style="fill:#000000"
     id="path90"
     d="m 103.99774,81.707816 c 5.16932,1.115127 9.85775,3.87055 14.54171,6.246033 4.36231,2.255901 8.09568,5.430639 10.90004,9.447503 2.12434,3.078438 3.17165,6.692628 4.61301,10.107708 1.44351,2.30126 2.4654,4.69906 2.9505,7.36665 0.52157,2.69693 0.17691,5.37624 -0.1,8.07168 -0.81375,4.1464 -2.2796,8.13142 -3.79118,12.06737 -1.37997,3.22676 -2.03366,6.6499 -2.39818,10.1188 0.0248,3.13687 -0.16497,6.14054 -1.0617,9.15166 -0.72005,3.22698 -2.56416,5.70806 -4.96647,7.88572 -2.40866,1.68273 -4.56331,3.67972 -6.99671,5.3314 -4.44982,2.54327 -11.40082,6.95355 8.84072,-5.12685 0.42646,-0.25452 -0.89241,0.43632 -1.34286,0.64549 -2.95332,1.37143 -0.20372,0.0185 -3.33808,1.59667 -7.97595,3.74513 -15.62071,8.09919 -22.993268,12.95621 -6.284828,3.65395 6.671488,-3.83282 9.972568,-5.80796 0.38725,-0.2317 -0.81418,0.39134 -1.23401,0.55684 -0.4859,0.19155 -0.97568,0.37903 -1.48044,0.51322 -2.51194,0.66781 -3.41296,0.64595 -6.226045,0.9703 0,0 -11.520599,8.52012 -11.520599,8.52012 v 0 c 1.378399,-0.0733 4.482526,-0.17844 6.053415,-0.44404 0.171299,-0.029 2.632623,-0.72166 2.856731,-0.84467 10.621258,-5.82987 9.797478,-5.33681 15.296488,-8.82365 5.11151,-3.37657 1.23673,-0.76885 -9.38491,5.19986 -0.58372,0.32801 1.12317,-0.73348 1.71815,-1.04058 1.78261,-0.92012 3.73303,-1.53867 5.47989,-2.54149 1.70668,-0.95462 1.47533,-0.88677 3.2003,-1.62521 0.46751,-0.20013 0.97149,-0.32095 1.41582,-0.5683 5.48343,-3.05245 11.16356,-6.07995 16.44907,-9.57258 2.35462,-1.76989 4.66379,-3.60977 6.8843,-5.54438 2.28356,-2.48361 3.94123,-5.24184 4.65154,-8.58379 0.79587,-3.09827 0.8271,-6.20496 0.99645,-9.38603 0.37399,-3.34171 1.13255,-6.60088 2.42207,-9.71851 1.49998,-4.06993 2.95492,-8.19315 3.75254,-12.46657 0.30138,-2.83022 0.51633,-5.65859 -0.0719,-8.47452 -0.56064,-2.75974 -1.64435,-5.25219 -3.12715,-7.64884 -1.58403,-3.449215 -2.70459,-7.127163 -4.90233,-10.261892 -2.93597,-4.307572 -6.82071,-7.481031 -11.39904,-9.976052 -4.72294,-2.499065 -9.53475,-4.89983 -14.4825,-6.915797 0,0 -12.17794,8.618477 -12.17794,8.618477 z" />
  <path
     style="fill:#000000"
     id="path92"
     d="m 30.381234,183.11656 c 2.639667,-0.0533 5.27857,-0.14508 7.897023,0.22931 2.626363,0.38571 5.087474,1.21669 7.550779,2.15655 2.377603,0.98964 4.623272,2.15214 7.139827,2.75397 2.930826,0.57118 5.928359,0.58407 8.902604,0.61048 3.287495,0.004 6.574991,0.002 9.862486,0.006 2.971982,-0.003 5.943909,-0.0164 8.915933,-0.006 2.375379,0.0182 4.750738,0.0167 7.126144,0.0153 4.172648,-0.0797 8.346009,-0.0547 12.51912,-0.0796 3.14046,-0.0158 6.27537,0.0784 9.40914,-0.14092 0,0 11.7766,-8.75967 11.7766,-8.75967 v 0 c -3.11052,0.48577 -6.23378,0.31103 -9.37733,0.32128 -4.09992,-0.0249 -8.20011,10e-4 -12.299544,-0.0799 -2.390075,-0.001 -4.780105,-0.003 -7.17015,0.0161 -2.976222,0.0123 -5.952431,0.001 -8.928603,0.0114 -3.292608,0.0186 -6.585295,0.0447 -9.877961,0.025 -2.895856,-0.024 -5.806322,-0.0145 -8.68102,-0.40933 -2.511431,-0.4436 -4.720993,-1.48152 -7.00652,-2.58355 -1.207264,-0.42441 -2.373155,-1.07296 -3.592065,-1.44322 -1.343533,-0.40811 -2.813406,-0.43171 -4.148633,-0.89068 -2.621293,-0.57604 -5.231395,-0.56781 -7.906845,-0.55193 0,0 -12.110985,8.79914 -12.110985,8.79914 z" />
  <path
     style="fill:#000000"
     id="path94"
     d="m 99.541757,102.01067 c 3.350973,2.75593 5.890343,6.4472 8.398983,9.95962 2.33556,3.22999 4.11212,6.84399 5.40892,10.60648 0.80785,2.50684 1.32665,5.04899 1.57827,7.66683 0.27393,3.02075 0.23101,6.02108 -0.0872,9.03073 -0.49445,3.96566 -2.89288,7.27187 -5.08484,10.48679 -1.8306,2.94886 -3.61954,5.88265 -5.81762,8.57554 -1.56159,1.75491 -3.70382,2.81764 -5.523133,4.26526 -1.079449,0.85891 -2.087066,1.8046 -3.144916,2.68998 -2.824425,2.53139 -5.516178,5.17852 -8.675662,7.30263 -1.145639,0.5362 -2.175839,1.27036 -3.247656,1.93411 0,0 13.856284,-5.37299 13.856284,-5.37299 v 0 c 1.051481,-0.66015 2.120968,-1.29182 3.144023,-1.99623 2.99014,-2.2853 5.65863,-4.92182 8.52235,-7.35673 2.89706,-2.40438 6.16833,-4.42046 8.64338,-7.27626 2.10196,-2.75363 3.80216,-5.74862 5.6899,-8.64804 2.24416,-3.4366 4.47417,-7.00054 4.87731,-11.18526 0.2894,-3.09469 0.2491,-6.19307 -0.0388,-9.28933 -0.26073,-2.74171 -0.81234,-5.40891 -1.74479,-8.00863 -1.48895,-3.82597 -3.41065,-7.50043 -5.82658,-10.82545 -1.55898,-2.15829 -3.12162,-4.29257 -4.76637,-6.385927 -0.0981,-0.124807 -2.38057,-3.082246 -2.61455,-3.341996 -0.26343,-0.292435 -0.586,-0.5256 -0.87899,-0.7884 0,0 -12.668273,7.957273 -12.668273,7.957273 z" />
  <path
     style="fill:#000000"
     id="path96"
     d="m 110.10424,102.10453 c 2.19475,2.95275 3.84523,6.27049 5.56005,9.51502 1.27643,2.11969 1.53004,4.54059 2.00201,6.90493 0.26018,1.30342 0.6168,2.58574 0.92512,3.87863 0.85419,3.45951 1.15327,7.0108 1.30505,10.55992 0.21127,2.96251 0.0361,5.86687 -0.52593,8.7778 -0.34249,2.97604 -1.72667,5.61406 -2.75362,8.38803 -0.7899,2.83975 -1.19461,5.24777 -3.2705,7.45181 -1.68004,1.52946 -3.20281,3.26659 -4.96634,4.704 -0.85768,0.69907 -1.79222,1.29886 -2.66551,1.97832 -2.62298,1.54368 -4.87494,3.5511 -7.263142,5.40591 -0.973978,0.83218 -1.690381,1.90321 -2.479581,2.90092 0,0 13.635413,-5.7995 13.635413,-5.7995 v 0 c 0.81105,-0.93919 1.61411,-1.88509 2.61503,-2.6336 2.30726,-1.92996 4.78213,-3.59968 7.21703,-5.36114 2.7062,-2.11168 5.26481,-4.4277 7.52428,-7.01712 1.63468,-2.40062 2.19567,-5.12277 3.06577,-7.86107 1.099,-2.81908 2.30734,-5.58361 2.6309,-8.63096 0.51011,-3.00594 0.61081,-6.0383 0.36209,-9.08002 -0.23224,-3.62025 -0.59467,-7.24057 -1.49067,-10.76645 -0.9074,-3.73536 -1.24444,-7.69309 -3.1092,-11.11363 -1.80543,-3.31413 -3.52802,-6.677956 -5.52212,-9.884576 0,0 -12.79613,7.682776 -12.79613,7.682776 z" />
  <path
     style="fill:#000000"
     id="path98"
     d="m 104.25363,177.46496 c 3.52027,-2.52601 6.20193,-6.0532 8.65186,-9.5862 2.61547,-3.52409 3.37354,-7.83268 4.82932,-11.85804 0.94515,-3.57312 3.31473,-6.40658 5.22508,-9.48829 1.01392,-1.85555 2.06749,-3.68456 3.07835,-5.54154 0,0 -13.54456,6.07171 -13.54456,6.07171 v 0 c -0.98475,1.81177 -1.91233,3.65688 -3.00144,5.4094 -1.97472,3.13127 -4.20424,6.13374 -5.08507,9.8021 -1.24715,3.97865 -2.31638,8.02357 -4.889758,11.41151 -2.581103,3.51121 -5.413433,6.92347 -9.176824,9.22313 0,0 13.913042,-5.44378 13.913042,-5.44378 z" />
  <path
     style="fill:#000000"
     id="path100"
     d="m 129.61125,110.54323 c -2.38412,-1.96191 -4.63915,-4.03645 -6.7777,-6.26359 -2.2049,-2.62332 -4.46627,-5.177897 -6.927,-7.56376 -2.1441,-1.676475 -3.82828,-3.820606 -5.67644,-5.793032 -3.21012,-3.2754 -7.20217,-5.661223 -11.082833,-8.052346 -3.015598,-1.709939 -5.791944,-3.80404 -9.05267,-5.024992 -2.997362,-0.878543 -6.137309,-0.990216 -9.238265,-1.072212 -3.207026,-0.0255 -6.401349,0.09525 -9.603472,-0.11578 0,0 -11.898537,8.474831 -11.898537,8.474831 v 0 c 3.159229,0.386429 6.324313,0.336809 9.505522,0.325898 3.00307,0.02226 6.036164,0.04859 8.983166,0.694116 3.292518,0.976781 6.007985,3.054817 9.021656,4.648694 3.768743,2.29821 7.789953,4.44026 10.669048,7.876278 1.935414,1.918975 3.601505,4.124795 5.778255,5.796745 2.48734,2.33746 4.80603,4.80715 6.91736,7.49469 2.09457,2.17942 4.24186,4.28536 6.54065,6.24944 0,0 12.84126,-7.67498 12.84126,-7.67498 z" />
  <path
     style="fill:#000000"
     id="path102"
     d="m 15.723168,28.351586 c 0.979395,5.26437 1.225996,10.615356 1.770737,15.931274 0.611369,6.374551 1.404616,12.73041 2.122061,19.093821 0.61094,5.868495 0.765415,11.767374 0.911229,17.661083 0.06122,2.774508 0.06452,5.549306 0.05362,8.324246 0,0 12.960973,-6.609709 12.960973,-6.609709 v 0 C 33.511128,79.971405 33.499564,77.190484 33.467617,74.4096 33.362238,68.497212 32.948213,62.599831 32.360261,56.715954 31.752324,50.338615 30.877729,43.991273 30.289777,37.611937 29.830447,32.187983 29.337575,26.765862 28.94568,21.33696 c 0,0 -13.222512,7.014626 -13.222512,7.014626 z" />
  <path
     style="fill:#000000"
     id="path104"
     d="m 22.31195,16.649939 c 0.221976,5.025967 0.181947,10.057667 0.382894,15.083937 0.429365,6.231594 0.804649,12.502929 1.693034,18.68942 0.851074,6.192546 1.54059,12.407349 2.228467,18.620307 0.41735,3.704794 0.566638,7.429209 0.602454,11.15472 4.37e-4,0.471191 8.73e-4,0.942383 0.0013,1.413574 0,0 13.192976,-6.743604 13.192976,-6.743604 v 0 c -0.0117,-0.47012 -0.02341,-0.94024 -0.03511,-1.41036 C 40.25404,69.717198 40.087004,65.972294 39.5238,62.266647 38.686958,56.087232 37.906851,49.903836 37.151443,43.713761 36.457334,37.543287 35.882487,31.352096 35.498532,25.154939 35.354501,20.054281 35.445899,14.952152 35.650317,9.8537008 c 0,0 -13.338367,6.7962382 -13.338367,6.7962382 z" />
  <path
     style="fill:#000000"
     id="path106"
     d="m 29.47973,87.500399 c 4.964194,0.699284 9.938339,1.174393 14.943114,1.4545 4.354455,0.238145 8.714437,0.354876 13.07485,0.397788 3.529877,-0.285442 6.786752,0.594506 10.103686,1.646863 2.539532,0.847208 5.232616,1.075697 7.766728,1.929853 1.23608,0.416637 2.444236,0.912295 3.673861,1.347609 7.235807,2.271749 14.793219,3.218229 22.282551,4.237058 1.26196,0.157384 2.52393,0.314768 3.78589,0.472152 0,0 11.65789,-8.273741 11.65789,-8.273741 v 0 c -1.29098,-0.127277 -2.58196,-0.254554 -3.87293,-0.381831 -7.33298,-0.882619 -14.641648,-1.98887 -21.695361,-4.256553 -1.811192,-0.672706 -3.663335,-1.592892 -5.531302,-2.090187 -1.935578,-0.515295 -4.020108,-0.525097 -5.913279,-1.250477 -1.698447,-0.551806 -3.436011,-1.366666 -5.190678,-1.717731 -1.669286,-0.333983 -3.4428,-0.294814 -5.133319,-0.324868 -4.413805,0.002 -8.828919,-2.48e-4 -13.239649,-0.190606 -4.85802,-0.249041 -9.731881,-0.586438 -14.499025,-1.611019 0,0 -12.213027,8.61119 -12.213027,8.61119 z" />
</svg>
