<?xml version="1.0" encoding="UTF-8" standalone="no"?>
<svg
   id="Layer_1"
   data-name="Layer 1"
   viewBox="0 0 512 512"
   version="1.1"
   sodipodi:docname="minus10seconds.svg"
   inkscape:version="1.1 (c68e22c387, 2021-05-23)"
   xmlns:inkscape="http://www.inkscape.org/namespaces/inkscape"
   xmlns:sodipodi="http://sodipodi.sourceforge.net/DTD/sodipodi-0.dtd"
   xmlns="http://www.w3.org/2000/svg"
   xmlns:svg="http://www.w3.org/2000/svg">
  <defs
     id="defs54" />
  <sodipodi:namedview
     id="namedview52"
     pagecolor="#ffffff"
     bordercolor="#666666"
     borderopacity="1.0"
     inkscape:pageshadow="2"
     inkscape:pageopacity="0.0"
     inkscape:pagecheckerboard="0"
     showgrid="false"
     inkscape:zoom="0.5175781"
     inkscape:cx="-91.773589"
     inkscape:cy="70.520758"
     inkscape:window-width="1366"
     inkscape:window-height="715"
     inkscape:window-x="-8"
     inkscape:window-y="-8"
     inkscape:window-maximized="1"
     inkscape:current-layer="Layer_1" />
  <title
     id="title45">rewind1-glyph</title>
  <path
     d="M488.67,452.31c13.09,0,23.33-10.63,23.33-24.2V83.89c0-13.57-10.25-24.19-23.34-24.19a25.26,25.26,0,0,0-12.58,3.46L216.19,235.26a23.53,23.53,0,0,0,0,41.47l259.9,172.11a25.24,25.24,0,0,0,12.58,3.46Z"
     fill="#000000"
     id="path47"
     style="fill:#000000" />
  <path
     d="M284.88,452.31c13.09,0,23.33-10.63,23.33-24.2V83.89c0-13.57-10.25-24.19-23.34-24.19a25.26,25.26,0,0,0-12.58,3.46L12.41,235.26a23.53,23.53,0,0,0,0,41.47L272.3,448.85a25.24,25.24,0,0,0,12.58,3.46Z"
     fill="#000000"
     id="path49"
     style="fill:#000000" />
  <circle
     id="path258"
     style="fill:#F5F5F5;stroke:#000000"
     cx="714.86798"
     cy="117.85661"
     r="0.97266364" />
  <circle
     id="path275"
     style="fill:#F5F5F5;stroke:#000000"
     cx="9.6603775"
     cy="488.81512"
     r="0.97266364" />
  <path
     style="fill:#000000"
     id="path476"
     d="m 8.8051887,12.735135 c 0.8859436,10.324684 2.3069993,20.612431 3.0828473,30.967249 0.815111,12.764694 0.915233,25.559712 0.97497,38.345783 0.07551,12.543399 0.09954,25.087753 0.08225,37.631443 -0.484108,10.72889 0.823064,21.60504 -0.849811,32.23944 -1.86639,7.52362 -3.521183,15.07513 -4.5374238,22.76376 -0.6700115,5.17849 0.2376343,10.37526 0.7409761,15.52977 0.4451309,4.77354 0.490581,9.57099 0.5506693,14.36108 0.022119,2.60714 0.01597,5.21439 0.011452,7.82158 0,0 13.2120024,-6.73389 13.2120024,-6.73389 v 0 c -0.01092,-2.60697 -0.0223,-5.21395 -0.04174,-7.82088 -0.03709,-4.83955 -0.07535,-9.68986 -0.5581,-14.50975 -0.533523,-5.03649 -1.41388,-10.11495 -0.678388,-15.17783 0.98152,-7.64748 2.704053,-15.1332 4.366775,-22.655 1.439094,-10.69346 0.20258,-21.56554 0.566954,-32.33062 7e-6,-12.56868 0.07127,-25.137329 0.03606,-37.70608 C 25.615915,62.667996 25.306572,49.874384 24.625693,37.097272 23.917779,26.704267 22.354995,16.357814 22.10802,5.9570032 c 0,0 -13.3028313,6.7781318 -13.3028313,6.7781318 z" />
  <path
     style="fill:#000000"
     id="path478"
     d="M 92.376944,17.232213 C 86.668224,22.63944 82.106309,28.847439 78.3121,35.693767 c -4.507238,7.314939 -7.061966,15.547391 -9.857257,23.609985 -1.749464,8.142672 -5.161589,15.714586 -8.248683,23.408824 -3.733108,8.955518 -5.351455,18.476044 -6.329031,28.064664 -0.778684,8.30772 -0.631425,16.62338 5.44e-4,24.92813 1.015394,7.46689 2.84086,14.838 5.712867,21.80579 2.739978,5.55604 7.06072,10.13253 11.520083,14.3562 3.728616,3.44206 8.206026,5.21509 13.124511,6.06395 3.147952,0.50633 6.349151,0.14171 9.485728,0.75937 0.703177,0.13847 5.717987,1.58926 6.208111,1.72937 7.256407,2.81128 14.685537,4.97494 22.331027,6.4086 5.2953,0.94363 10.5974,1.34118 15.91202,0.45715 8.32963,-2.63362 17.42188,-7.28274 22.65482,-14.65468 1.592,-2.24274 2.78704,-4.74254 4.21356,-7.094 6.26375,-9.92535 11.15757,-19.57289 14.73996,-30.75053 4.6626,-14.41213 6.23505,-29.46576 7.36069,-44.489619 0.70776,-12.042862 1.28718,-24.132053 0.77553,-36.192995 -0.29914,-8.419534 -1.11096,-13.643104 -6.76688,-20.00571 -4.83158,-4.090996 -10.55547,-7.057437 -16.04902,-10.179009 -4.12756,-2.486628 -8.44407,-4.559271 -12.73534,-6.737096 -5.68083,-2.756681 -12.19556,-3.286353 -18.41398,-3.795222 -6.57163,-0.545071 -11.03452,-0.837537 -17.21254,1.810462 -10.76788,5.875902 -21.308659,12.363536 -30.637223,20.373215 -2.148301,2.34607 -4.466576,4.527846 -6.739325,6.751393 0,0 13.733886,-5.672141 13.733886,-5.672141 v 0 c 2.240096,-2.196936 4.448673,-4.42492 6.694642,-6.615722 4.1731,-3.470765 27.26688,-19.205153 5.42421,-5.663827 2.22784,-1.14771 3.23594,-1.870107 5.66096,-2.38762 3.62114,-0.772772 7.43211,0.06635 11.07957,-0.01744 6.05058,0.416742 12.42411,0.786666 17.99128,3.363674 4.25696,2.242242 8.64845,4.16553 12.78794,6.635246 5.37654,3.036447 10.93491,5.949784 15.76208,9.802485 5.52814,5.97602 6.11261,10.964075 6.5114,18.984525 0.52229,11.962126 0.0164,23.95239 -0.57961,35.903745 -1.12348,14.984956 -2.8176,29.994556 -7.73786,44.287476 -3.64988,10.91096 -8.69905,20.84284 -14.99143,30.48821 -2.07888,3.31744 -3.91163,6.68388 -6.79646,9.38377 -0.83571,0.78213 -3.6877,2.65992 -2.64304,2.19214 25.60069,-11.46343 10.52413,-5.70069 7.71455,-4.65231 -5.19204,1.19422 -10.39791,0.81409 -15.6446,0.0228 -7.64349,-1.25973 -15.103,-3.23978 -22.25191,-6.26929 -5.19707,-1.5341 -10.18934,-3.0062 -15.676045,-2.74161 -4.730928,-0.60279 -9.088723,-2.01551 -12.731949,-5.25141 -4.344449,-4.02515 -8.48783,-8.50858 -11.256669,-13.77898 -2.787212,-6.82453 -4.56865,-14.06991 -5.551226,-21.37149 -0.632135,-8.22635 -0.616607,-16.46604 0.106997,-24.69189 0.954524,-9.474349 2.679273,-18.849576 6.44772,-27.659242 3.186479,-7.705511 6.438747,-15.377064 8.324272,-23.526338 2.803463,-7.982183 5.317909,-16.129625 9.891887,-23.33103 3.963393,-6.733052 8.617193,-13.001203 14.614953,-18.089999 0,0 -13.870876,5.566492 -13.870876,5.566492 z" />
  <path
     style="fill:#000000"
     id="path480"
     d="m 102.33172,29.208573 c -4.384663,4.497809 -8.276737,9.420996 -12.475302,14.095673 -4.110275,4.073085 -6.774756,8.995651 -9.455171,14.029249 -3.52979,5.612562 -4.836816,12.208666 -6.355626,18.565779 -1.732841,8.008544 -4.051012,15.86271 -5.715818,23.887106 -1.272962,6.67753 -1.379493,13.48775 -1.485436,20.26162 0.103516,5.88382 -1.827034,11.55151 -2.91942,17.2888 -0.928017,4.38072 -0.951529,8.7026 -0.385341,13.11052 1.199972,5.41277 4.282427,9.90129 7.158028,14.51746 3.309437,4.33078 8.272333,6.732 13.419571,8.12429 5.887696,1.27781 11.928006,1.26577 17.920375,1.31304 6.432,-0.0474 12.17834,0.66143 18.3829,-1.37139 7.75532,-3.16447 15.37403,-7.15955 21.75307,-12.62789 3.42793,-2.93854 6.55714,-6.11732 10.07192,-8.96986 8.26153,-6.00304 14.24928,-14.26022 19.5814,-22.83555 3.51473,-5.51941 4.40806,-11.78131 4.79534,-18.16933 -0.16546,-5.72205 0.39265,-11.255158 1.53829,-16.849457 1.1753,-6.460139 3.93049,-12.446162 4.74048,-18.991631 0.67306,-5.327383 -0.30267,-9.122902 -2.995,-13.648257 -3.15257,-3.651659 -5.73975,-7.705722 -8.79418,-11.434019 -3.52824,-4.117218 -7.05043,-8.236769 -10.57817,-12.35685 -4.05341,-3.719734 -8.22985,-7.302593 -12.2991,-11.00211 -2.9749,-2.952108 -6.58062,-4.385089 -10.62923,-5.081687 -3.29361,-0.150718 -6.78762,0.805109 -9.63828,2.494924 -15.38899,9.122308 -11.17399,5.026475 -17.49316,11.916728 -4.91324,5.434927 -9.63968,11.033411 -14.479551,16.534931 -4.047219,3.336725 -7.417212,7.211135 -10.844901,11.136256 -0.859385,1.139718 -1.72516,2.40478 -2.786761,3.381699 -0.309652,0.284951 -1.409924,0.917675 -1.044326,0.709303 6.681602,-3.808152 11.541838,-3.747599 13.739045,-9.345814 3.565548,-5.885014 8.398304,-10.895183 12.948434,-16.04483 6.06265,-6.515505 10.00813,-14.440237 14.40572,-22.057335 0.49874,-0.896745 2.30164,-4.260268 3.08314,-5.263349 0.31654,-0.406294 1.59733,-1.286756 1.14922,-1.032847 -4.14687,2.34969 -8.03117,5.163555 -12.27352,7.33609 -0.36212,0.185444 -0.80642,-0.728886 -1.12431,-0.474984 -0.50252,0.40136 -0.389,1.226015 -0.5835,1.839022 -2.29551,6.185581 -6.45813,11.456575 -10.3567,16.725109 -3.37153,4.263818 -13.269036,10.965095 6.15165,-1.970314 0.56661,-0.377395 -1.27299,0.507894 -1.94271,0.630141 -1.4191,0.259036 -1.76524,-0.04625 -3.06147,-0.496331 0,0 -12.41864,8.258855 -12.41864,8.258855 v 0 c 8.762417,4.541195 19.22156,-5.40358 24.7705,-12.259043 3.92198,-5.426554 8.10393,-10.840649 10.3276,-17.224701 3.52659,-10.523342 -8.26949,0.255213 -13.26251,3.421154 -1.16706,0.740005 -1.53956,2.298741 -2.21564,3.50396 -0.55597,0.991084 -1.09538,1.991362 -1.64308,2.987042 -4.23602,7.635562 -8.42935,15.307055 -14.452968,21.744813 -4.659038,5.269743 -9.812195,10.356063 -12.967207,16.710312 -3.426896,12.479819 13.937464,-1.508049 17.219437,-6.858213 3.347958,-3.961956 7.063958,-7.473711 10.773418,-11.092574 4.7825,-5.511674 9.47254,-11.102302 14.45416,-16.438166 5.46616,-5.287659 3.65965,-3.077307 -7.64148,2.983982 -0.75126,0.40293 1.46855,-0.872284 2.24292,-1.228783 2.11977,-0.975888 4.42753,-1.886769 6.77965,-1.943717 3.85733,0.472125 7.33516,1.531194 10.20974,4.30987 4.04308,3.640249 8.17047,7.190048 12.21326,10.834594 3.52685,4.107984 7.05434,8.210054 10.5811,12.315778 3.00579,3.674568 5.45696,7.731855 8.60196,11.29621 2.65884,4.396545 3.23689,7.532521 2.61761,12.715283 -0.95461,6.469657 -3.65825,12.456008 -4.75646,18.894736 -1.11393,5.65673 -1.58926,11.26533 -1.47969,17.0352 -0.46595,6.17995 -1.5055,12.14922 -4.9659,17.45093 -5.35405,8.49548 -11.46348,16.46818 -19.71135,22.38042 -3.45204,2.89319 -6.64577,6.13741 -10.17486,8.93029 -1.05019,0.83112 -4.47924,2.91585 -3.2787,2.32227 25.23719,-12.47786 8.91612,-5.153 6.75913,-4.20054 -0.94464,0.40872 -1.8507,0.92178 -2.83394,1.22615 -4.86972,1.50745 -10.26558,0.0966 -15.24851,0.60118 -5.89484,-0.0483 -11.83164,-0.0252 -17.654618,-1.07199 -4.851445,-1.11211 -9.609906,-3.20883 -12.798594,-7.17495 -2.775035,-4.4162 -5.787703,-8.72439 -6.818545,-13.95132 -0.429171,-4.271 -0.301383,-8.48278 0.582322,-12.7069 1.108257,-5.78372 2.903772,-11.52738 2.711561,-17.46882 0.123724,-6.69262 0.295481,-13.414013 1.584404,-20.005733 1.63047,-8.004373 3.947845,-15.832813 5.68538,-23.813173 1.572077,-6.3203 3.14973,-12.730611 6.667536,-18.305637 2.62781,-4.9515 5.546829,-9.61531 9.488194,-13.665134 4.17976,-4.805768 8.35272,-9.588193 12.67551,-14.259626 0,0 -13.7443,5.872086 -13.7443,5.872086 z" />
  <path
     style="fill:#000000"
     id="path482"
     d="m 15.444583,3.3371692 c 2.703297,6.4538288 3.717858,13.4017248 4.447288,20.3095558 0.600019,7.11107 0.613949,14.252314 0.635508,21.383123 -0.02381,8.10275 0.0481,16.205171 0.05972,24.307828 -3.72e-4,8.434198 0.198456,16.855501 -0.681845,25.25139 -0.643411,5.706924 -1.024675,11.413384 -1.847606,17.096824 -0.932157,5.89728 -1.165725,11.87054 -1.35288,17.82839 -0.05435,6.94319 -0.115431,13.88722 -0.09645,20.83075 0.369352,6.51195 -0.583902,12.95234 -1.203384,19.41252 -0.624339,4.75158 -0.170704,9.5811 -0.567975,14.34005 -0.18312,2.19361 -0.841632,5.29829 -1.260773,7.4663 -1.221184,5.37893 -2.206622,10.79625 -2.584908,16.30128 -0.139591,2.32671 -0.181653,4.65721 -0.225111,6.9871 0,0 13.250477,-6.71986 13.250477,-6.71986 v 0 c 0.04432,-2.30223 0.08547,-4.60547 0.2487,-6.90327 0.459547,-5.42116 1.384888,-10.77112 2.515046,-16.09235 1.281346,-7.28408 1.313984,-14.59538 1.851337,-21.95817 0.638166,-6.49307 1.398146,-12.97907 1.096774,-19.51893 0.01675,-6.93699 -0.06859,-13.87569 0.159109,-20.81052 0.184563,-5.91506 0.498991,-11.83387 1.43805,-17.68529 0.822659,-5.691161 1.153741,-11.419769 1.767351,-17.136034 0.73476,-8.416144 0.393638,-16.845669 0.443266,-25.286395 C 33.565036,54.606779 33.67767,46.47253 33.647713,38.337625 33.608,31.167877 33.532594,23.989694 32.902021,16.84256 32.139986,9.7733114 30.934813,2.7253822 28.447736,-3.9657871 c 0,0 -13.003153,7.3029563 -13.003153,7.3029563 z" />
  <path
     style="fill:#000000"
     id="path484"
     d="m 70.1328,138.08272 c -0.794742,-5.13833 -1.295487,-10.29809 -2.109444,-15.43457 -1.080525,-6.69861 -1.295892,-13.4904 -1.47276,-20.2604 -0.484095,-7.667244 0.630898,-15.254006 1.57262,-22.836437 1.091027,-7.709643 3.288643,-15.184431 4.87487,-22.7919 1.508743,-5.269808 2.139725,-10.730108 3.668461,-15.986967 2.193172,-6.036762 6.253492,-11.160478 10.166006,-16.175845 3.559131,-4.082787 6.960813,-8.755674 11.775351,-11.413465 -19.74235,11.254581 -12.122846,6.261165 -6.769405,5.279071 2.353632,-0.431776 4.740744,-0.505407 7.124248,-0.605901 4.902393,-7.9e-5 9.768003,-0.690188 14.639993,-1.154343 0,0 11.86743,-8.7882815 11.86743,-8.7882815 v 0 c -4.84525,0.4226587 -9.67699,1.2004168 -14.5448,1.1936936 -11.472742,0.2381077 -14.580326,1.8511929 -26.168402,9.4551379 -4.485929,3.204102 -7.994065,7.59124 -11.448133,11.841734 -3.931565,5.174059 -8.029895,10.430613 -9.990595,16.717302 -1.426506,5.308043 -2.211733,10.757167 -3.614863,16.07498 -1.547584,7.601847 -3.612844,15.097533 -4.645839,22.800816 -1.039264,7.662387 -2.129286,15.348755 -1.59515,23.104855 0.199625,6.83238 0.434174,13.69159 1.501576,20.45382 0.775302,5.16611 1.294163,10.35398 1.958005,15.53513 0,0 13.210831,-7.00843 13.210831,-7.00843 z" />
  <path
     style="fill:#000000"
     id="path486"
     d="m 82.01432,103.41442 c -0.143258,-7.896834 -0.332255,-15.798651 0.07732,-23.688481 0.133607,-9.045813 4.308138,-17.014687 8.329206,-24.851034 3.929144,-6.427706 9.061898,-11.985179 13.182294,-18.294933 3.3335,-5.543732 8.44301,-9.389929 13.40874,-13.334244 2.67379,-1.83934 1.32694,-1.02215 4.02533,-2.476495 0,0 -13.87123,5.328567 -13.87123,5.328567 v 0 c -2.58729,1.614523 -1.28952,0.73641 -3.88189,2.651144 -5.01998,3.984209 -9.858405,8.212556 -13.224638,13.761603 -4.1855,6.227023 -9.225826,11.848382 -12.957878,18.370873 -4.117303,7.955977 -7.905152,16.253154 -8.029103,25.397197 -0.375727,7.970233 -0.155008,15.950303 -0.384898,23.926113 0,0 13.326746,-6.79031 13.326747,-6.79031 z" />
  <circle
     id="path488"
     style="fill:#F5F5F5;stroke:#000000"
     cx="119.78868"
     cy="21.252831"
     r="0.97266364" />
  <circle
     id="path490"
     style="fill:#F5F5F5;stroke:#000000"
     cx="119.78868"
     cy="21.252831"
     r="0.97266364" />
  <path
     style="fill:#000000"
     id="path492"
     d="m 89.730665,56.819586 c 2.062063,-8.884861 4.424076,-17.652694 7.268128,-26.318187 2.247279,-7.007059 6.152217,-13.154784 11.256117,-18.402892 0.7133,-0.562308 1.38934,-1.175417 2.13991,-1.686922 0.67214,-0.4580561 2.8134,-1.6337718 2.11674,-1.2139467 -11.02965,6.6467717 -14.659368,7.7781277 -8.75274,5.7014437 0,0 11.76844,-9.0960051 11.76844,-9.0960051 v 0 c -7.79469,2.0504986 -14.86549,6.7173041 -20.887701,11.9945671 -4.89869,5.528906 -8.723716,11.763706 -10.810562,18.905964 -2.792481,8.870917 -5.33603,17.824553 -7.401164,26.894109 0,0 13.302832,-6.778131 13.302832,-6.778131 z" />
  <path
     style="fill:#000000"
     id="path494"
     d="m 94.361172,34.675134 c 5.853258,-3.252699 12.109808,-5.685391 18.439708,-7.827293 5.0225,-1.336758 2.43643,-0.745249 7.7637,-1.750417 0,0 11.68963,-8.805819 11.68963,-8.805819 v 0 c -5.37424,0.863976 -2.76067,0.342395 -7.84532,1.541472 -6.32264,2.050052 -12.54714,4.417981 -18.46282,7.469331 0,0 -11.584898,9.372726 -11.584898,9.372726 z" />
  <path
     style="fill:#000000"
     id="path496"
     d="M 184.41433,64.772905 C 184.57018,56.036341 183.78814,47.48899 181.09222,39.164671 178.60948,31.68982 174.86747,24.64672 169.74242,18.663076 162.71123,12.982913 154.08233,9.9789017 145.87731,6.4435899 139.61232,3.8093771 133.5543,0.74715198 127.00993,-1.1485855 c -5.75588,-1.4362387 -11.73023,-1.4503136 -17.57245,-0.6325634 -3.88025,1.28289122 -2.01397,0.5485259 -5.60703,2.18212356 0,0 -11.556939,9.21455654 -11.556939,9.21455654 v 0 c 3.493863,-1.7704854 1.702096,-0.9230881 5.378794,-2.5347935 5.675245,-1.0911794 11.470655,-1.0160124 17.141525,0.1599147 6.5935,1.6747724 12.66644,4.6439676 18.89226,7.3287106 8.03484,3.410819 16.52502,6.247357 23.47057,11.68494 5.07251,5.758716 8.66112,12.68875 11.15083,19.93007 2.59468,8.258005 3.41116,16.731954 2.78009,25.378849 0,0 13.32675,-6.790317 13.32675,-6.790317 z" />
  <path
     style="fill:#000000"
     id="path500"
     d="m 116.85862,161.49989 c -5.57438,-1.26896 -10.78899,-3.41444 -15.48278,-6.66976 -4.334305,-3.23874 -8.211686,-6.79706 -11.48431,-11.1011 -3.767012,-4.12558 -4.907548,-8.90672 -5.562187,-14.29033 -0.690605,-6.32787 -2.28143,-12.49085 -3.323062,-18.76007 -0.113806,-0.84313 -0.227613,-1.68625 -0.34142,-2.52938 0,0 -13.107899,6.91421 -13.107899,6.91421 v 0 c 0.127744,0.85215 0.255487,1.7043 0.38323,2.55645 1.1138,6.22311 2.693448,12.35874 3.352403,18.65868 0.669684,5.6525 1.918174,10.69392 5.855712,15.02452 3.365655,4.42384 7.311204,8.12815 11.764825,11.46242 4.722928,3.37044 9.919358,5.76438 15.575708,7.12714 0,0 12.36978,-8.39278 12.36978,-8.39278 z" />
  <path
     style="fill:#000000"
     id="path522"
     d="m 103.53267,164.75801 c 6.52808,-0.0869 13.05708,-0.0859 19.58562,-0.0709 7.43426,0.22076 14.79796,-0.78491 21.66977,-3.64498 7.51315,-3.96759 16.44348,-6.87204 21.5452,-13.99002 0.54528,-0.76079 2.28522,-3.98769 2.73324,-4.80361 2.38465,-4.48482 5.32534,-10.12039 4.99787,-15.30801 -1.35095,-2.08348 -3.20184,-1.86725 -5.19532,-0.73229 -11.93736,6.79638 -12.53162,6.35794 -19.49965,13.38221 -9.18099,8.32243 -18.40748,16.64231 -27.9623,24.54772 -6.1848,5.53255 -12.86582,10.45572 -19.49979,15.42634 -3.535564,2.28733 -12.881216,8.28847 8.45172,-4.82736 1.22508,-0.7532 -2.65686,1.11226 -4.02903,1.54271 0,0 -11.787673,9.04394 -11.787673,9.04394 v 0 c 7.856783,-1.75487 14.549253,-6.63888 21.099453,-11.22328 6.51562,-4.91723 12.99392,-9.89421 19.0842,-15.33725 9.59128,-8.02877 18.93264,-16.37554 28.19925,-24.76934 0.95121,-0.90113 1.87242,-1.83504 2.85365,-2.7034 0.73379,-0.64939 3.16306,-2.28617 2.28746,-1.84632 -3.68826,1.85275 -7.1367,4.15166 -10.7711,6.10797 -0.11034,0.0594 2.66826,-1.95507 2.8964,-2.02749 0.20978,-0.0666 0.41094,0.15777 0.61641,0.23666 0.0513,5.1368 -2.93485,10.10705 -5.25639,14.51865 -1.36659,2.345 -2.6554,4.52654 -4.68683,6.37411 -0.64652,0.588 -2.82625,2.03479 -2.04855,1.63616 2.58085,-1.32289 15.91602,-8.95569 7.50671,-4.39848 -6.64597,3.22556 -13.92444,4.36134 -21.29934,4.14562 -6.46352,0.0148 -12.92752,0.0174 -19.39054,-0.0709 0,0 -12.10044,8.79148 -12.10044,8.79148 z" />
  <path
     style="fill:#000000"
     id="path526"
     d="m 24.538903,12.619174 c 1.160862,7.114075 1.383469,14.339448 1.590363,21.531507 0.248655,7.961992 0.14864,15.928172 0.167813,23.892371 -0.403864,5.756093 1.091333,11.277439 2.301367,16.832824 1.144506,6.113122 1.350635,12.340698 1.490476,18.541702 0.406833,6.691102 -0.508513,13.330942 -1.120162,19.978372 -0.552709,6.08363 -0.71108,12.19731 -0.730205,18.3034 -0.02229,6.30657 -0.04619,12.61314 -0.07114,18.91971 -1.582051,5.1827 -3.524431,10.15111 -4.608342,15.49675 -0.770547,5.57741 -1.692594,11.13474 -2.391047,16.72309 -0.825009,4.53752 -0.482539,8.96611 0.181024,13.47856 0.622418,3.90029 0.815199,7.84473 0.943383,11.78611 0,0 13.226821,-6.7892 13.226821,-6.7892 v 0 c -0.108838,-3.99812 -0.369204,-7.99242 -1.009114,-11.9453 -0.636423,-4.37878 -0.817394,-8.69108 -0.06858,-13.0871 0.691478,-5.54999 1.594898,-11.07208 2.423914,-16.60133 1.181996,-5.39119 3.525122,-10.37706 4.500711,-15.78799 -0.0349,-6.28843 -0.07404,-12.57717 0.0059,-18.86546 0.125673,-6.07337 0.221716,-12.15221 0.791421,-18.20488 0.596752,-6.69612 1.453593,-13.385218 1.031972,-20.123846 C 43.025184,80.396861 42.839918,74.076321 41.650685,67.864916 40.437936,62.420354 39.053117,56.995803 39.419149,51.354665 39.415584,43.395131 39.243387,35.436892 39.126562,27.478459 38.89328,20.177769 38.698063,12.862665 37.749734,5.6107448 c 0,0 -13.210831,7.0084292 -13.210831,7.0084292 z" />
</svg>
