<?xml version="1.0" encoding="UTF-8" standalone="no"?>
<svg
   id="Layer_1"
   data-name="Layer 1"
   viewBox="0 0 512 512"
   version="1.1"
   sodipodi:docname="minus15seconds.svg"
   inkscape:version="1.1 (c68e22c387, 2021-05-23)"
   xmlns:inkscape="http://www.inkscape.org/namespaces/inkscape"
   xmlns:sodipodi="http://sodipodi.sourceforge.net/DTD/sodipodi-0.dtd"
   xmlns="http://www.w3.org/2000/svg"
   xmlns:svg="http://www.w3.org/2000/svg">
  <defs
     id="defs54" />
  <sodipodi:namedview
     id="namedview52"
     pagecolor="#ffffff"
     bordercolor="#666666"
     borderopacity="1.0"
     inkscape:pageshadow="2"
     inkscape:pageopacity="0.0"
     inkscape:pagecheckerboard="0"
     showgrid="false"
     inkscape:zoom="1.0351562"
     inkscape:cx="255.51699"
     inkscape:cy="202.38492"
     inkscape:window-width="1366"
     inkscape:window-height="715"
     inkscape:window-x="-8"
     inkscape:window-y="-8"
     inkscape:window-maximized="1"
     inkscape:current-layer="Layer_1" />
  <title
     id="title45">rewind1-glyph</title>
  <path
     d="M488.67,452.31c13.09,0,23.33-10.63,23.33-24.2V83.89c0-13.57-10.25-24.19-23.34-24.19a25.26,25.26,0,0,0-12.58,3.46L216.19,235.26a23.53,23.53,0,0,0,0,41.47l259.9,172.11a25.24,25.24,0,0,0,12.58,3.46Z"
     fill="#000000"
     id="path47"
     style="fill:#000000" />
  <path
     d="M284.88,452.31c13.09,0,23.33-10.63,23.33-24.2V83.89c0-13.57-10.25-24.19-23.34-24.19a25.26,25.26,0,0,0-12.58,3.46L12.41,235.26a23.53,23.53,0,0,0,0,41.47L272.3,448.85a25.24,25.24,0,0,0,12.58,3.46Z"
     fill="#000000"
     id="path49"
     style="fill:#000000" />
  <path
     style="fill:#000000"
     id="path41"
     d="m 3.1646768,32.215737 c 1.180958,3.487151 1.8953286,7.068617 2.3555481,10.713705 0.5069465,4.80486 0.5189577,9.641747 0.5319862,14.467558 0.03249,5.322105 0.074675,10.64467 0.042541,15.966825 0.016001,7.61576 0.1677668,15.229261 0.1760059,22.845516 -0.00114,9.492789 0.026628,18.985259 -0.011501,28.477999 0.4585255,8.31638 1.1913513,16.61078 1.526018,24.93468 0.3844996,5.97154 -0.1373085,11.97324 0.6297664,17.91441 0.7352111,4.7256 1.136761,9.49027 1.3299295,14.26602 0.133196,3.74955 0.1436452,7.50092 0.1110629,11.25218 -0.012189,2.71457 -0.063206,5.42947 -0.035227,8.14402 0.010588,3.36338 0.05084,6.72659 0.040127,10.09006 -0.00301,1.36594 0.036562,2.84712 -0.1722142,4.1432 0,0 13.4676754,-6.86381 13.4676754,-6.86381 v 0 c -0.204182,-1.05695 -0.174049,-2.72226 -0.172034,-3.96599 -0.01028,-3.37768 0.03026,-6.7551 0.04699,-10.13267 0.03376,-2.70737 -0.0025,-5.41541 -0.01508,-8.12285 -0.04452,-3.7552 -0.04305,-7.51424 -0.246349,-11.26479 -0.2972,-4.80065 -0.741496,-9.58254 -1.406507,-14.34769 C 20.65106,154.87348 20.830496,148.9577 20.495524,143.06967 20.042207,134.795 19.344077,126.54 18.857493,118.26821 c -0.03834,-9.48897 -0.01054,-18.977657 -0.01039,-28.466672 0.0099,-7.67851 0.161187,-15.354115 0.193403,-23.032083 -0.02044,-5.341785 0.05072,-10.683508 0.04168,-16.025374 -0.06901,-4.882814 -0.130014,-9.774627 -0.584898,-14.639756 -0.49338,-3.683323 -1.301184,-7.281955 -2.110101,-10.903214 0,0 -13.2225114,7.014626 -13.2225114,7.014626 z" />
  <path
     style="fill:#000000"
     id="path45"
     d="m 13.650577,31.470372 c 0.165148,5.017503 0.190157,10.040118 0.193771,15.060259 -0.0072,5.500739 -0.04585,11.001401 -0.05246,16.502195 -0.01673,4.639035 0.4284,9.266788 0.667449,13.898605 0.178769,3.296551 0.165942,6.598183 0.207173,9.897939 0.452988,4.521934 0.722409,9.057264 0.893825,13.59758 0.121168,4.87497 0.173214,9.75242 0.157141,14.62891 0.0373,4.96267 0.01435,9.9249 -0.01469,14.88754 -0.07969,3.66483 -0.04763,7.32932 -0.03688,10.99451 0.002,3.92358 0.0077,7.84695 0.0043,11.77061 -0.117077,3.92594 0.852679,7.76827 1.333419,11.64747 0.418262,3.66588 0.539179,7.35622 0.623628,11.04206 -0.151956,4.31006 0.711811,8.54919 1.296377,12.79718 0.374421,2.59497 0.47929,5.21353 0.541717,7.83078 0.03045,2.34447 0.005,4.68918 -0.0087,7.03369 -0.01025,1.04216 -0.0087,2.08418 -9.43e-4,3.12634 0,0 13.261577,-6.75474 13.261577,-6.75474 v 0 c 0.01062,-1.04337 0.01562,-2.08663 0.01043,-3.13006 -0.0039,-2.34772 -0.0115,-4.69555 -0.05445,-7.04295 -0.05798,-2.66593 -0.233039,-5.32611 -0.712568,-7.95417 -0.686062,-4.15913 -1.494881,-8.32069 -1.315112,-12.56049 -0.01191,-3.75313 -0.03628,-7.50503 -0.64752,-11.22084 -0.515282,-3.81576 -1.317941,-7.62088 -1.230581,-11.48767 -0.0035,-3.92512 0.0022,-7.84995 0.0046,-11.775 0.01126,-3.65338 0.04498,-7.30609 -0.03123,-10.95917 -0.02456,-4.95963 -0.03842,-9.91885 -0.01197,-14.87848 -0.03861,-4.889 -0.01015,-9.779094 -0.193526,-14.665954 -0.158391,-4.555242 -0.505099,-9.096707 -0.699647,-13.648986 -0.006,-3.311182 -0.124809,-6.621598 -0.321317,-9.926902 -0.313999,-4.583921 -0.797117,-9.165811 -0.732681,-13.766437 -0.0066,-5.482976 -0.04526,-10.965819 -0.05246,-16.44874 0.0037,-5.085988 0.03072,-10.17427 0.193771,-15.257722 0,0 -13.272433,6.762643 -13.272433,6.762643 z" />
  <path
     style="fill:#000000"
     id="path48"
     d="m 11.879564,31.645907 c 0.558529,3.531877 1.299209,7.020613 2.199043,10.479601 0,0 12.772335,-6.926523 12.772335,-6.926523 v 0 c -0.90693,-3.421057 -1.673935,-6.881138 -1.789961,-10.435681 0,0 -13.181417,6.882603 -13.181417,6.882603 z" />
  <path
     style="fill:#000000"
     id="path56"
     d="m 69.988783,26.618442 c 4.052824,-0.256718 8.069299,-0.863717 12.103515,-1.302532 7.302622,-0.668619 14.640878,-0.692154 21.967182,-0.770305 7.90589,-0.05394 15.81182,-0.07946 23.71779,-0.115585 8.93101,-0.04881 17.86176,0.03473 26.79273,0.04519 6.36617,0.0018 12.73126,0.09207 19.0974,0.0728 3.17467,0.0792 6.33919,-0.113501 9.50194,-0.351491 0,0 11.61923,-8.600565 11.61923,-8.600565 v 0 c -3.12275,0.321414 -6.2467,0.575034 -9.39127,0.429796 -6.43178,-0.01971 -12.86257,0.07118 -19.29438,0.0706 -8.96473,0.0075 -17.92932,0.08498 -26.89405,0.02876 -7.84256,-0.04199 -15.68569,-0.09812 -23.52821,-0.04133 -7.30522,0.07465 -14.61285,0.231311 -21.910314,0.581188 -3.901583,0.299068 -7.76712,0.872358 -11.670578,1.154335 0,0 -12.110985,8.799146 -12.110985,8.799146 z" />
  <path
     style="fill:#000000"
     id="path58"
     d="m 49.271179,133.93084 c 2.921762,2.74422 5.283458,6.02047 7.881396,9.06485 2.508902,2.99094 5.197168,5.83683 8.37746,8.11681 2.916758,2.05475 6.025275,3.81537 9.268985,5.29603 2.191987,0.89869 4.042944,2.29426 5.850167,3.78719 2.3051,2.17756 5.227752,2.80834 8.270564,3.18014 4.99521,0.35367 10.0093,0.30358 15.014409,0.3512 4.14814,0.0784 8.17592,-0.83047 12.15502,-1.89449 4.59382,-2.68673 9.18763,-5.37347 13.78145,-8.0602 0,0 -13.77745,5.49732 -13.77745,5.49732 v 0 c 3.88962,-2.14591 7.77924,-4.29182 11.66886,-6.43773 -3.88989,1.24298 -7.89291,2.20077 -11.99137,2.29663 -4.95162,0.0393 -9.91011,0.0623 -14.85347,-0.26907 -2.758078,-0.27081 -5.56138,-0.57381 -7.672593,-2.56138 -1.939565,-1.55147 -3.7684,-3.19786 -6.141619,-4.09065 -3.239112,-1.2904 -6.317535,-2.97015 -9.105538,-5.07151 -3.233463,-2.02233 -5.843074,-4.81898 -8.346139,-7.66922 -2.634611,-3.05215 -4.912701,-6.3737 -7.638635,-9.34392 0,0 -12.741497,7.808 -12.741497,7.808 z" />
  <path
     style="fill:#000000"
     id="path60"
     d="m 84.604883,66.218741 c 4.219229,-0.08997 8.440804,-0.10963 12.661072,-0.107435 3.553835,0.107663 7.133905,-0.24037 10.634195,0.482987 2.58695,0.52714 5.02075,1.576654 7.53176,2.363348 2.61821,0.576021 5.1848,1.180303 7.69329,2.139064 2.46873,1.083236 4.90463,2.26063 7.32744,3.448479 2.33241,1.528056 4.28047,3.699035 5.92495,5.938641 1.88925,2.70482 3.8393,5.357443 5.85325,7.972589 2.15705,3.230485 3.94663,6.676932 5.57317,10.198481 2.095,5.183645 5.48383,9.642215 8.63126,14.209145 3.33825,4.29044 5.35149,9.10108 6.44584,14.37953 0.56649,3.70362 0.79203,7.48231 0.51226,11.22054 -0.20442,3.27566 -1.13602,5.87118 -3.52511,8.14425 -0.43719,0.32396 -0.84987,0.68392 -1.31156,0.97189 -0.9812,0.61198 -2.02545,1.11795 -3.01337,1.71901 -0.52225,0.31775 -2.09876,1.25475 -1.57398,0.94122 11.52985,-6.8885 14.5501,-7.57839 7.58538,-5.39263 -4.70597,1.45433 -9.60559,2.16901 -14.35518,3.44194 -2.34865,0.62947 -3.86513,1.2379 -6.11967,2.06319 -3.93863,1.44361 -7.85826,2.97738 -11.94209,3.96284 -2.27148,0.32911 -4.71279,1.00766 -7.02584,0.60042 -0.86544,-0.15237 -1.69546,-0.46285 -2.54319,-0.69428 0,0 -12.03951,8.15179 -12.03951,8.15179 v 0 c 0.86025,0.35622 1.69198,0.79114 2.58075,1.06866 2.35156,0.73427 4.90939,0.11678 7.27211,-0.18303 4.24213,-0.88135 8.27121,-2.45976 12.31637,-3.98841 1.53088,-0.60306 4.49814,-1.80954 6.04451,-2.25963 4.71159,-1.37137 9.62895,-2.01071 14.34707,-3.36482 8.37624,-1.87053 2.35687,-0.23355 17.61625,-8.7082 2.05493,-1.14126 4.12786,-2.38371 5.78553,-4.06492 2.03689,-2.66964 3.00129,-5.64418 3.07065,-9.01887 0.18356,-3.8593 -0.0814,-7.73432 -0.79994,-11.53392 -1.28249,-5.40058 -3.39868,-10.4028 -6.89301,-14.7795 -3.17078,-4.47332 -6.23881,-8.999948 -8.28134,-14.124402 -1.72046,-3.597748 -3.45641,-7.173096 -5.70931,-10.477363 -1.96989,-2.625852 -3.86988,-5.298045 -5.75045,-7.987469 -1.72457,-2.444821 -3.89584,-4.724777 -6.2907,-6.51352 -2.38361,-1.354578 -4.97423,-2.360249 -7.41669,-3.604961 -2.52843,-0.971975 -5.03216,-1.915264 -7.74156,-2.248933 -2.57188,-0.70789 -4.99459,-1.856123 -7.60519,-2.425661 -0.73891,-0.182638 -2.32959,-0.602106 -3.06259,-0.669616 -2.62739,-0.241986 -5.31909,0.25257 -7.95047,0.05235 -4.12166,0.0021 -8.2448,-0.01525 -12.365329,-0.107435 0,0 -12.091028,8.784646 -12.091028,8.784646 z" />
  <path
     style="fill:#000000"
     id="path62"
     d="m 81.240254,28.242392 c 0.128172,4.107903 0.180752,8.220454 0.208861,12.330666 0.0759,5.36386 -0.0034,10.727507 -0.09362,16.090539 -0.01329,2.832747 -0.08702,5.665278 -0.05521,8.498021 0.0011,0.452603 0.0022,0.905205 0.0033,1.357808 0,0 13.211664,-6.73168 13.211664,-6.73168 v 0 c 0.0011,-0.453729 0.0022,-0.907459 0.0033,-1.361189 0.03125,-2.814005 -0.0411,-5.627761 -0.05521,-8.441764 -0.09121,-5.331223 -0.169441,-10.66306 -0.09362,-15.995133 0.0284,-4.181187 0.08202,-8.364513 0.208861,-12.543506 0,0 -13.338368,6.796238 -13.338368,6.796238 z" />
  <path
     style="fill:#000000"
     id="path64"
     d="m 75.624871,68.151892 c 0.558248,2.938993 1.928826,5.380186 4.049221,7.446998 2.076453,1.841231 4.710033,2.544996 7.384712,2.960169 3.328915,0.746638 6.562813,1.868145 9.828906,2.847824 2.616869,0.843484 5.34732,1.04003 8.07366,1.166083 3.36527,7.09e-4 5.15648,-0.130819 8.13492,1.643475 2.21555,1.194658 3.84114,3.120526 5.72237,4.719806 0.99434,0.845306 2.04232,1.47017 3.13404,2.173015 2.81993,1.641677 5.30356,3.784399 7.69021,5.992309 1.94062,1.815366 4.40705,2.938059 5.80874,5.265859 2.27436,2.65447 3.49982,5.66839 4.23551,9.03926 0.84443,3.31861 -0.71196,5.57619 -3.05083,7.71452 -2.06444,2.65741 -5.12265,4.28315 -7.98423,5.95006 23.00632,-13.07334 8.63679,-4.87892 3.09703,-2.40925 -4.00045,1.59045 -7.86312,3.53131 -11.91834,4.97958 -3.22813,1.22961 -6.47335,2.30509 -9.88812,2.85031 -3.11538,0.39391 -6.26099,0.42104 -9.39642,0.43285 -2.909271,0.007 -5.818527,-0.0122 -8.727715,-0.0333 -2.778511,0.004 -5.556974,-0.006 -8.335477,0.003 -3.599664,0.11119 -4.783509,0.24127 -7.674757,-1.92774 -1.001046,-0.864 -1.91851,-1.82622 -2.784984,-2.8241 -0.785165,-0.90424 -0.992572,-1.29929 -0.991521,-1.29938 0.214983,-0.0178 0.29276,0.31692 0.43914,0.47537 -18.008035,10.03625 -16.09511,4.37181 -11.399915,8.54472 1.211957,1.07714 2.385497,2.20468 3.548068,3.33439 2.143266,2.39826 4.520064,4.45066 7.264994,6.10944 2.192992,1.32853 4.761608,1.79014 7.232097,2.34723 3.545956,0.69236 6.933144,1.99226 10.439355,2.87694 3.943127,0.78057 7.846612,1.74158 11.766285,2.62801 2.85622,0.70126 5.78494,0.88608 8.71302,0.96025 3.06872,0.0328 6.13771,0.072 9.2066,0.049 3.35592,0.28616 6.50686,-0.39608 9.70085,-1.32099 2.90493,-0.85992 5.91965,-1.21422 8.86627,-1.89306 2.11176,-0.47978 4.06143,-1.34509 6.00928,-2.25864 2.09233,-0.9688 4.41255,-1.1017 6.64578,-1.53328 0.51881,-0.11899 1.03762,-0.23798 1.55643,-0.35697 0,0 11.76028,-8.95141 11.76028,-8.95141 v 0 c -0.51237,0.11468 -1.02475,0.22937 -1.53712,0.34405 -2.23148,0.5802 -4.53026,0.56872 -6.7347,1.25966 -2.00536,0.77924 -3.80401,1.99635 -5.94163,2.44542 -2.90164,0.98825 -5.98845,1.12091 -8.93529,1.94452 -1.60441,0.45132 -3.22933,1.1329 -4.862,1.45877 -1.50123,0.29964 -3.03819,0.0918 -4.55207,0.15682 -3.06742,-0.01 -6.13503,0.0566 -9.20231,-0.004 -2.87205,-0.0665 -5.75503,-0.14215 -8.5807,-0.71872 -3.95478,-0.78791 -7.85567,-1.82742 -11.82989,-2.52377 -1.971807,-0.48057 -3.921425,-1.01539 -5.846675,-1.66189 -1.081634,-0.36321 -2.101434,-0.90735 -3.200418,-1.21409 -0.403959,-0.11275 -0.831214,-0.11254 -1.24682,-0.16881 -2.357452,-0.45202 -4.798619,-0.90044 -6.968979,-1.93875 -0.752597,-0.43329 -1.547674,-0.79503 -2.275006,-1.26951 -1.847159,-1.205 -3.32496,-2.93986 -4.890636,-4.46299 -0.430324,-0.44086 -0.860649,-0.88172 -1.290974,-1.32259 -0.391291,-0.37224 -0.792314,-0.73452 -1.173874,-1.11673 -5.509164,-5.51861 -2.117657,-3.20669 -15.887352,4.6817 0.90083,2.06321 3.00511,3.46142 4.434578,5.15216 3.157001,2.41522 4.131266,2.93248 8.247797,2.70012 2.767272,0.0106 5.534529,0.002 8.301789,0.0171 2.926189,-0.007 5.852333,-0.001 8.778513,0.007 3.178447,-0.009 6.364107,0.0143 9.531547,-0.29239 3.49809,-0.38799 6.84129,-1.26284 10.08006,-2.6681 4.18989,-1.20725 7.98605,-3.42761 12.08187,-4.90895 1.31819,-0.58329 2.6657,-1.09927 3.97988,-1.69155 6.22093,-2.80368 11.68566,-9.06856 18.16268,-10.30621 2.88127,-1.81007 5.75933,-3.62234 7.90398,-6.32683 2.41009,-2.78887 3.17911,-5.33713 2.34324,-9.01291 -0.85895,-3.48128 -2.12392,-6.652677 -4.35711,-9.503446 -1.49247,-2.473964 -3.88446,-3.819561 -6.09882,-5.580165 -2.45443,-2.264816 -4.96108,-4.537992 -7.8795,-6.193777 -0.69885,-0.429788 -2.30471,-1.38286 -2.95222,-1.915338 -1.97556,-1.624574 -3.65024,-3.64601 -5.86944,-4.988636 -0.85998,-0.583658 -1.98672,-1.418762 -2.96805,-1.80661 -1.75633,-0.694149 -3.71714,-0.457395 -5.55054,-0.531612 -2.65673,-0.05931 -5.32928,-0.151675 -7.91274,-0.841642 -3.33418,-0.889086 -6.64082,-1.917079 -9.886772,-3.084334 -2.432892,-0.220227 -4.915111,-0.599245 -6.894445,-2.150485 -1.946209,-1.794923 -3.215731,-3.907817 -3.467522,-6.603134 0,0 -13.20779,6.937921 -13.20779,6.937921 z" />
  <path
     style="fill:#000000"
     id="path66"
     d="m 163.66683,143.41146 c -3.07244,0.0759 -6.14667,0.052 -9.21983,0.0437 -3.46767,0.008 -6.93563,0.007 -10.40328,0.0349 -7.03033,0.0864 -14.06048,0.13878 -21.09136,0.11937 -5.42962,1.6e-4 -10.85862,-0.0907 -16.28793,-0.13059 -2.05345,-0.0188 -4.10703,-0.0256 -6.16056,-0.0258 0,0 -11.976513,8.70144 -11.976513,8.70144 v 0 c 2.077187,-1.4e-4 4.154411,-0.007 6.23152,-0.0258 5.549153,-0.04 11.097993,-0.12977 16.647433,-0.13059 6.92136,-0.019 13.84198,0.0308 20.76276,0.11937 3.43566,0.0287 6.87163,0.0264 10.3073,0.0349 3.03301,-0.008 6.0672,-0.0335 9.09943,0.0437 0,0 12.09103,-8.78464 12.09103,-8.78464 z" />
  <circle
     id="path68"
     style="fill:#F5F5F5;stroke:#000000"
     cx="89.841515"
     cy="147.80379"
     r="0.48633182" />
  <circle
     id="path70"
     style="fill:#F5F5F5;stroke:#000000"
     cx="89.841515"
     cy="147.80379"
     r="0.48633182" />
  <path
     style="fill:#000000"
     id="path72"
     d="m 73.012429,148.33195 c 5.55521,0.44069 10.956165,2.40422 16.251342,4.06478 5.729267,1.55596 11.227299,3.8021 16.877559,5.59876 6.30348,2.22736 12.63957,4.36861 18.76131,7.06615 4.52931,1.92864 8.82467,4.34841 13.42709,6.10342 1.78034,0.66917 3.62765,1.01613 5.52047,1.07426 0,0 11.94046,-8.86549 11.94046,-8.86549 v 0 c -1.84671,0.48089 -3.43116,0.004 -5.24963,-0.46536 -4.72649,-1.51927 -9.07322,-3.91367 -13.64137,-5.83275 -6.15372,-2.64056 -12.47163,-4.82792 -18.6847,-7.31777 -5.74686,-1.67619 -11.336,-3.85655 -17.12373,-5.40605 -5.281565,-1.72942 -10.580559,-3.55271 -15.987772,-4.80459 0,0 -12.091029,8.78464 -12.091029,8.78464 z" />
  <path
     style="fill:#000000"
     id="path74"
     d="m 114.99836,138.72011 c 2.87259,2.61335 6.33665,4.39711 9.66419,6.3423 3.57018,2.10094 6.59414,4.88001 9.5362,7.7585 1.96802,1.72495 4.19987,3.09371 6.33514,4.59205 0,0 12.42519,-7.92216 12.42519,-7.92216 v 0 c -2.08903,-1.43725 -4.27185,-2.74185 -6.23312,-4.35859 -3.01319,-2.99469 -6.14775,-5.84343 -9.82776,-8.01183 -3.23392,-1.86329 -6.61988,-3.63606 -9.23157,-6.35755 0,0 -12.66827,7.95728 -12.66827,7.95728 z" />
  <path
     style="fill:#000000"
     id="path76"
     d="m 118.05517,153.26009 c 3.58444,2.1066 7.11657,4.29528 10.78679,6.25246 2.15179,1.25209 1.11853,0.61746 3.10428,1.8965 0,0 12.40045,-7.97115 12.40045,-7.97115 v 0 c -2.07926,-1.32728 -0.99827,-0.67315 -3.24774,-1.95449 -3.6149,-1.872 -7.13949,-3.9295 -10.46179,-6.27943 0,0 -12.58199,8.05611 -12.58199,8.05611 z" />
  <path
     style="fill:#000000"
     id="path78"
     d="m 102.89811,141.73381 c 5.43341,2.23318 10.59845,5.03292 15.74331,7.85505 4.9845,2.51807 10.04342,4.96536 14.58021,8.246 0.76473,0.74094 1.66696,1.42697 1.72314,2.55291 0,0 13.1456,-7.16489 13.1456,-7.16489 v 0 c -0.55955,-1.32806 -1.35487,-2.33952 -2.52802,-3.22563 -4.6087,-3.31646 -9.75453,-5.81338 -14.85032,-8.28687 -5.09353,-2.77766 -10.20707,-5.52079 -15.3688,-8.16502 0,0 -12.44512,8.18845 -12.44512,8.18845 z" />
  <path
     style="fill:#000000"
     id="path80"
     d="m 134.85221,145.24939 c -3.15855,-1.45135 -6.42876,-2.6328 -9.57015,-4.11908 -3.52368,-1.77384 -7.15729,-3.32747 -10.65723,-5.14673 -2.06069,-1.09384 -1.06946,-0.52551 -2.97805,-1.69737 0,0 -12.403316,7.9959 -12.403316,7.9959 v 0 c 1.967736,1.24238 0.960456,0.64766 3.023086,1.78205 3.48242,1.92285 7.27284,3.24211 10.7881,5.11379 3.06477,1.6039 6.31059,2.75394 9.3735,4.35104 0,0 12.42406,-8.2796 12.42406,-8.2796 z" />
  <circle
     id="path82"
     style="fill:#F5F5F5;stroke:#000000"
     cx="101.43397"
     cy="135.24529"
     r="0.48633182" />
  <circle
     id="path84"
     style="fill:#F5F5F5;stroke:#000000"
     cx="101.43397"
     cy="135.24529"
     r="0.48633182" />
  <path
     style="fill:#000000"
     id="path86"
     d="m 112.67027,134.08488 c 5.8832,2.87816 11.28054,6.59028 16.63869,10.32878 4.06399,2.7949 7.95327,5.82443 11.94251,8.71974 0,0 12.39966,-7.90644 12.39966,-7.90644 v 0 c -4.14087,-2.74622 -7.99594,-5.90924 -12.20439,-8.56445 -5.40546,-3.62655 -10.76429,-7.30511 -16.32381,-10.69372 0,0 -12.45266,8.11609 -12.45266,8.11609 z" />
  <path
     style="fill:#000000"
     id="path88"
     d="m 128.52289,130.02577 c 4.83394,4.10174 9.8189,8.02992 14.67734,12.11026 4.68968,3.80125 9.58185,7.35547 14.11312,11.34662 0,0 12.27966,-7.64851 12.27966,-7.64851 v 0 c -4.62916,-3.92596 -9.58332,-7.44288 -14.31541,-11.24292 -4.80466,-4.04729 -9.74501,-7.97463 -14.08644,-12.52273 0,0 -12.66827,7.95728 -12.66827,7.95728 z" />
  <path
     style="fill:#000000"
     id="path90"
     d="m 140.9427,123.56378 c 7.46814,4.26925 14.33091,9.52805 21.1042,14.80751 3.0938,2.31824 6.06914,4.75309 8.80415,7.48198 0,0 12.35046,-7.6508 12.35046,-7.6508 v 0 c -3.03526,-2.51737 -6.14029,-4.94538 -9.30844,-7.29443 -6.76701,-5.25581 -13.53141,-10.52092 -20.55016,-15.43987 0,0 -12.40021,8.09561 -12.40021,8.09561 z" />
  <path
     style="fill:#000000"
     id="path92"
     d="m 137.10892,124.53406 c 4.66929,6.6145 9.2213,13.30973 13.81954,19.97322 2.52883,3.43633 5.02571,6.88554 7.40282,10.42856 0,0 12.56128,-7.39511 12.56128,-7.39511 v 0 c -2.50707,-3.46888 -5.13097,-6.8402 -7.71832,-10.24893 -4.66727,-6.5327 -9.36569,-13.08981 -13.18043,-20.16851 0,0 -12.88489,7.41077 -12.88489,7.41077 z" />
  <path
     style="fill:#000000"
     id="path94"
     d="m 112.06363,135.86291 c 4.32106,5.27076 8.6728,10.55126 12.8434,15.95209 3.2089,3.87558 5.97748,8.06994 8.7476,12.25985 0,0 12.43971,-7.29833 12.43971,-7.29833 v 0 c -2.871,-4.1732 -5.79389,-8.30152 -9.03366,-12.20238 -2.75312,-3.51973 -5.6896,-6.94168 -8.26209,-10.59804 -4.10231,-5.83072 -0.0232,-0.42299 -3.20584,-4.94323 -0.24097,-0.34224 -0.52508,-0.65197 -0.78762,-0.97796 0,0 -12.7415,7.808 -12.7415,7.808 z" />
  <path
     style="fill:#000000"
     id="path96"
     d="m 90.339617,139.80173 c 5.57965,3.18526 11.019713,6.62876 16.559293,9.8936 3.45534,1.95248 7.2333,3.24906 11.02755,4.36626 0,0 12.14118,-8.34404 12.14118,-8.34404 v 0 c -3.80203,-0.92053 -7.5712,-2.10805 -11.06443,-3.88979 -5.58839,-3.10063 -11.0884,-6.39288 -16.21847,-10.21448 0,0 -12.445123,8.18845 -12.445123,8.18845 z" />
  <path
     style="fill:#000000"
     id="path98"
     d="m 142.16975,110.79869 c 3.62578,3.16431 6.15667,7.34663 8.72298,11.35948 3.38812,5.29789 3.14438,4.98928 6.35449,10.3949 3.28522,5.24921 6.42392,10.58327 9.27037,16.0825 0,0 12.47883,-7.17279 12.47883,-7.17279 v 0 c -3.143,-5.35295 -6.52943,-10.55259 -9.7923,-15.83269 -4.57275,-7.69882 -8.73044,-15.76425 -14.37965,-22.74492 0,0 -12.65472,7.91352 -12.65472,7.91352 z" />
  <path
     style="fill:#000000"
     id="path100"
     d="m 139.376,121.09121 c 2.4651,7.27513 5.32194,14.40715 7.70827,21.70855 0.36662,1.15979 0.73325,2.31959 1.09987,3.47939 0,0 12.56386,-6.90993 12.56386,-6.90993 v 0 c -0.38957,-1.15365 -0.77914,-2.30729 -1.16871,-3.46094 -2.54461,-7.19869 -5.60258,-14.28725 -6.98077,-21.83169 0,0 -13.22252,7.01462 -13.22252,7.01462 z" />
  <path
     style="fill:#000000"
     id="path102"
     d="m 131.04015,130.9374 c 5.66176,7.59163 9.99651,16.00494 14.20696,24.45078 0,0 11.96539,-6.81843 11.96539,-6.81843 v 0 c -4.32102,-8.46897 -8.74126,-16.87885 -13.5189,-25.1018 0,0 -12.65345,7.46945 -12.65345,7.46945 z" />
  <circle
     id="path104"
     style="fill:#F5F5F5;stroke:#000000"
     cx="159.39622"
     cy="170.02264"
     r="0.48633182" />
  <circle
     id="path106"
     style="fill:#F5F5F5;stroke:#000000"
     cx="159.39622"
     cy="170.02264"
     r="0.48633182" />
  <path
     style="fill:#000000"
     id="path108"
     d="m 127.29551,123.51333 c 2.53243,4.11916 4.8244,8.38528 7.09962,12.6508 0,0 12.27341,-7.01902 12.27341,-7.01902 v 0 c -2.20146,-4.27977 -4.40724,-8.55695 -6.41319,-12.93316 0,0 -12.95984,7.30138 -12.95984,7.30138 z" />
  <circle
     id="path110"
     style="fill:#F5F5F5;stroke:#000000"
     cx="147.80379"
     cy="146.83774"
     r="0.48633182" />
  <circle
     id="path112"
     style="fill:#F5F5F5;stroke:#000000"
     cx="147.80379"
     cy="146.83774"
     r="0.48633182" />
  <path
     style="fill:#000000"
     id="path114"
     d="m 127.79091,99.065102 c 0.90941,4.352018 1.59872,8.756198 2.12809,13.170888 0.53313,4.67597 1.12201,9.33858 1.42258,14.03778 0.0373,3.04113 0.45899,6.13925 0.0469,9.16601 -0.39222,2.79292 -0.7646,3.08831 -3.15675,4.42087 0,0 13.78515,-5.43278 13.78515,-5.43278 v 0 c 1.99276,-1.71517 2.47126,-3.02837 2.66963,-5.61676 0.13972,-3.10284 -0.1222,-6.20618 -0.31615,-9.30197 -0.41985,-4.69194 -0.98362,-9.36773 -1.55925,-14.04286 -0.56608,-4.45227 -1.23719,-8.88858 -1.81237,-13.3391 0,0 -13.20779,6.937922 -13.20779,6.937922 z" />
  <path
     style="fill:#000000"
     id="path116"
     d="m 83.513312,72.988255 c 3.316019,0.04553 6.379715,1.59695 9.511481,2.541355 3.542851,0.7565 6.886648,2.044367 10.275487,3.282531 4.45145,1.184779 8.90515,2.347652 13.32252,3.657584 4.82616,1.790591 9.3925,4.102312 13.72047,6.874115 3.33715,2.170886 6.68586,4.308412 9.72866,6.882302 0.38554,0.388124 0.77109,0.776248 1.15663,1.164373 0,0 12.58592,-7.701894 12.58592,-7.701894 v 0 c -0.41001,-0.417392 -0.82002,-0.834785 -1.23003,-1.252177 -3.0565,-2.719172 -6.55384,-4.759735 -10.00205,-6.944356 -1.55345,-1.037127 -2.85722,-1.948942 -4.47889,-2.871702 -3.02232,-1.719747 -6.33731,-2.849977 -9.46796,-4.348727 -4.34425,-1.349303 -8.70192,-2.660994 -13.13119,-3.707014 -1.7424,-0.596501 -3.4056,-1.401537 -5.14201,-1.997486 -1.68801,-0.57934 -3.48878,-0.764118 -5.16896,-1.373418 -3.24082,-0.86496 -6.293629,-2.313814 -9.569093,-3.004631 0,0 -12.110985,8.799145 -12.110985,8.799145 z" />
  <path
     style="fill:#000000"
     id="path118"
     d="m 95.936718,67.223811 c 3.075268,0.930918 6.018412,2.271794 8.846512,3.786767 1.99195,1.352135 4.0359,2.69898 5.63145,4.519063 2.00188,2.263425 4.14956,4.383751 6.176,6.629356 4.31844,4.21547 9.07727,7.951577 13.58543,11.960709 3.81311,2.871435 7.3106,6.116024 10.87257,9.283224 2.39387,2.21969 3.87207,5.10356 5.44674,7.90167 0.27178,0.47723 0.58359,0.93379 0.81535,1.43169 0.65902,1.4158 0.92092,2.63479 1.46186,4.11119 0.97757,2.66812 2.07141,5.26969 3.29982,7.82971 2.65265,4.63901 3.74391,9.72619 4.33733,14.97015 0.21273,3.64561 0.5494,7.34089 0.17706,10.98469 -0.47265,1.89227 -1.36103,3.6145 -2.18726,5.36523 0,0 13.48503,-6.15623 13.48503,-6.15623 v 0 c 0.83414,-1.87531 1.64913,-3.76721 1.91991,-5.82322 0.16765,-3.72235 -0.0527,-7.44423 -0.49556,-11.14313 -0.71309,-5.37149 -1.83005,-10.61367 -4.61586,-15.34739 -1.17916,-2.52796 -2.22704,-5.06501 -3.11666,-7.71162 -0.41121,-1.22336 -0.94649,-3.23965 -1.46794,-4.44645 -0.21735,-0.50302 -0.5293,-0.95964 -0.79396,-1.43946 -1.63259,-2.96211 -3.32895,-5.915096 -5.74686,-8.325678 -3.67322,-3.075292 -7.25193,-6.272766 -11.11275,-9.114798 -4.47378,-3.915848 -9.13809,-7.640501 -13.29513,-11.90076 -1.90467,-2.339405 -3.98985,-4.483351 -6.01414,-6.713436 -1.65967,-2.029391 -3.82946,-3.48424 -5.98863,-4.944251 -2.8464,-1.573659 -5.84639,-2.840186 -8.83916,-4.107518 0,0 -12.381152,8.400492 -12.381152,8.400492 z" />
  <path
     style="fill:#000000"
     id="path120"
     d="m 94.140727,30.647346 c 1.178062,5.324717 1.838778,10.741023 2.602619,16.135755 0.635991,4.330273 0.853227,8.698882 1.007371,13.067146 0.143591,4.955564 0.14554,9.910696 0.07556,14.867369 -0.01008,1.422161 0.146949,2.805027 -0.644612,4.025493 0,0 13.532635,-6.32855 13.532635,-6.32855 v 0 c 0.20975,-1.440536 0.22043,-2.884617 0.1538,-4.340269 -0.0601,-4.976589 -0.0116,-9.952522 -0.0574,-14.928293 -0.1117,-4.400983 -0.54021,-8.785534 -1.23849,-13.133296 -0.80687,-5.466417 -1.61334,-10.933625 -2.31483,-16.414021 0,0 -13.116628,7.048666 -13.116628,7.048666 z" />
  <path
     style="fill:#000000"
     id="path122"
     d="m 92.382825,30.325336 c 1.670408,7.392646 2.044246,15.00008 2.351258,22.549325 0.122407,2.668493 0.19155,5.31807 -0.0057,7.980954 0,0 13.103227,-6.629136 13.103227,-6.629136 v 0 c -0.0437,-2.64854 -0.16106,-5.293302 -0.34985,-7.935986 -0.53568,-7.650218 -1.00441,-15.320357 -2.09953,-22.915222 0,0 -12.999381,6.950065 -12.999381,6.950065 z" />
  <path
     style="fill:#000000"
     id="path124"
     d="m 89.967562,25.674145 c -0.168203,4.73109 0.734022,9.312887 1.647575,13.923552 0.877221,4.127787 1.140565,8.341097 1.269708,12.547844 0.101092,3.417657 0.0324,6.836752 0.06901,10.254958 0.03649,3.515045 -0.01033,7.029967 -0.05067,10.544721 -0.0192,0.282555 -0.03839,0.565111 -0.05759,0.847667 0,0 13.315275,-6.782474 13.315275,-6.782474 v 0 c -0.0186,-0.263443 -0.0371,-0.526885 -0.0556,-0.790328 -0.0337,-3.502661 -0.0689,-7.005542 -0.02,-10.508285 0.0449,-3.433743 0.003,-6.869193 -0.11962,-10.301082 -0.22964,-4.261445 -0.51177,-8.541926 -1.45954,-12.715389 -0.97882,-4.555026 -1.77931,-9.101257 -1.26612,-13.783826 0,0 -13.272428,6.762642 -13.272428,6.762642 z" />
  <path
     style="fill:#000000"
     id="path126"
     d="m 102.84257,28.6025 c 2.30856,0.409026 4.36719,1.577161 6.55385,2.354859 1.60143,0.56956 2.41964,0.74979 4.04747,1.178994 4.28495,0.975743 8.68258,1.057716 13.05404,1.138256 4.59015,0.06581 9.18131,0.03401 13.77182,0.02204 3.45494,0.0076 6.90975,0.03627 10.36471,0.03514 2.70131,-0.01051 5.40261,0.0089 8.10388,0.02015 2.53781,0.05388 5.06688,0.0028 7.59369,-0.24173 3.38179,-0.360622 6.7303,-0.956078 10.11125,-1.331361 1.31792,-0.06727 2.61376,-0.228442 3.90381,-0.49512 0,0 11.76483,-9.122134 11.76483,-9.122134 v 0 c -1.22915,0.554574 -2.43651,0.844135 -3.80726,0.814609 -3.38665,0.312763 -6.73067,0.912532 -10.10325,1.325681 -2.47815,0.26333 -4.93591,0.389234 -7.43069,0.308057 -2.72132,0.0111 -5.44265,0.03034 -8.16401,0.02237 -3.50278,0.0032 -7.00529,0.04182 -10.50796,0.06601 -4.58759,0.0087 -9.17514,0.02577 -13.76276,0.0046 -4.2795,-0.05941 -8.58593,-0.120945 -12.80699,-0.907614 -1.97996,-0.455177 -3.87926,-0.947861 -5.76026,-1.730348 -1.15792,-0.481686 -2.24999,-1.11549 -3.41744,-1.573601 -0.38127,-0.149614 -0.78909,-0.219853 -1.18364,-0.329779 0,0 -12.32509,8.440892 -12.32509,8.440892 z" />
  <path
     style="fill:#000000"
     id="path128"
     d="m 98.254944,42.060547 c 6.846756,-0.09664 13.687436,-0.349707 20.529616,-0.612761 5.96176,-0.541049 11.99687,-0.501664 17.93161,-1.310525 3.62461,-0.742446 7.27333,-1.342045 10.95496,-1.70917 3.42279,-0.513836 6.86743,-0.841618 10.29784,-1.298182 3.88826,-0.552509 7.8101,-0.764539 11.7324,-0.864251 2.53523,-0.04347 1.29277,-0.0286 3.72736,-0.04613 0,0 11.91044,-8.672077 11.91044,-8.672077 v 0 c -2.47034,0.03265 -1.21215,0.01483 -3.77457,0.05373 -3.94527,0.09674 -7.89587,0.183115 -11.81178,0.726071 -3.39509,0.454251 -6.80736,0.709498 -10.18409,1.281515 -3.73843,0.345496 -7.4498,0.926774 -11.12552,1.692529 -5.93718,1.283424 -12.15002,1.013271 -18.16653,1.726916 -6.64708,0.273573 -13.29868,0.598509 -19.95066,0.262183 0,0 -12.071076,8.770147 -12.071076,8.770147 z" />
  <path
     style="fill:#000000"
     id="path130"
     d="m 183.11312,26.513636 c -5.45186,0.141399 -10.90618,0.163138 -16.3595,0.209309 -6.93047,0.04628 -13.86032,-0.08534 -20.79069,-0.05834 -6.06802,0.02271 -12.13599,0.01254 -18.20386,-0.03304 -3.56489,-0.02865 -7.12973,-0.07617 -10.69476,-0.05815 -3.38301,0.04379 -6.73412,0.164681 -10.035,-0.664249 -2.44627,-0.501624 -4.51847,-1.862752 -6.71375,-2.948157 -1.590356,-0.554117 -0.761049,-0.314642 -2.492162,-0.703575 0,0 -12.170284,8.493415 -12.170284,8.493415 v 0 c 1.568243,0.246671 0.819,0.09199 2.250691,0.449455 2.341973,0.939017 4.397393,2.571669 6.93823,3.060778 3.360577,1.046988 6.775305,1.116959 10.275825,0.991933 3.61838,0.01855 7.23659,-0.03069 10.85484,-0.05815 6.0982,-0.04489 12.19648,-0.05613 18.29482,-0.03304 6.98389,0.0275 13.9673,-0.104781 20.9513,-0.05834 5.26125,0.04561 10.52366,0.06478 15.78331,0.209309 0,0 12.11099,-8.799146 12.11099,-8.799146 z" />
  <circle
     id="path132"
     style="fill:#F5F5F5;stroke:#000000"
     cx="86.943398"
     cy="26.083019"
     r="0.48633182" />
  <circle
     id="path134"
     style="fill:#F5F5F5;stroke:#000000"
     cx="86.943398"
     cy="26.083019"
     r="0.48633182" />
  <path
     style="fill:#000000"
     id="path136"
     d="m 89.560604,30.468094 c 7.405552,-0.280155 14.818026,-0.197362 22.227076,-0.196425 9.67756,-0.168375 19.35825,0.03207 29.03521,-0.09945 6.65981,-0.259736 13.31505,-0.566294 19.97981,-0.66724 3.49409,-0.04746 6.98837,-0.04528 10.48264,-0.02892 1.20815,-0.02131 2.41222,-0.0034 3.61842,0.06054 0,0 12.1114,-8.618487 12.1114,-8.618487 v 0 c -1.24223,-0.175377 -2.46106,-0.225649 -3.7175,-0.173016 -3.59152,0.02998 -7.18311,0.08589 -10.77298,0.201276 -6.73432,0.212575 -13.47135,0.381695 -20.19612,0.816355 -9.66466,0.415527 -19.34023,0.144361 -29.01052,0.131655 -7.22869,9.13e-4 -14.46153,0.09185 -21.68636,-0.196426 0,0 -12.071076,8.770148 -12.071076,8.770148 z" />
</svg>
