<?xml version="1.0" encoding="UTF-8" standalone="no"?>
<svg
   id="Layer_1"
   data-name="Layer 1"
   viewBox="0 0 512 512"
   version="1.1"
   sodipodi:docname="plus10seconds.svg"
   inkscape:version="1.1 (c68e22c387, 2021-05-23)"
   xmlns:inkscape="http://www.inkscape.org/namespaces/inkscape"
   xmlns:sodipodi="http://sodipodi.sourceforge.net/DTD/sodipodi-0.dtd"
   xmlns="http://www.w3.org/2000/svg"
   xmlns:svg="http://www.w3.org/2000/svg">
  <defs
     id="defs11" />
  <sodipodi:namedview
     id="namedview9"
     pagecolor="#ffffff"
     bordercolor="#666666"
     borderopacity="1.0"
     inkscape:pageshadow="2"
     inkscape:pageopacity="0.0"
     inkscape:pagecheckerboard="0"
     showgrid="false"
     inkscape:zoom="0.091495751"
     inkscape:cx="1568.3788"
     inkscape:cy="672.16236"
     inkscape:window-width="1366"
     inkscape:window-height="715"
     inkscape:window-x="-8"
     inkscape:window-y="-8"
     inkscape:window-maximized="1"
     inkscape:current-layer="Layer_1" />
  <title
     id="title2">rewind1-glyph</title>
  <path
     d="m 23.33298,452.31 c -13.09,0 -23.33000041,-10.63 -23.33000041,-24.2 V 83.89 C 0.00297959,70.32 10.25298,59.7 23.34298,59.7 a -25.26,25.26 0 0 1 12.58,3.46 l 259.89,172.1 a -23.53,23.53 0 0 1 0,41.47 l -259.9,172.11 a -25.24,25.24 0 0 1 -12.58,3.46 z"
     fill="#000000"
     id="path4"
     style="fill:#000000" />
  <path
     d="m 227.12298,452.31 c -13.09,0 -23.33,-10.63 -23.33,-24.2 V 83.89 c 0,-13.57 10.25,-24.19 23.34,-24.19 a -25.26,25.26 0 0 1 12.58,3.46 l 259.88,172.1 a -23.53,23.53 0 0 1 0,41.47 l -259.89,172.12 a -25.24,25.24 0 0 1 -12.58,3.46 z"
     fill="#000000"
     id="path6"
     style="fill:#000000" />
  <path
     style="fill:#000000"
     id="path41"
     d="m 317.12733,16.832106 c 0.0462,7.959688 1.95567,15.769279 3.20078,23.604346 1.67861,11.763216 2.15706,23.656788 2.40701,35.523482 0.18198,9.906854 0.1353,19.815607 0.1463,29.723506 -0.0206,7.63779 -0.095,15.27529 -0.17385,22.91265 -0.009,0.81533 -0.0177,1.63067 -0.0266,2.446 0,0 13.14349,-6.69573 13.14349,-6.69573 v 0 c -0.008,-0.80681 -0.0154,-1.61363 -0.023,-2.42044 -0.0654,-7.58773 -0.11649,-15.17566 -0.11892,-22.763711 0.0263,-9.91367 0.0359,-19.829408 -0.20257,-29.740843 -0.41281,-11.91232 -1.02395,-23.833195 -2.5214,-35.666069 -1.17674,-7.850475 -2.99355,-15.732873 -2.51482,-23.70823 0,0 -13.31639,6.785039 -13.31639,6.785039 z" />
  <path
     style="fill:#000000"
     id="path43"
     d="m 329.63334,11.318746 c 1.49211,6.796137 3.09625,13.581882 4.6922,20.360874 1.30822,6.545876 3.50707,12.863312 4.8577,19.395193 1.06125,5.578787 1.17022,11.265276 1.28079,16.923889 0.0552,5.856081 0.0391,11.71254 0.045,17.56885 0.0286,5.788113 -0.0476,11.57576 -0.0726,17.363658 0.0348,5.18379 0.0269,10.36796 -0.005,15.55177 0.0146,4.74178 -0.63786,9.46297 -1.42368,14.13055 -0.11831,0.8024 -0.20254,1.61056 -0.35495,2.40719 -0.1334,0.69725 -0.2512,1.40551 -0.50161,2.06978 -0.21138,0.56074 -1.39745,1.8595 -0.87139,1.57248 12.81362,-6.99115 15.2142,-5.30002 10.03955,-7.93658 0,0 -12.51899,7.91457 -12.51899,7.91457 v 0 c 0.65286,0.59659 1.13302,2.10694 1.95858,1.78977 12.43127,-4.77585 14.26607,-5.05584 15.49737,-14.30016 0.74859,-4.74529 1.40301,-9.53787 1.334,-14.3524 -0.0326,-5.18224 -0.0403,-10.36487 -0.002,-15.547071 -0.0189,-5.769101 -0.0844,-11.538051 -0.0337,-17.307265 0.0282,-5.874246 0.0748,-11.749057 -0.01,-17.622968 -0.11783,-5.736337 -0.29961,-11.510582 -1.43322,-17.152142 -1.37628,-6.523102 -3.65596,-12.800239 -5.08767,-19.312749 -1.59504,-6.797179 -3.15206,-13.622492 -4.16765,-20.531865 0,0 -13.22251,7.014626 -13.22251,7.014626 z" />
  <path
     style="fill:#000000"
     id="path45"
     d="m 327.11607,22.615026 c 2.28563,6.810444 3.52536,13.902964 4.75501,20.963585 0.99445,5.882054 1.47918,11.829244 1.67329,17.786418 0.12601,5.343113 0.12703,10.688867 0.13614,16.033288 0.16339,5.428341 -0.21471,10.818095 -0.70316,16.217893 -0.93642,5.916361 -2.08359,11.78469 -2.81151,17.7356 -0.26747,6.00868 -0.98053,11.97904 -1.50301,17.96746 -0.22302,3.30452 0.0492,1.76956 -0.71357,4.62195 0,0 13.32399,-6.43113 13.32399,-6.43113 v 0 c 0.5264,-3.0246 0.32779,-1.4398 0.55616,-4.75919 0.49628,-5.97125 1.07017,-11.93538 1.5044,-17.91092 0.70778,-5.973122 1.95804,-11.843133 2.81627,-17.79079 0.46322,-5.428568 0.79583,-10.843557 0.58003,-16.297351 0.0263,-5.38331 0.10654,-10.768215 -0.049,-16.150469 -0.31105,-5.97732 -0.94688,-11.932616 -2.0094,-17.826562 -1.25108,-7.13065 -2.60541,-14.247916 -4.43649,-21.254354 0,0 -13.11916,7.094572 -13.11916,7.094572 z" />
  <path
     style="fill:#000000"
     id="path47"
     d="m 431.10704,10.848228 c -9.35082,4.331262 -15.22463,8.586335 -22.52608,14.695975 -3.58209,3.449919 -7.04923,7.078298 -9.9857,11.10006 -2.85016,4.737528 -5.57662,9.528588 -8.62175,14.147934 -3.43549,5.129665 -3.71483,11.137986 -4.15622,17.099644 -1.26575,6.620817 -2.03031,13.288562 -2.55197,20.003528 -0.3894,6.381995 -0.42467,12.778011 -0.45105,19.169591 -0.0227,5.20211 -0.19382,10.39932 0.36861,15.57737 0.65598,3.98468 1.9353,6.50415 4.17134,9.78946 2.49053,3.75201 5.14072,7.24917 8.57075,10.18584 3.84814,2.51054 7.5666,5.20907 11.35611,7.80748 2.72077,2.12457 5.39207,4.29166 8.55376,5.71755 3.42954,1.19555 7.11195,1.29857 10.67171,1.91533 8.23256,1.8401 7.0179,-1.05438 18.47698,-7.55971 0,0 -13.79115,5.47362 -13.79115,5.47362 v 0 c 17.57901,-9.19031 13.86803,-4.82596 7.42517,-6.37325 -3.45194,-0.70094 -6.96669,-0.95986 -10.39547,-1.73604 -3.19364,-1.18487 -5.81053,-3.3164 -8.47202,-5.3999 -3.76593,-2.57228 -7.43873,-5.27391 -11.33772,-7.64416 -3.37484,-2.79749 -5.82062,-6.28392 -8.26964,-9.89273 -1.90092,-2.82274 -3.35448,-5.73319 -3.83901,-9.15696 -0.60612,-5.10114 -0.38698,-10.22261 -0.43108,-15.35117 0.0223,-6.355039 0.048,-12.715377 0.46524,-19.059474 0.49239,-6.716467 1.48357,-13.350663 2.54515,-19.997633 0.46642,-5.823536 1.10906,-11.558536 4.56203,-16.4774 3.00474,-4.63884 5.59978,-9.524898 8.72572,-14.083059 3.03042,-3.870801 6.37837,-7.517694 10.07331,-10.764621 1.84173,-1.504698 3.65618,-3.085893 5.58898,-4.47486 4.27153,-3.069639 13.12219,-6.7745385 -8.40251,4.627684 0,0 11.67651,-9.340099 11.67651,-9.340099 z" />
  <path
     style="fill:#000000"
     id="path49"
     d="m 417.69528,23.306622 c 6.96097,-2.082291 14.09069,-3.472869 21.28041,-4.464003 5.92639,-0.633501 11.26675,-5.97e-4 16.56277,2.728721 5.38683,2.792659 8.96944,7.75717 12.47496,12.546741 4.06017,5.371882 7.25989,11.209588 9.86094,17.397738 2.86627,8.030985 4.27616,16.544926 5.69815,24.936437 1.14968,6.859396 1.51976,13.804263 1.68594,20.745865 0.19357,6.014529 0.12302,12.012539 -0.3512,18.009499 -0.99794,6.32234 -2.46842,12.65219 -5.05929,18.52154 -2.69321,5.49137 -6.62471,10.03968 -11.58712,13.56341 -7.18483,4.1211 3.80227,-2.16763 8.31222,-4.95809 0.78947,-0.48847 -1.65498,0.84184 -2.48715,1.25339 -2.43639,1.20495 -4.86797,2.22442 -7.42814,3.13233 -4.36783,1.44069 -8.93881,1.77923 -13.49939,1.95579 -5.41878,0.47788 -10.48581,-0.59139 -15.43364,-2.70164 -4.36819,-2.18857 -8.04273,-5.49853 -11.56696,-8.83033 0,0 -12.54105,7.73082 -12.54105,7.73082 v 0 c 3.62574,3.45028 7.38212,6.90145 11.83078,9.26373 5.03932,2.28649 10.22877,3.64366 15.82608,3.21964 4.63751,-0.0617 9.27105,-0.28335 13.75753,-1.59552 9.62788,-3.12126 18.35863,-8.59254 26.89388,-13.90994 4.81758,-3.86654 8.6543,-8.61541 11.24808,-14.26073 2.39976,-6.05669 3.94419,-12.49724 4.84762,-18.93986 0.45122,-6.04694 0.45138,-12.094345 0.29565,-18.155974 -0.24455,-6.973897 -0.74377,-13.947227 -1.98775,-20.823679 -1.5274,-8.500466 -2.85797,-17.138632 -5.69605,-25.314309 -2.67294,-6.276707 -5.92446,-12.214201 -10.07931,-17.653404 -3.56326,-4.973401 -7.19141,-10.210655 -12.66698,-13.214683 -5.60622,-3.059283 -10.81682,-3.8384026 -17.19776,-3.40386 -7.12286,0.973105 -14.21345,2.258691 -21.14074,4.206593 0,0 -11.85248,9.013778 -11.85248,9.013778 z" />
  <path
     style="fill:#000000"
     id="path59"
     d="m 438.55377,1.7555031 c -3.17698,0.5499004 -6.32423,1.2398427 -9.52522,1.6736649 -1.87795,0.3025034 -3.77867,0.8752433 -5.42996,1.8467908 -13.75564,8.0932262 -9.87505,4.5611476 -14.76002,9.1907682 -0.24958,0.251756 -1.73494,1.73653 -1.95146,2.009618 -0.30897,0.389694 -0.51734,0.852259 -0.8241,1.243698 -0.91898,1.172664 -2.04202,2.259517 -3.04423,3.363556 -1.80229,2.625827 -4.00401,4.916107 -6.22894,7.179948 -2.10928,1.899423 -3.82858,4.143105 -5.50516,6.418873 -1.70812,2.424805 -3.09279,5.051279 -4.53582,7.636706 -1.45343,2.786279 -2.54492,5.711206 -3.31797,8.751627 -0.45319,2.679626 -0.73095,5.359922 -1.54725,7.960572 -1.36229,4.138407 -2.18345,8.420789 -3.2545,12.635077 -0.71583,3.837885 -1.86189,7.574469 -3.19395,11.237549 -0.96849,2.788277 -1.96627,5.542026 -2.48491,8.455553 -0.36958,2.434717 -0.77755,4.863516 -1.15484,7.29739 -0.35004,2.238666 -0.55422,4.500416 -0.62458,6.764776 -0.0612,2.79397 -0.30544,5.58572 -0.48059,8.3762 0.0794,3.07993 1.30795,5.90638 2.26362,8.78148 0.60355,2.82732 2.13435,5.21295 3.78772,7.52823 1.77229,2.0565 3.19013,4.36508 4.66354,6.63435 1.41102,2.38331 2.85557,4.74223 4.44025,7.01646 1.03821,1.76654 2.16389,3.44284 3.44227,5.04306 0.98582,1.29926 2.00665,2.58529 2.88115,3.96438 1.46478,1.71601 3.43212,2.87111 5.33988,4.02673 1.84749,1.17052 3.67792,2.38004 5.55651,3.50239 1.9576,1.00385 4.06126,1.70247 6.11773,2.48007 1.64048,0.73549 3.3466,1.14954 5.12943,1.30693 3.04824,0.1315 6.10014,0.0672 9.15004,0.0617 2.765,0.0138 5.53001,0.0444 8.29505,0.0325 3.79971,-0.0415 7.59919,-0.0831 11.39924,-0.089 1.27955,-0.15073 2.57636,0.15471 3.85654,0.0371 0.54837,-0.0504 1.07833,-0.22403 1.6175,-0.33604 0,0 11.51784,-9.03351 11.51784,-9.03351 v 0 c -0.45039,0.26929 -0.84313,0.67649 -1.35117,0.80786 -1.27761,0.33036 -2.68641,-0.32069 -3.95873,0.0371 -3.72105,-0.006 -7.44154,-0.0475 -11.16226,-0.0848 -2.80574,-0.007 -5.61129,0.0351 -8.4169,0.0564 -2.96496,-0.001 -5.93136,-0.0128 -8.89471,-0.11542 -1.67369,-0.0884 -3.32539,-0.27574 -4.88548,-0.94141 -1.99971,-0.78442 -4.04873,-1.44107 -6.02723,-2.27163 -1.91052,-1.03881 -3.68108,-2.33536 -5.51888,-3.49333 -1.72265,-1.01287 -3.57109,-1.95882 -4.89563,-3.492 -0.91277,-1.41519 -2.00343,-2.70021 -3.00195,-4.05379 -1.22312,-1.60605 -2.48072,-3.17576 -3.53172,-4.90657 -1.59705,-2.24205 -2.97798,-4.61619 -4.38428,-6.97996 -1.47769,-2.30456 -2.95529,-4.59791 -4.74542,-6.67923 -1.61976,-2.19665 -2.91001,-4.50129 -3.52562,-7.18917 -0.99299,-2.66395 -2.14462,-5.3351 -2.04524,-8.23953 0.1414,-2.8276 0.45296,-5.64006 0.5998,-8.466347 0.0998,-2.19525 0.23599,-4.390587 0.61967,-6.558353 0.41385,-2.414083 0.7859,-4.834242 1.16607,-7.253908 0.59485,-2.81728 1.5886,-5.50219 2.49611,-8.229527 1.22192,-3.698742 2.17205,-7.46868 2.9673,-11.282532 0.99427,-4.250773 1.97513,-8.504903 3.42579,-12.631351 0.76636,-2.648906 1.1211,-5.339188 1.60173,-8.045914 0.79391,-2.951732 1.98272,-5.763526 3.49428,-8.423053 1.41675,-2.539384 2.78206,-5.118139 4.57091,-7.424438 1.73192,-2.199888 3.54858,-4.314788 5.56764,-6.260002 2.18923,-2.311658 4.25693,-4.711119 6.20861,-7.226436 1.94846,-2.183068 3.72118,-4.532091 5.92119,-6.4735912 4.50395,-3.6623269 1.25906,-0.923259 -10.28689,5.5656992 -0.40667,0.228551 0.78333,-0.508706 1.19396,-0.730066 0.45154,-0.243414 2.12353,-1.003028 2.62986,-1.182287 0.41977,-0.148614 0.85674,-0.243281 1.28511,-0.364922 3.08363,-0.422834 6.19296,-0.871356 9.19824,-1.682102 0,0 12.09103,-8.7846469 12.09103,-8.7846469 z" />
  <path
     style="fill:#000000"
     id="path61"
     d="m 418.27796,18.286919 c 0.86884,-1.304464 2.12608,-2.255461 3.41888,-3.111342 0.40977,-0.271286 1.68474,-1.01267 1.25971,-0.765978 -3.73907,2.170174 -7.46804,4.357708 -11.20205,6.536562 2.10608,-1.29455 4.49608,-1.715787 6.85873,-2.25327 2.58908,-0.983862 5.19694,-1.896304 7.85701,-2.669773 6.10048,-1.689356 9.82073,-4.973599 16.15769,-8.598702 0,0 -13.81234,5.34115 -13.81234,5.34115 v 0 c 21.35191,-12.09261281 14.28459,-7.3244003 9.28653,-5.6901315 -2.6483,0.7173786 -5.29757,1.4593684 -7.81049,2.5792201 -0.34271,0.1410522 -0.67006,0.327578 -1.02812,0.4231564 -0.34734,0.09272 -0.71456,0.08156 -1.06978,0.136843 -1.74536,0.271637 -3.43581,0.756052 -5.02841,1.531381 -2.23507,1.289461 -13.44616,6.467871 -17.35532,10.965569 -0.49005,0.563827 -0.77685,1.105023 -1.15515,1.73884 0,0 13.62311,-6.163525 13.62311,-6.163525 z" />
  <path
     style="fill:#000000"
     id="path65"
     d="m 427.51498,9.1812155 c 2.12759,-0.071418 4.2581,-0.078999 6.38606,-0.020637 2.62808,0.4064071 5.01814,1.7205085 7.31508,3.0027335 1.32967,0.880901 2.81411,1.579493 4.01466,2.64734 0.33296,0.296155 1.27321,1.368976 1.54596,1.674199 1.33629,1.988812 3.26767,3.415655 5.05431,4.969207 2.23967,1.828888 4.47831,3.650671 6.83162,5.333531 1.58045,0.946894 2.97804,2.151917 4.4861,3.2039 1.60341,0.971358 3.02507,2.165308 4.43657,3.38862 1.49016,1.40017 2.51101,3.176771 3.77396,4.766159 1.10448,1.591024 2.33402,3.095237 3.09494,4.888589 0.7233,1.589716 1.7458,3.009654 2.5688,4.55074 1.00705,1.865335 1.83161,3.820588 2.9138,5.646302 1.11068,2.011649 1.68433,4.258761 2.45687,6.412933 0.54931,2.304896 1.8514,4.293741 2.70323,6.477674 0.61559,1.914134 1.35865,3.785392 2.03811,5.678169 0.8021,2.350607 1.93734,4.542262 3.0281,6.76329 0.82606,2.008604 1.43405,4.083396 2.17564,6.122107 0.84844,2.370523 0.89998,4.893636 1.17504,7.366711 0.38617,2.683999 0.51945,5.390329 0.59275,8.097737 0.0457,2.36122 0.005,4.72284 0.0277,7.08411 0.005,2.39759 -0.0106,4.79542 0.009,7.19291 0.13675,3.0935 -0.51317,6.1197 -1.32945,9.08087 -0.72327,2.81273 -2.16297,5.29094 -3.90957,7.57959 -1.8061,1.96541 -3.15119,4.26934 -4.66147,6.45253 -1.33181,1.57107 -2.5714,3.18039 -4.01159,4.65837 -1.49251,0.87049 -2.30068,2.41237 -3.63933,3.44109 -0.23303,0.1423 -0.46924,0.27951 -0.69907,0.4269 -0.51909,0.33288 -2.09358,1.30352 -1.55994,0.99449 20.97926,-12.14937 14.64476,-8.09699 9.99909,-5.97923 -1.58156,0.89113 -3.17489,1.76021 -4.8198,2.52937 -1.38671,0.54695 -2.84826,0.89565 -4.29327,1.25816 -1.5639,0.39307 -3.11555,0.8238 -4.67428,1.23628 -1.96996,0.37844 -3.88151,0.96888 -5.85523,1.33207 -1.5431,0.24923 -3.1007,0.41652 -4.66382,0.44737 0,0 -12.10375,8.67555 -12.10375,8.67555 v 0 c 1.65791,0.22171 3.32634,-0.0802 4.97924,-0.25963 1.96393,-0.28868 3.86263,-0.74013 5.78704,-1.17432 1.61006,-0.30113 3.12396,-0.90564 4.73571,-1.19116 1.45179,-0.44221 2.93682,-0.75946 4.40709,-1.12809 1.74101,-0.61043 3.36189,-1.51659 4.96251,-2.4261 1.11819,-0.72331 0.51557,-0.42906 1.81423,-0.86956 4.60637,-2.58953 11.15575,-5.61875 15.75829,-9.5067 1.13857,-1.23073 2.32164,-2.38882 3.54988,-3.52923 1.38027,-1.53974 2.62649,-3.1943 3.8616,-4.85108 1.43723,-2.20021 2.93969,-4.34206 4.60519,-6.37839 1.66977,-2.46553 2.95441,-5.12483 3.62622,-8.04417 0.75821,-3.10222 1.34992,-6.25413 1.26433,-9.46409 0.0215,-2.40266 0.0109,-4.80571 0.0189,-7.20848 0.0205,-2.365416 -0.023,-4.731522 -0.11007,-7.095375 -0.10522,-2.745371 -0.23202,-5.49559 -0.62821,-8.217323 -0.3154,-2.583865 -0.3462,-5.220972 -1.28651,-7.688482 -0.7401,-2.099105 -1.36657,-4.2396 -2.25926,-6.281823 -1.09886,-2.137392 -2.19626,-4.26795 -2.99318,-6.543111 -0.61213,-1.956568 -1.21202,-3.906249 -2.00312,-5.799765 -0.8926,-2.133708 -2.13595,-4.111515 -2.74135,-6.360699 -0.73174,-2.275678 -1.33469,-4.618099 -2.52048,-6.712328 -1.03463,-1.82617 -1.91301,-3.726649 -2.86594,-5.594015 -0.77569,-1.535049 -1.72464,-2.967165 -2.48087,-4.507263 -0.88417,-1.860013 -2.16401,-3.456757 -3.33334,-5.142757 -1.26152,-1.713906 -2.44656,-3.481016 -3.89439,-5.046804 -1.43837,-1.243576 -2.82411,-2.549328 -4.48573,-3.500117 -1.47763,-1.134848 -2.99037,-2.272818 -4.61204,-3.185221 -2.38309,-1.536878 -4.57669,-3.328366 -6.72581,-5.174374 -1.70702,-1.550968 -3.62146,-2.905339 -4.94974,-4.825777 -0.21045,-0.2405556 -1.47427,-1.6944787 -1.68354,-1.8945452 -1.21868,-1.1651257 -2.76814,-1.9015361 -4.15599,-2.8308128 -2.44781,-1.3987876 -4.98858,-2.6406199 -7.65665,-3.56323206 -2.08586,-0.23118345 -4.1844,-0.0707792 -6.27933,-0.1840559 0,0 -12.11099,8.79914536 -12.11099,8.79914536 z" />
  <path
     style="fill:#000000"
     id="path67"
     d="m 487.90029,127.60411 c 0.41973,2.94042 -0.30871,5.80034 -0.96937,8.64151 -0.44512,2.01532 -1.56032,3.63447 -2.63192,5.33759 -1.05555,1.26344 -2.33542,2.29656 -3.72519,3.16729 -1.52253,1.31966 -3.13242,2.55263 -4.88285,3.55455 25.16078,-13.99481 5.37442,-4.02368 -2.3259,1.54651 -0.64962,0.46992 -1.35836,0.76729 -2.00298,1.24348 -0.1914,0.10626 -0.39688,0.19037 -0.57419,0.31876 -0.16858,0.12207 -0.29208,0.29823 -0.45564,0.42694 -0.62068,0.48848 -1.32835,0.80415 -1.91097,1.33553 -0.14872,0.14909 -0.29831,0.29732 -0.44618,0.44725 -0.44363,0.44983 -0.48171,0.55486 -1.02666,0.88438 -0.19138,0.11572 -0.79323,0.41281 -0.60021,0.29985 11.67731,-6.83339 16.3845,-9.21269 11.5993,-6.78031 -1.18229,0.44773 -2.36018,0.9026 -3.54552,1.34568 -35.25574,20.39266 -1.70292,0.99266 -1.27697,0.74486 0.22634,-0.13169 -0.45767,0.25613 -0.69693,0.36255 -0.72415,0.32209 -1.48425,0.48296 -2.25631,0.6365 -1.4856,0.23958 -2.99483,0.25651 -4.49598,0.27115 -1.68375,-0.001 -3.3674,-0.0121 -5.05109,0.006 -2.45972,0.0358 -4.91981,0.0137 -7.37971,0.0159 -2.72357,-0.0142 -5.44692,0.0203 -8.17039,0.0324 -2.86069,0.0418 -5.72154,0.005 -8.58228,0.001 0,0 -11.83881,8.6014 -11.83881,8.6014 v 0 c 2.85957,-0.004 5.71925,-0.0406 8.57876,0.001 2.69361,0.012 5.38709,0.0467 8.08079,0.0325 2.44067,0.003 4.88163,-0.0191 7.32204,0.0231 1.66983,0.025 3.33985,0.0265 5.00985,0.0309 1.54033,0.008 3.08337,0.0361 4.6202,-0.093 0.88041,-0.091 2.48244,-0.1633 3.25013,-0.59053 3.02975,-1.68609 30.90607,-17.78834 1.30106,-0.7029 0.98352,-0.8203 2.2587,-0.93674 3.36894,-1.54474 6.19189,-1.40251 11.32311,-5.58298 16.12151,-9.54552 1.01666,-0.60645 1.90897,-1.39641 2.93724,-1.98669 0.67363,-0.39328 1.28549,-0.8414 1.92673,-1.28372 0.24173,-0.16675 0.99081,-0.63016 0.73573,-0.48464 -5.74532,3.2776 -28.01077,16.17958 1.61388,-0.96916 1.66148,-1.15644 3.24023,-2.41716 4.85971,-3.63003 1.34305,-1.07026 2.65613,-2.19997 3.51472,-3.71579 1.09734,-1.76892 1.8557,-3.66444 2.25635,-5.71652 0.63486,-2.98795 1.03463,-5.99157 1.0655,-9.05106 0,0 -13.31639,6.78504 -13.31639,6.78504 z" />
  <path
     style="fill:#000000"
     id="path69"
     d="m 443.48491,17.310392 c 2.77128,2.654157 5.19246,5.598836 7.4656,8.682199 2.89605,3.995885 5.67978,8.070026 8.37417,12.203995 1.50498,2.292235 2.98486,4.612421 4.80012,6.675051 1.60213,1.639854 2.52712,3.718336 3.41376,5.793492 0.52038,1.367666 1.5596,2.420642 2.348,3.625001 0.39131,0.597782 0.72845,1.229373 1.10043,1.839377 1.40591,2.361814 2.55971,4.861539 3.43505,7.466433 0.9162,3.071428 1.48356,6.202399 1.77873,9.388963 0.27673,3.769956 0.66955,7.530695 1.03877,11.292788 0.31049,3.256811 0.42018,6.524994 0.47532,9.794226 0.0924,2.83305 0.15206,5.645136 -0.23652,8.457173 -0.25652,3.02652 -1.02587,5.94762 -1.84306,8.85951 -0.79478,2.10251 -1.5663,4.20978 -1.86548,6.44507 -0.031,2.14342 -0.99406,4.08037 -1.80166,6.01835 -1.05999,2.52544 -2.4182,4.90977 -3.82839,7.25311 -1.46396,2.47224 -3.15858,4.79297 -4.78443,7.15836 -1.38908,2.2651 -3.27249,4.12099 -4.98112,6.13129 -1.67161,1.67945 -3.40063,3.30562 -5.47162,4.47891 -1.67834,1.18117 -3.30176,2.4334 -5.0945,3.44651 20.84815,-13.7551 14.7384,-7.94607 10.14077,-6.00415 -0.98232,0.41491 -2.00249,0.74645 -3.00273,1.11482 0,0 -11.66576,9.10636 -11.66576,9.10636 v 0 c 6.78046,-2.37515 11.91678,-4.50612 18.3578,-9.56898 1.70215,-1.1327 3.33306,-2.36244 5.05404,-3.46596 1.92493,-1.40363 3.65963,-3.05568 5.24224,-4.83497 1.7681,-1.98541 3.45498,-4.02014 4.88085,-6.27227 1.62542,-2.37721 3.3053,-4.71978 4.71506,-7.23631 1.41301,-2.43935 2.80403,-4.89259 3.86777,-7.51008 0.80764,-2.04771 1.55321,-4.12003 1.7049,-6.33644 0.42394,-2.12918 1.14309,-4.16938 1.79284,-6.23748 0.80139,-2.96747 1.3833,-5.972225 1.71311,-9.030796 0.32865,-2.890996 0.27872,-5.798533 0.2197,-8.704634 -0.14497,-3.256421 -0.43296,-6.50517 -0.76386,-9.747483 -0.33582,-3.792534 -0.60765,-7.589778 -0.88683,-11.386807 -0.36606,-3.271405 -0.981,-6.489499 -1.92687,-9.647127 -0.81408,-2.74737 -2.13479,-5.302958 -3.48233,-7.823619 -0.0388,-0.06817 -1.07705,-1.893248 -1.13068,-1.977309 -0.71862,-1.126355 -1.71647,-2.068221 -2.23931,-3.317274 -0.95935,-2.211923 -1.91268,-4.473498 -3.65249,-6.204625 -1.80495,-1.989892 -3.28019,-4.253776 -4.91173,-6.384089 -2.86256,-4.04007 -5.73064,-8.076439 -8.51591,-12.170398 -2.22038,-3.11975 -4.59013,-6.11221 -7.03763,-9.0529672 0,0 -12.79612,7.6827802 -12.79612,7.6827802 z" />
  <path
     style="fill:#000000"
     id="path71"
     d="m 477.50692,118.53676 c -0.0977,0.20478 -0.17664,0.41964 -0.29315,0.61434 -0.90187,1.50707 -0.16685,-0.035 -1.08376,1.65745 -0.53937,0.99561 -0.90986,2.07028 -1.42137,3.08138 -0.94504,1.98317 -1.52367,4.13549 -2.02178,6.27057 -0.15631,2.06681 -0.87766,3.93699 -1.64517,5.84103 -0.77134,1.59903 -1.23425,3.34484 -1.9484,4.96304 -0.32437,0.73499 -0.86837,1.50822 -1.30434,2.17591 -1.24962,1.84334 -2.48365,3.70446 -3.8687,5.45542 -1.5719,1.80836 -3.47257,3.34498 -5.41672,4.74232 -4.26338,2.89851 -11.5717,6.99332 9.02607,-5.0977 0.36861,-0.21638 -0.74975,0.411 -1.131,0.60425 -0.95184,0.48244 -1.08222,0.51551 -2.03769,0.90963 -0.29882,0.10261 -0.59765,0.20523 -0.89648,0.30784 0,0 -11.73523,9.05436 -11.73523,9.05436 v 0 c 0.32748,-0.0832 0.65496,-0.16631 0.98244,-0.24947 1.14581,-0.38087 2.31035,-0.77939 3.36486,-1.38053 5.4408,-3.10163 11.07513,-5.87665 16.1119,-9.59862 1.93028,-1.5394 3.84665,-3.13726 5.32063,-5.138 1.31928,-1.80781 2.60466,-3.64893 3.7391,-5.57898 1.28539,-2.35715 2.10166,-4.91999 3.18533,-7.37321 0.75428,-1.97042 1.33149,-3.9525 1.61378,-6.04798 0.51941,-2.04691 1.12847,-4.08246 2.11176,-5.96125 0.0395,-0.084 0.87708,-1.86815 0.95415,-2.01552 0.65425,-1.25118 1.57073,-2.38976 1.84072,-3.81043 0,0 -13.44695,6.57415 -13.44695,6.57415 z" />
  <circle
     id="path73"
     style="fill:#F5F5F5;stroke:#000000"
     cx="454.93915"
     cy="155.06184"
     r="0.34388852" />
  <circle
     id="path75"
     style="fill:#F5F5F5;stroke:#000000"
     cx="454.93915"
     cy="155.06184"
     r="0.34388852" />
  <path
     style="fill:#000000"
     id="path77"
     d="m 462.97269,151.94917 c 1.79243,-2.23025 3.49326,-4.51815 5.36663,-6.68838 2.14518,-1.73303 4.01962,-3.73307 5.96511,-5.67732 2.28467,-2.36185 4.99935,-4.22863 7.50848,-6.33457 0,0 -13.59163,5.48609 -13.59163,5.48609 v 0 c -2.54148,2.1027 -5.21266,4.06296 -7.49095,6.46411 -1.95231,1.92034 -3.93163,3.8126 -5.84939,5.76471 -1.86694,2.23243 -3.50937,4.72392 -5.79204,6.55703 0,0 13.88379,-5.57167 13.88379,-5.57167 z" />
  <circle
     id="path79"
     style="fill:#F5F5F5;stroke:#000000"
     cx="478.16428"
     cy="133.20291"
     r="0.34388852" />
  <circle
     id="path81"
     style="fill:#F5F5F5;stroke:#000000"
     cx="478.16428"
     cy="133.20291"
     r="0.34388852" />
  <path
     style="fill:#000000"
     id="path83"
     d="m 460.7082,22.182842 c -1.82649,-1.650834 -3.72808,-3.171507 -5.85961,-4.405994 -2.08035,-1.353943 -4.33501,-1.833814 -6.76829,-2.052259 -3.93449,-0.255097 -7.84217,-0.674687 -11.73574,-1.292518 -2.14209,-0.304124 -4.29063,-0.806433 -6.46756,-0.629678 -0.85375,0.06932 -2.43003,0.364631 -3.28634,0.514649 -2.78485,0.42863 -5.49466,1.202463 -8.21788,1.905556 -5.63105,1.721601 -10.65423,5.769929 -15.44253,8.62114 -0.21114,0.125726 -2.33913,1.696028 -2.36518,1.713264 -0.54389,0.359923 -1.11575,0.675689 -1.67362,1.013533 -0.71821,0.419457 -1.43641,0.838913 -2.15462,1.258369 0,0 13.38153,-5.148755 13.38153,-5.148755 v 0 c 0.76695,-0.453634 1.5339,-0.907268 2.30086,-1.360902 2.59419,-1.688657 0.84611,-0.526433 3.17309,-2.127634 0.37129,-0.255485 1.51095,-0.981069 1.11782,-0.760677 -21.01077,11.778686 -14.55406,8.130795 -10.02489,5.785039 2.70107,-0.829443 5.45547,-1.55148 8.23111,-2.079548 1.40256,-0.28406 3.25004,-0.805878 4.66035,-0.865696 1.63008,-0.06914 3.27741,0.441249 4.89662,0.519269 3.89002,0.549845 7.76101,1.162111 11.68293,1.444977 2.21677,0.175273 4.36281,0.394657 6.28346,1.628521 2.06416,1.100966 4.02252,2.304821 5.58648,4.090889 0,0 12.68201,-7.771545 12.68201,-7.771545 z" />
  <path
     style="fill:#000000"
     id="path85"
     d="m 409.0715,15.329042 c 4.67159,-0.203735 9.34954,-0.202961 14.02466,-0.245609 5.03345,-0.03446 10.08973,0.306451 15.03366,1.273996 2.77645,0.500355 4.93698,2.065067 7.0708,3.793792 0.32823,0.285747 0.65645,0.571494 0.98468,0.857241 0,0 12.5039,-7.749436 12.5039,-7.749436 v 0 c -0.33925,-0.317563 -0.67849,-0.635125 -1.01774,-0.952687 -2.35398,-1.809352 -4.56484,-3.7468823 -7.60464,-4.2723282 -5.09829,-1.0074756 -10.35066,-1.2476601 -15.53577,-1.2585052 -4.44967,-0.041637 -8.90294,-0.03403 -13.34856,-0.245609 0,0 -12.11099,8.7991454 -12.11099,8.7991454 z" />
  <path
     style="fill:#000000"
     id="path87"
     d="m 437.18758,16.783523 c -3.03734,0.127108 -6.07722,0.113979 -9.11625,0.08316 -1.98869,0.115033 -3.93986,-0.354856 -5.91814,-0.389365 -5.6274,0.203226 -12.60733,6.692331 -15.21257,8.301381 -0.34023,0.210133 -0.6467,0.727774 -0.86162,1.040263 -0.63502,1.274315 -1.32721,2.532079 -2.14399,3.700831 -0.50183,0.649881 -0.98197,1.318831 -1.65083,1.811767 -0.2067,0.152335 -0.46103,0.236259 -0.65695,0.402233 -0.41709,0.353343 -0.74715,0.799881 -1.15231,1.16684 -0.45239,0.743036 -1.21088,1.129881 -1.84554,1.670531 -0.56144,0.478276 -1.05242,1.033563 -1.5791,1.549865 0,0 13.65833,-5.612254 13.65833,-5.612254 v 0 c 1.18008,-1.075327 2.4196,-2.079345 3.51672,-3.243323 1.2179,-1.155828 2.51378,-2.216513 3.33557,-3.725401 0.72601,-1.195266 1.36728,-2.466676 2.25839,-3.546689 3.94406,-3.717915 6.43654,-3.738075 -11.27731,6.204335 -0.18956,0.106396 0.27434,-0.34608 0.45462,-0.467551 0.34117,-0.229889 0.81379,-0.207054 1.14653,-0.456802 0.28182,-0.0273 1.26453,-0.131281 1.53597,-0.120827 1.50927,0.05812 3.00504,0.540929 4.53011,0.332503 2.96265,-0.02923 5.92657,-0.05027 8.88734,0.08315 0,0 12.09103,-8.784647 12.09103,-8.784647 z" />
  <path
     style="fill:#000000"
     id="path89"
     d="m 400.51758,60.638612 c 0.54618,-2.014175 1.60501,-3.806663 2.52336,-5.666005 0.82372,-1.65651 1.00291,-3.485599 1.12302,-5.302982 0.0142,-1.853604 0.83097,-3.603042 1.51558,-5.298078 1.10649,-2.284166 2.3755,-4.48044 3.52671,-6.742803 1.28322,-2.021176 1.80088,-4.372462 2.8118,-6.519361 1.15552,-2.024496 2.75021,-3.786672 4.31773,-5.50561 0.76955,-0.995982 1.48501,-2.029107 2.57413,-2.700872 0.23392,-0.144285 0.96057,-0.534542 0.72338,-0.395679 -3.98477,2.332947 -7.97762,4.652065 -11.96643,6.978098 4.49024,-2.604377 9.00063,-5.174326 13.47073,-7.813132 0.61124,-0.476357 0.82208,-0.676016 1.49174,-1.060203 0.24579,-0.141011 1.00392,-0.525321 0.75925,-0.382385 -11.82024,6.905269 -16.23668,8.718962 -11.21698,6.615038 1.56259,-0.643029 3.01743,-1.475298 4.62706,-1.99819 1.58756,-0.388907 3.00551,-1.194678 4.56696,-1.663497 2.12497,-0.630145 4.32914,-0.851301 6.53131,-0.990916 2.21899,-0.102429 4.44073,-0.09046 6.6614,-0.09423 1.94454,0.01231 3.88963,-0.0097 5.8335,0.04968 1.91197,0.09471 3.67164,0.798514 5.34096,1.68713 1.98765,1.260644 3.77626,2.817675 5.50956,4.403296 1.55456,1.440092 2.94479,3.037024 4.32722,4.638839 1.25011,1.729514 2.39668,3.516529 3.72578,5.1924 0,0 12.69524,-7.58595 12.69524,-7.58595 v 0 c -1.35038,-1.67992 -2.46231,-3.515464 -3.78083,-5.217014 -1.40577,-1.661177 -2.75308,-3.372451 -4.39739,-4.812982 -1.81466,-1.642684 -3.6934,-3.229891 -5.6984,-4.636671 -1.71081,-1.119111 -3.58389,-2.046475 -5.64065,-2.2832 -1.96579,-0.283153 -3.96532,-0.06111 -5.94679,-0.130368 -2.24423,-0.0052 -4.48906,-0.0021 -6.73258,0.05973 -2.23497,0.06866 -4.48002,0.182484 -6.66516,0.696871 -0.80964,0.187582 -1.63438,0.303115 -2.40414,0.626548 -1.45319,0.610592 0.0739,0.02607 -1.37914,0.715018 -0.2526,0.11977 -0.51991,0.205698 -0.77986,0.308547 -0.88846,0.198413 -1.88586,0.364569 -2.71692,0.753632 -0.67993,0.318308 -1.2484,0.905869 -2.02497,1.03938 -0.24575,0.117968 -0.49901,0.221439 -0.73726,0.353903 -4.53183,2.519602 -9.05746,5.050439 -13.57162,7.601544 -0.35749,0.202029 -1.11395,0.763748 -1.44561,0.985732 -0.25518,0.170796 -1.04312,0.647908 -0.77637,0.495818 3.99315,-2.27672 7.97101,-4.580161 11.95651,-6.870242 -10.81156,6.245919 -11.44999,4.894242 -16.52656,11.172272 -1.56228,1.827596 -3.15692,3.689448 -4.12238,5.9157 -0.89616,2.163499 -1.58815,4.413866 -2.82063,6.425576 -1.20053,2.296572 -2.49567,4.548647 -3.54502,6.920102 -0.69502,1.840754 -1.33452,3.722998 -1.37729,5.712662 -0.15944,1.666045 -0.49312,3.278933 -1.30438,4.765317 -0.93685,1.886305 -1.75704,3.821259 -2.65868,5.721057 0,0 13.62311,-6.163525 13.62311,-6.163525 z" />
  <path
     style="fill:#000000"
     id="path91"
     d="m 397.32386,146.44677 c 3.23305,0.76455 6.25156,2.17955 9.29813,3.46835 3.15614,1.22033 6.24648,2.64364 9.53982,3.45756 3.00662,0.57422 6.08014,0.52933 9.12766,0.54989 2.78164,0.0217 5.56328,0.0136 8.34492,0.0167 2.2844,0.003 4.5688,-0.005 6.85317,0.009 0.31742,0.002 0.63483,0.005 0.95224,0.007 0,0 11.99555,-8.71563 11.99555,-8.71563 v 0 c -0.32408,0.002 -0.64816,0.005 -0.97224,0.007 -2.30236,0.0153 -4.60475,0.01 -6.90711,0.0257 -2.81124,0.0201 -5.62243,0.0444 -8.4337,0.0616 -2.95841,-0.007 -5.93036,0.009 -8.87063,-0.36139 -3.3221,-0.59574 -6.45265,-1.85085 -9.57297,-3.10805 -1.83239,-0.75577 -3.65996,-1.54271 -5.45817,-2.37696 -0.51066,-0.23691 -0.9901,-0.54057 -1.51036,-0.75557 -0.65283,-0.26977 -1.38655,-0.31671 -2.00516,-0.68556 0,0 -12.38115,8.4005 -12.38115,8.4005 z" />
  <path
     style="fill:#000000"
     id="path93"
     d="m 416.9095,149.89031 c 4.17507,0.29619 8.36211,0.33601 12.54511,0.42087 3.79344,0.13607 7.58878,0.13614 11.38383,0.16872 3.43689,0.0592 6.8734,-0.0359 10.31047,-0.0297 2.93979,-0.0305 5.88135,0.11771 8.82021,0.033 2.06191,-0.0694 4.01863,-0.37579 5.89377,-1.24429 13.6069,-8.07456 9.32407,-4.69654 14.01408,-8.44919 0,0 -13.80957,5.52347 -13.80957,5.52347 v 0 c -4.29459,3.27349 -0.86501,0.61609 11.33634,-6.39544 -1.70836,1.1436 -3.46803,1.75526 -5.54712,1.7989 -2.96855,0.34236 -5.98056,0.0792 -8.96221,0.19936 -3.41153,0.008 -6.82252,-0.0823 -10.23389,-0.0236 -3.86044,0.0248 -7.72128,0.004 -11.58176,0.006 -4.02082,-0.0666 -8.05743,-0.13228 -12.05257,-0.6282 0,0 -12.11669,8.62009 -12.11669,8.62009 z" />
  <path
     style="fill:#000000"
     id="path95"
     d="m 480.50927,114.31793 c -2.14192,2.43358 -4.32171,4.83576 -6.41944,7.30773 -2.91544,2.98671 -5.07961,6.55514 -7.62162,9.83707 -2.2901,2.69624 -4.23108,5.64066 -6.26035,8.52868 -1.59542,1.98963 -3.26995,4.2048 -5.2455,5.83007 -0.28951,0.26555 -0.5798,0.53024 -0.86852,0.79664 -1.13474,1.04701 -0.46486,0.55731 -1.80703,1.32 -0.33124,0.18824 -1.32141,0.75919 -0.99191,0.56792 23.06173,-13.38702 7.29565,-4.22038 -1.99047,1.18473 -0.29593,0.17215 -0.59186,0.34429 -0.88779,0.51644 3.92563,-2.27198 7.85492,-4.53765 11.77689,-6.81594 0.27799,-0.16148 -0.55593,0.32416 -0.84472,0.46542 -0.33999,0.16631 -0.68661,0.32011 -1.03972,0.45637 -0.81883,0.31597 -1.66058,0.56899 -2.49043,0.85474 -4.24589,1.34026 -8.77113,1.37304 -13.18349,1.49745 -7.08954,0.3241 -14.18703,-0.40696 -21.16018,-1.64671 -3.9661,-0.69201 -7.8795,-1.56324 -11.75718,-2.63926 -2.13327,-0.47582 -3.79045,-1.67074 -5.19355,-3.29167 -1.27229,-1.59851 -2.3412,-3.34355 -3.60146,-4.94921 -1.82142,-2.26477 -3.54795,-4.60285 -5.28591,-6.93208 -1.60086,-2.08185 -2.95124,-4.32311 -3.52505,-6.8993 -0.37981,-1.82652 -0.1515,-0.86404 -0.70583,-2.88239 0,0 -12.86955,6.9478 -12.86955,6.9478 v 0 c 0.42581,2.02848 0.23536,1.04827 0.57754,2.93943 0.67511,2.75728 2.2781,5.07656 3.95118,7.33902 1.70974,2.36004 3.4144,4.72064 5.14381,7.06566 1.26061,1.62512 2.36395,3.3736 3.62997,4.99691 1.64343,1.99763 3.23919,3.32418 5.82513,3.9637 4.03032,0.97782 8.03877,2.02247 12.16962,2.51418 1.79701,0.26974 4.74324,0.72871 6.4911,0.91591 2.63488,0.28219 5.2812,0.44477 7.92096,0.67682 1.27321,0.11192 2.54302,0.27264 3.81951,0.33699 0.99542,0.0502 1.99336,0.004 2.99004,0.006 4.3795,-0.11795 8.83062,-0.0585 13.1396,-0.92094 0.81657,-0.2712 1.61391,-0.60186 2.44041,-0.84111 0.37348,-0.10811 0.76977,-0.12859 1.13976,-0.24811 0.31541,-0.10189 0.61688,-0.24823 0.90484,-0.41238 11.80635,-6.72995 9.25441,-5.15578 14.40526,-8.35884 -3.89397,2.23973 -15.54807,9.00661 -11.68191,6.7192 6.11129,-3.61573 12.26768,-6.00065 17.20518,-10.83613 1.81889,-1.88718 3.53079,-3.88905 4.99641,-6.06592 1.98451,-2.86774 4.00764,-5.70464 6.17724,-8.43692 2.443,-3.35723 4.83786,-6.7435 7.70448,-9.76478 2.22802,-2.536 4.57499,-4.9827 6.64218,-7.65025 0,0 -13.6195,6.00676 -13.6195,6.00676 z" />
  <path
     style="fill:#000000"
     id="path97"
     d="m 388.34122,96.698006 c -0.31158,-2.494498 -0.17712,-1.176625 -0.38289,-3.955658 0,0 -12.83868,6.625505 -12.83868,6.625505 v 0 c 0.0871,2.889267 0.066,1.499787 0.0724,4.168297 0,0 13.14919,-6.838144 13.14919,-6.838144 z" />
  <path
     style="fill:#000000"
     id="path99"
     d="m 392.61607,99.941582 c -0.1688,-3.013129 -0.19137,-6.033807 -0.1911,-9.05125 -0.10002,-3.362116 0.85677,-6.54477 1.71645,-9.749262 0.80629,-3.111006 1.84357,-6.168467 2.78568,-9.24579 0.60636,-2.813821 1.62674,-5.49659 2.49576,-8.232225 0.16507,-0.44626 0.33015,-0.892519 0.49522,-1.338779 0,0 -13.3041,6.218457 -13.3041,6.218457 v 0 c -0.15335,0.453862 -0.30671,0.907724 -0.46006,1.361586 -0.91699,2.729518 -1.83551,5.457695 -2.48232,8.268067 -0.9,3.103595 -1.95878,6.161019 -2.7658,9.287963 -0.85455,3.294086 -1.54492,6.601891 -1.437,10.031482 2.7e-4,3.082419 -0.0261,6.167609 -0.1911,9.245989 0,0 13.33837,-6.796238 13.33837,-6.796238 z" />
  <circle
     id="path101"
     style="fill:#F5F5F5;stroke:#000000"
     cx="394.82709"
     cy="61.478264"
     r="0.34388852" />
  <circle
     id="path103"
     style="fill:#F5F5F5;stroke:#000000"
     cx="394.82709"
     cy="61.478264"
     r="0.34388852" />
  <path
     style="fill:#000000"
     id="path105"
     d="m 431.05715,12.660645 c -7.14826,2.045066 -13.89346,6.902266 -20.00381,10.42552 -1.87148,0.996719 -3.39317,2.49388 -5.07343,3.754579 -1.3771,1.029628 -2.49498,2.401211 -4.03622,3.173929 -1.83786,0.796997 -3.12478,2.383503 -4.77873,3.439316 -1.72301,1.377405 -3.20145,3.013178 -4.54901,4.751189 -1.63891,2.087326 -2.78758,4.468044 -4.06361,6.771806 -0.62322,1.432096 -0.31187,0.708955 -0.93378,2.169543 0,0 13.41634,-6.14541 13.41634,-6.14541 v 0 c 0.65464,-1.421074 0.32013,-0.72833 1.00107,-2.079415 1.17718,-2.274926 2.43981,-4.514988 4.11057,-6.473768 1.4484,-1.650274 3.02653,-3.188522 4.81958,-4.465898 1.50396,-1.258031 3.08954,-2.384568 4.79353,-3.35871 1.34824,-1.10346 2.66259,-2.24708 4.03332,-3.322973 1.559,-1.320808 3.22368,-2.519602 5.01802,-3.502541 -22.06786,12.695713 -11.23711,6.011923 -5.71623,3.859554 0,0 11.96239,-8.996721 11.96239,-8.996721 z" />
  <circle
     id="path107"
     style="fill:#F5F5F5;stroke:#000000"
     cx="392.7778"
     cy="47.816429"
     r="0.34388852" />
  <circle
     id="path109"
     style="fill:#F5F5F5;stroke:#000000"
     cx="392.7778"
     cy="47.816429"
     r="0.34388852" />
  <path
     style="fill:#000000"
     id="path111"
     d="m 395.79252,66.634387 c 0.92791,-2.265698 1.8489,-4.538225 2.92048,-6.740521 0.77261,-2.19446 1.54796,-4.404176 2.09182,-6.664096 0.80098,-2.881587 1.83188,-5.706882 3.39443,-8.264652 1.1041,-1.741161 2.25673,-3.428161 3.29368,-5.21268 1.6385,-2.078962 3.37416,-4.040947 4.79466,-6.283754 1.30727,-2.486124 2.95998,-4.817613 5.11888,-6.631731 1.66183,-1.654525 3.41795,-3.234383 5.22449,-4.734372 5.22077,-2.699341 -0.79622,0.388859 -10.50772,6.201496 -0.33548,0.200793 0.70837,-0.333339 1.07493,-0.469337 1.07346,-0.398265 2.17824,-0.577963 3.30412,-0.744264 2.27558,-0.257787 4.57185,-0.237598 6.85876,-0.259076 2.63793,-0.0061 5.27495,0.04608 7.91289,0.03075 3.03859,0.0109 6.07687,-0.02697 9.11551,-0.02431 2.28413,-0.0097 4.55954,-0.008 6.82493,0.299518 2.06387,0.209708 3.87295,1.232269 5.70912,2.112815 2.56917,1.409926 5.07992,2.899583 7.34401,4.765722 1.70747,1.293866 3.31259,2.67892 4.79054,4.228892 0.91998,1.161033 1.693,2.429574 2.50338,3.667651 0,0 12.82584,-7.509086 12.82584,-7.509086 v 0 c -0.86791,-1.299022 -1.71794,-2.613151 -2.65986,-3.858244 -1.49692,-1.65079 -3.19438,-3.034174 -4.99724,-4.338444 -2.34454,-1.904147 -4.89374,-3.481474 -7.49458,-5.011234 -1.84879,-1.087706 -3.78319,-2.13436 -5.88552,-2.62991 -2.37674,-0.316133 -4.73358,-0.461525 -7.13568,-0.318903 -3.0113,0.0023 -6.02215,-0.0349 -9.03341,-0.03234 -2.64288,-0.02482 -5.28546,0.0077 -7.92834,-0.01827 -2.29702,-0.03333 -4.59728,-0.09159 -6.89182,0.05687 -7.56069,0.739015 -12.97026,4.148826 -19.41885,9.40428 -1.74204,1.567877 -3.52822,3.08734 -5.15161,4.781616 -1.93731,2.083705 -3.5246,4.402873 -4.91488,6.883715 -1.5855,2.17566 -3.45136,4.134026 -4.89273,6.412467 -1.09048,1.737693 -2.28612,3.412529 -3.21835,5.244766 -1.3517,2.736397 -2.39621,5.599313 -3.2115,8.541103 -0.73311,2.179024 -1.37088,4.397934 -2.28535,6.509698 -0.98016,2.263578 -1.88363,4.566685 -3.04789,6.744661 0,0 13.57286,-6.140789 13.57286,-6.140789 z" />
  <circle
     id="path113"
     style="fill:#F5F5F5;stroke:#000000"
     cx="475.43192"
     cy="40.302418"
     r="0.34388852" />
  <circle
     id="path115"
     style="fill:#F5F5F5;stroke:#000000"
     cx="475.43192"
     cy="40.302418"
     r="0.34388852" />
</svg>
