<?xml version="1.0" encoding="UTF-8" standalone="no"?>
<svg
   id="Layer_1"
   data-name="Layer 1"
   viewBox="0 0 512 512"
   version="1.1"
   sodipodi:docname="plus5seconds.svg"
   inkscape:version="1.1 (c68e22c387, 2021-05-23)"
   xmlns:inkscape="http://www.inkscape.org/namespaces/inkscape"
   xmlns:sodipodi="http://sodipodi.sourceforge.net/DTD/sodipodi-0.dtd"
   xmlns="http://www.w3.org/2000/svg"
   xmlns:svg="http://www.w3.org/2000/svg">
  <defs
     id="defs11">
    <rect
       x="345.84151"
       y="26.083019"
       width="166.15849"
       height="141.04151"
       id="rect3398" />
  </defs>
  <sodipodi:namedview
     id="namedview9"
     pagecolor="#ffffff"
     bordercolor="#666666"
     borderopacity="1.0"
     inkscape:pageshadow="2"
     inkscape:pageopacity="0.0"
     inkscape:pagecheckerboard="0"
     showgrid="false"
     inkscape:zoom="0.51757813"
     inkscape:cx="400.90566"
     inkscape:cy="47.335849"
     inkscape:window-width="1366"
     inkscape:window-height="715"
     inkscape:window-x="-8"
     inkscape:window-y="-8"
     inkscape:window-maximized="1"
     inkscape:current-layer="Layer_1" />
  <title
     id="title2">rewind1-glyph</title>
  <path
     d="m 23.33298,452.31 c -13.09,0 -23.33000041,-10.63 -23.33000041,-24.2 V 83.89 C 0.00297959,70.32 10.25298,59.7 23.34298,59.7 a -25.26,25.26 0 0 1 12.58,3.46 l 259.89,172.1 a -23.53,23.53 0 0 1 0,41.47 l -259.9,172.11 a -25.24,25.24 0 0 1 -12.58,3.46 z"
     fill="#000000"
     id="path4"
     style="fill:#000000" />
  <path
     d="m 227.12298,452.31 c -13.09,0 -23.33,-10.63 -23.33,-24.2 V 83.89 c 0,-13.57 10.25,-24.19 23.34,-24.19 a -25.26,25.26 0 0 1 12.58,3.46 l 259.88,172.1 a -23.53,23.53 0 0 1 0,41.47 l -259.89,172.12 a -25.24,25.24 0 0 1 -12.58,3.46 z"
     fill="#000000"
     id="path6"
     style="fill:#000000" />
  <text
     xml:space="preserve"
     id="text3396"
     style="font-style:normal;font-weight:normal;font-size:40px;line-height:1.25;font-family:sans-serif;white-space:pre;shape-inside:url(#rect3398);fill:#F5F5F5;fill-opacity:1;stroke:none" />
  <path
     style="fill:#000000"
     id="path4315"
     d="m 350.6862,11.076657 c 6.6158,-0.742324 13.28261,-0.867415 19.9318,-1.035917 10.03165,-0.2007819 20.0655,-0.075588 30.09818,-0.092346 7.77154,0.058507 15.54198,0.071999 23.31342,0.020431 8.67521,-0.036405 17.35038,0.023407 26.02574,-0.00198 7.03299,-0.062894 14.06557,0.051878 21.09795,0.12361 3.8086,-0.2494879 7.46167,-1.4238119 11.13594,-2.3697267 0,0 11.65198,-8.9243359 11.65198,-8.9243359 v 0 c -3.64416,0.94495281 -7.2478,2.08443458 -10.96701,2.7056585 -7.14573,0.070944 -14.29167,0.1852418 -21.43798,0.1234831 -8.67148,-0.025954 -17.34282,0.033489 -26.01415,-0.00612 -7.78677,-0.055922 -15.57265,-0.047713 -23.35956,0.011809 -10.06395,-0.00623 -20.12719,0.1423068 -30.19117,0.1378545 -6.45096,0.00488 -12.90321,0.01358 -19.34268,0.4476784 0,0 -11.94246,8.8598951 -11.94246,8.8598951 z" />
  <path
     style="fill:#000000"
     id="path4317"
     d="m 350.66501,18.709616 c 6.60687,-2.043031 13.63477,-2.219105 20.49363,-2.570475 8.30901,-0.347397 16.62659,-0.38041 24.94148,-0.392342 10.52586,0.19003 21.0226,-0.633387 31.52553,-1.182927 9.11491,-0.486396 18.24066,-0.623108 27.36645,-0.6799 6.59815,-0.04212 13.19647,-0.02523 19.79427,0.05117 1.62239,0.07613 6.35269,0.406096 7.41347,1.845725 0,0 12.8672,-7.6350009 12.8672,-7.6350009 v 0 c -0.22326,-0.2965218 -0.37903,-0.6588486 -0.66978,-0.8895654 -0.29154,-0.2313301 -0.67522,-0.3141449 -1.02091,-0.4519932 -2.18491,-0.8712563 -4.41103,-1.5055725 -6.79219,-1.4392738 -6.68615,0.064288 -13.37258,0.072247 -20.05883,0.1228035 -9.21231,0.1173417 -18.42775,0.276738 -27.62775,0.7929707 -10.42941,0.5835969 -20.8582,1.4404541 -31.31257,1.1188128 -8.30991,0.015755 -16.62376,-0.033119 -24.92877,0.2982583 -6.75424,0.3270699 -13.59871,0.5309305 -20.2375,1.8803103 0,0 -11.75373,9.1314287 -11.75373,9.1314287 z" />
  <path
     style="fill:#000000"
     id="path4319"
     d="m 353.03783,20.822214 c 9.80835,-0.552917 19.624,-0.869791 29.44658,-1.016482 9.37049,0.148219 18.71031,-0.287753 28.0562,-0.900618 8.77178,-0.625195 17.56176,-0.885997 26.35162,-1.076522 7.41045,-0.117262 14.82342,-0.1185 22.23473,-0.09388 3.70386,-0.03185 7.40785,-0.01063 11.11174,5.02e-4 0,0 11.61189,-8.435417 11.61189,-8.435417 v 0 c -3.69895,0.00642 -7.39801,0.022653 -11.09688,-0.012196 -7.43682,0.022702 -14.8735,0.017347 -22.31008,0.113578 -8.87924,0.1575615 -17.74632,0.631284 -26.60898,1.185294 -9.37886,0.609641 -18.76015,0.889567 -28.15736,1.052943 -9.50508,0.23715 -19.0224,0.506998 -28.52847,0.383649 0,0 -12.11099,8.799145 -12.11099,8.799145 z" />
  <path
     style="fill:#000000"
     id="path4323"
     d="m 347.86927,27.548231 c 8.54759,-0.261159 17.09919,-0.235894 25.64961,-0.245652 9.56063,-0.02311 19.12139,0.0127 28.68185,0.07053 7.94001,-0.01697 15.88005,0.01045 23.82007,0.02009 9.91268,-0.08101 19.82432,-0.128554 29.73728,-0.07376 7.74221,0.06822 15.48443,0.03441 23.22662,0.112755 3.23176,0.04347 6.4647,0.03926 9.69585,0.120969 0,0 12.02478,-8.736516 12.02478,-8.736516 v 0 c -3.34225,0.07902 -6.68604,0.07886 -10.02885,0.12097 -7.84565,0.07724 -15.69133,0.04547 -23.537,0.112755 -9.84529,0.05361 -19.68925,0.0095 -29.53425,-0.07376 -7.95844,0.0096 -15.91692,0.03701 -23.87537,0.02009 -9.62518,0.05727 -19.25065,0.09367 -28.876,0.07053 -8.32498,-0.0095 -16.65146,0.02301 -24.97338,-0.245652 0,0 -12.01121,8.726651 -12.01121,8.726651 z" />
  <path
     style="fill:#000000"
     id="path4325"
     d="m 398.69267,27.569979 c 7.21582,-0.357208 14.43152,-0.689262 21.65484,-0.875786 7.182,-0.149944 14.36519,-0.234017 21.54864,-0.274815 6.94488,-0.01098 13.88952,-0.01214 20.83401,0.0675 4.47308,0.02861 8.94607,0.02009 13.41917,0.05973 1.50616,0.0188 3.01245,0.01898 4.51869,0.02606 0,0 11.98501,-8.707555 11.98501,-8.707555 v 0 c -1.52979,0.007 -3.05963,0.0072 -4.58935,0.02546 -4.52422,0.03795 -9.04829,0.02844 -13.57252,0.0522 -7.01443,0.07224 -14.0289,0.06527 -21.04363,0.07905 -7.19563,-3.07e-4 -14.39274,-0.02804 -21.58442,0.253675 -7.02963,0.233937 -14.06629,0.588343 -21.09937,0.524342 0,0 -12.07107,8.770148 -12.07107,8.770148 z" />
  <path
     style="fill:#000000"
     id="path4327"
     d="m 360.44713,32.326453 c 0.19486,4.463137 0.12417,8.931551 0.16848,13.397369 -0.004,4.375535 -0.0433,8.750964 -0.0976,13.126139 0.0739,0.916893 0.0178,1.858329 0.57852,2.666427 1.6826,2.42483 5.42699,2.15004 7.9703,2.233575 7.54112,-0.200834 15.05754,-0.90032 22.59716,-1.219599 8.93624,-0.270502 17.87522,-0.415191 26.81545,-0.423121 3.76564,0.0042 7.53103,0.04224 11.29638,0.08429 2.37571,0.02654 4.54285,0.03879 6.86141,0.550343 2.45648,0.875075 3.94367,2.824986 5.50514,4.806098 2.25276,2.858177 1.90227,2.475578 3.98966,5.628113 2.85901,4.760296 5.46408,9.682254 7.35617,14.909055 1.42764,4.254552 1.62304,8.75604 1.74458,13.202188 -0.21944,1.70979 0.38499,3.65501 -0.13579,5.34069 -0.17056,0.55207 -0.56495,1.00865 -0.82267,1.52581 -2.12627,4.26676 0.33931,-0.29372 -2.13452,4.16481 -2.75147,4.8822 -6.45843,8.97424 -10.44021,12.86414 -4.0666,4.15871 -8.25846,8.20262 -12.67282,11.99173 -0.65473,0.5098 -1.27367,1.06923 -1.96419,1.5294 -0.72313,0.48189 -3.01076,1.73677 -2.26574,1.28945 3.31467,-1.99019 6.74272,-3.79726 9.9752,-5.91836 0.78853,-0.51742 -1.72571,0.76527 -2.61229,1.08695 -2.19665,0.797 -4.16312,1.27188 -6.42121,1.87883 -7.74294,1.76114 -15.64196,2.67562 -23.55354,3.22112 -5.17338,0.39422 -10.34451,0.53088 -15.45904,-0.49672 -3.44062,-0.69128 -4.16593,-1.07647 -7.41269,-2.23086 -5.57013,-2.124 -10.93296,-4.61655 -15.69677,-8.22025 -3.81697,-3.35252 -7.18005,-7.19347 -10.51658,-11.01474 0,0 -12.36551,7.47226 -12.36551,7.47226 v 0 c 3.43672,3.85088 6.77238,7.81439 10.5809,11.30902 5.00296,3.8453 10.23787,6.26237 16.14388,8.45303 1.21886,0.44785 2.41872,0.95129 3.65659,1.34354 6.34087,2.00926 12.91344,2.49985 19.51781,1.9031 7.94371,-0.5803 15.8565,-1.48226 23.68438,-2.98976 1.22991,-0.30881 5.16347,-1.27643 6.4258,-1.67017 7.99061,-2.49245 15.2105,-7.29454 21.76169,-12.42592 4.31985,-3.87238 8.51102,-7.88283 12.5576,-12.04066 3.99425,-4.02193 7.65333,-8.29414 10.38499,-13.3007 1.05852,-1.98276 2.40141,-4.09633 2.84829,-6.33925 0.35246,-1.769019 -0.14628,-3.64888 -0.036,-5.424903 -0.21191,-4.580258 -0.40162,-9.240122 -1.99631,-13.591282 -1.98467,-5.313647 -4.78645,-10.226529 -7.75298,-15.050574 -2.29529,-3.647726 -1.50185,-2.495439 -3.85708,-5.840038 -1.63894,-2.327411 -3.17928,-4.581008 -5.91842,-5.692947 -0.6888,-0.203511 -1.35756,-0.494726 -2.06639,-0.610533 -1.13789,-0.185905 -4.18621,-0.102635 -5.22239,-0.09166 -3.85575,0.04083 -7.71148,0.08367 -11.5674,0.107102 -8.93485,0.05036 -17.87464,-0.06571 -26.80293,0.351789 -7.40585,0.262078 -14.79841,0.749273 -22.19888,1.038548 -1.29026,-0.01477 -5.7989,0.263288 -6.77318,-0.918907 -0.39996,-0.485311 -0.38954,-1.648394 -0.43383,-2.142021 -0.0545,-4.342033 -0.0938,-8.684328 -0.0976,-13.026727 0.0444,-4.523059 -0.0244,-9.048567 0.16847,-13.569055 0,0 -13.29441,6.773841 -13.29441,6.773841 z" />
  <path
     style="fill:#000000"
     id="path4329"
     d="m 336.34332,119.49303 c 4.09489,3.33347 8.47019,6.30264 12.69965,9.46555 3.70735,2.8599 7.37378,5.773 11.10968,8.59552 3.82139,2.86465 7.92191,5.2653 12.04979,7.64681 3.60999,2.31416 7.50911,4.06287 11.62658,5.23307 2.87332,0.53679 5.63482,1.47487 8.51334,1.97585 4.44424,0.61088 8.94403,0.58489 13.42084,0.64212 4.6444,0.059 9.28887,0.0203 13.93334,0.0236 4.08254,0.007 8.16589,0.0815 12.24616,-0.0763 4.12753,-0.2245 7.8251,-2.1027 11.44692,-3.92914 3.63619,-1.76631 7.23562,-3.61556 10.90418,-5.31579 0.47536,-0.22559 0.96944,-0.41535 1.42607,-0.67679 4.68077,-2.67987 9.36028,-5.36361 13.9817,-8.14459 1.66008,-0.99897 3.00179,-2.70723 4.49439,-3.93786 2.20611,-2.41511 4.03419,-5.0254 5.40112,-7.99646 1.27957,-3.64743 2.20352,-7.40632 2.70264,-11.23721 0.4761,-4.71345 0.4436,-9.45666 0.46821,-14.188461 0.0434,-4.042609 0.0648,-8.085275 0.0602,-12.1281 -0.3269,-4.748768 -3.54354,-7.88581 -6.85516,-10.91925 -4.12051,-3.062777 -7.28292,-6.735365 -10.11815,-10.96438 -1.96897,-3.206469 -3.68711,-4.158511 -7.30996,-4.844576 -3.92785,-0.459804 -7.7338,-1.631429 -11.57968,-2.525549 -4.25852,-0.966463 -8.39107,-2.237981 -12.72847,-2.815489 -3.95245,-0.456644 -7.93032,-0.636067 -11.90565,-0.737453 -3.43899,-0.05648 -6.8777,0.02651 -10.31661,0.03886 -4.72198,-0.588411 -9.35884,-1.658101 -14.08046,-2.283417 -3.42469,-0.424844 -6.8711,-0.578745 -10.31823,-0.65574 -1.99996,-0.173378 -4.07147,0.224376 -6.04284,-0.212456 -1.34125,-1.639948 -1.12647,-6.256546 -1.33535,-8.427075 -0.57966,-5.604637 -0.69789,-11.240832 -0.82232,-16.869605 0.0586,-4.809531 -0.36048,-9.60235 -1.1385,-14.3443794 -1.77544,-6.7597161 -10.91164,4.6561154 -13.8016,6.8711414 -0.39128,0.299897 0.005,0.985995 1.7e-4,1.478962 -0.0587,6.45923 -0.006,-3.57787 -0.0381,3.698873 0.16311,7.103873 0.1389,14.210323 0.14086,21.315569 -0.0138,4.14318 -0.12487,8.286066 0.009,12.427447 0,0 12.9678,-6.684784 12.9678,-6.684784 v 0 c -0.25632,-4.074739 -0.18108,-8.153583 -0.23668,-12.234884 -0.005,-7.155736 -0.0617,-14.315892 0.22508,-21.467382 0.031,-0.845971 0.0878,-2.792286 0.17201,-3.690682 0.044,-0.469252 0.62322,-1.590201 0.1916,-1.400883 -4.41136,1.934947 -8.34814,4.831098 -12.70352,6.888962 -0.24389,0.115231 -0.25601,-0.502364 -0.2432,-0.771796 0.01,-0.203636 0.16895,0.371082 0.25342,0.556623 1.11,4.561564 1.25521,9.276287 1.32125,13.951517 0.0948,5.683425 0.30057,11.366805 0.6928,17.037731 0.21755,3.274626 -0.13625,7.314492 1.93689,10.010888 2.0106,0.990776 4.27366,0.470484 6.44994,0.562833 3.46269,0.0089 6.92881,0.07752 10.3774,0.417751 4.77484,0.522899 9.46879,1.445753 14.16509,2.442743 3.39539,6.81e-4 6.79051,0.05023 10.18599,0.02925 3.99672,0.0025 7.9988,0.07034 11.97811,0.478768 4.4231,0.542911 8.3029,1.726765 12.61306,2.722525 2.11782,0.475874 4.22881,0.987893 6.32854,1.538965 1.24744,0.327389 2.45335,0.820757 3.71992,1.063832 0.47842,0.09181 0.97205,0.066 1.45808,0.099 3.36971,0.406701 4.78299,0.838591 6.74324,3.785281 1.28175,1.809689 2.58142,3.680501 4.06255,5.334663 1.92223,2.146792 4.2393,3.870169 6.35319,5.812765 2.93272,2.83574 5.98339,5.603035 6.10435,9.974974 0.0106,4.015861 0.0604,8.031318 0.0704,12.047178 -0.0403,4.69038 -0.0642,9.39719 -0.65953,14.05753 -0.60489,3.70942 -1.45504,7.41217 -2.9773,10.86349 -1.45368,2.79936 -3.35775,5.31583 -5.67915,7.46208 -1.07717,0.96733 -2.12992,1.97259 -3.28447,2.84927 -0.40575,0.30809 -1.69386,1.1287 -1.24765,0.88282 16.68899,-9.19622 14.62163,-8.11597 9.92836,-5.72496 -3.74222,1.68834 -7.35663,3.62395 -11.07303,5.36255 -3.47885,1.83165 -7.09566,3.7942 -11.01824,4.37551 -4.07203,0.29578 -8.16203,0.064 -12.2425,0.17207 -4.64637,0.0139 -9.29299,2e-5 -13.93936,9.4e-4 -4.39062,-0.0321 -8.79559,-0.0483 -13.16285,-0.55416 -2.8709,-0.43032 -5.55898,-1.45511 -8.42908,-1.87751 -4.11942,-0.91644 -7.99091,-2.50662 -11.56166,-4.77745 -0.73995,-0.44212 -1.47991,-0.88424 -2.21986,-1.32636 -0.7186,-0.37646 -1.45541,-0.72005 -2.1558,-1.1294 -2.05618,-1.20175 -3.91762,-2.65844 -5.84212,-4.04567 -0.52672,-0.37968 -1.07998,-0.72112 -1.61997,-1.08167 -3.77004,-2.83304 -7.59818,-5.58866 -11.34877,-8.44821 -4.15393,-3.12406 -8.51481,-6.02503 -12.24345,-9.66356 0,0 -12.65473,7.91353 -12.65473,7.91353 z" />
  <path
     style="fill:#000000"
     id="path4333"
     d="m 462.57486,94.240284 c -1.14528,3.739786 -1.86669,7.581846 -2.83571,11.363026 -1.10786,5.08312 -2.17001,10.17671 -3.25581,15.26775 -1.19538,4.38901 -1.6822,9.01819 -3.3281,13.26824 -1.16845,2.04672 -1.77409,4.37045 -2.91592,6.42435 -0.48907,0.87973 -1.06521,1.70825 -1.58557,2.56985 -1.33994,2.18571 -3.21714,3.92837 -5.38298,5.26615 22.03339,-12.09411 10.30687,-5.6793 3.92946,-4.00374 -3.49428,0.49 -6.90674,1.31156 -10.32868,2.15748 -4.67991,1.18547 -9.51018,1.45452 -14.31274,1.65622 -5.40111,0.16287 -10.80555,0.1727 -16.20869,0.18894 -5.18595,-0.007 -10.36795,0.0498 -15.54418,-0.2934 -5.63496,-0.36869 -11.03412,-1.85976 -16.33842,-3.69933 -4.52094,-1.68904 -8.87052,-3.77682 -13.29799,-5.68576 0,0 -12.10309,8.07895 -12.10309,8.07895 v 0 c 4.50438,1.83827 8.87999,3.97469 13.44424,5.67254 5.30048,2.01615 10.73335,3.59191 16.40379,4.14709 5.23868,0.38489 10.4764,0.32369 15.72759,0.28602 5.38857,0.0181 10.77881,0.0689 16.16596,-0.0876 4.80439,-0.17192 9.65009,-0.31526 14.36494,-1.33777 3.42927,-0.78951 6.7806,-1.86685 10.30395,-2.1431 8.0564,-1.69643 14.51377,-5.83695 21.61147,-10.37277 2.06998,-1.60017 3.81915,-3.53057 5.09202,-5.83216 1.71599,-2.93691 2.98487,-6.07581 4.27715,-9.21847 1.3606,-4.38074 2.05182,-8.95212 3.17032,-13.39916 1.0545,-5.07653 2.03673,-10.17035 3.27316,-15.204229 0.99661,-3.857478 1.92066,-7.73308 3.05057,-11.555533 0,0 -13.37674,6.486456 -13.37674,6.486456 z" />
  <path
     style="fill:#000000"
     id="path4335"
     d="m 348.98357,123.27869 c 3.19038,1.3858 6.57384,2.20764 9.8729,3.30037 6.71285,1.95943 13.67744,2.86062 20.60648,3.66689 3.71319,0.39713 7.44166,0.61638 11.17428,0.69619 3.53083,-0.0259 7.0617,-0.0565 10.59292,-0.0511 3.11,0.003 6.22004,0.0138 9.33005,0.0121 3.54526,-0.0787 7.09281,0.0706 10.63492,-0.1015 4.44669,-0.31717 8.63571,-1.8277 12.7738,-3.37097 8.63116,-3.57176 16.54776,-8.58989 24.38084,-13.63587 1.98554,-1.19871 3.74506,-2.68638 5.285,-4.40971 0,0 -13.6831,5.69378 -13.6831,5.69378 v 0 c -1.60859,1.52553 -3.35263,2.88204 -5.25014,4.03723 -4.30118,2.81658 -13.02251,8.2009 6.8468,-3.5786 0.60212,-0.35696 -1.28049,0.56607 -1.91503,0.86156 -0.65969,0.3072 -3.46612,1.67173 -4.11528,1.98662 -4.05258,1.54664 -8.10369,3.2329 -12.46222,3.68329 -3.49721,0.27665 -7.01064,0.12211 -10.51625,0.13013 -3.13163,6e-5 -6.26335,0.014 -9.39492,0.0314 -3.49581,0.0213 -6.99145,0.0217 -10.48709,-0.007 -3.80477,0.0192 -7.61156,-0.0475 -11.40554,-0.36111 -6.85553,-0.60346 -13.72938,-1.42507 -20.33293,-3.45171 -1.45435,-0.51851 -2.84721,-1.20295 -4.31031,-1.69624 -1.69258,-0.57065 -3.58433,-0.63831 -5.13398,-1.65469 0,0 -12.4912,8.21877 -12.4912,8.21877 z" />
  <path
     style="fill:#000000"
     id="path4337"
     d="m 455.08222,108.48222 c -2.90913,2.15299 -4.69621,5.03648 -6.15181,8.28481 -1.70251,3.63114 -2.90408,7.47335 -4.17677,11.27032 -1.28815,3.00768 -2.27359,6.12261 -3.15956,9.26772 -0.41473,1.68602 -0.71327,3.38069 -1.57911,4.89258 0,0 13.51204,-6.16926 13.51204,-6.16926 v 0 c 0.60417,-1.66004 1.02806,-3.36816 1.45494,-5.08217 0.89541,-3.09303 1.88286,-6.15322 3.07594,-9.14653 1.29354,-3.73989 2.4535,-7.5447 4.22877,-11.09475 1.62651,-3.10167 3.67908,-5.79889 6.7086,-7.6665 0,0 -13.91304,5.44378 -13.91304,5.44378 z" />
  <path
     style="fill:#000000"
     id="path4339"
     d="m 439.03049,128.64264 c -3.87993,2.55697 -8.51402,4.93637 11.19155,-6.43491 0.2022,-0.11668 -0.39929,0.24214 -0.60232,0.35736 -0.27888,0.15826 -0.80205,0.43017 -1.09557,0.58424 -0.46006,0.19929 -0.90335,0.44202 -1.37023,0.62587 -0.43253,0.17033 -0.88633,0.30269 -1.32669,0.45218 -0.28008,0.11158 -0.85493,0.3441 -1.10863,0.42728 -0.43045,0.14112 -0.8731,0.242 -1.30808,0.36849 -1.58047,0.45962 0.007,0.0139 -1.69802,0.48622 -1.52598,0.45223 -3.09314,0.73147 -4.63009,1.13922 -0.26973,0.0613 -0.53966,0.12164 -0.80918,0.18385 -0.75642,0.17461 -1.06124,0.26389 -1.81941,0.38798 -0.24781,0.0405 -0.49817,0.0636 -0.74696,0.0976 -0.43978,0.06 -0.87882,0.12539 -1.31826,0.18787 -0.61031,0.0478 -1.20158,0.21737 -1.80475,0.3085 -0.17622,0.0266 -0.35461,0.0361 -0.53176,0.0556 -0.55606,0.0613 -0.56191,0.0644 -1.09035,0.13295 -1.03524,0.12132 -2.04837,0.38314 -3.07175,0.57652 -1.19194,0.33822 -2.42964,0.35469 -3.65681,0.40877 -0.98447,0.0167 -1.96872,0.004 -2.95339,0.014 -0.61859,-0.0106 -1.23844,0.057 -1.85667,0.0467 -0.855,-0.0142 -1.71341,-0.12626 -2.56349,-0.209 -1.71325,-0.25755 -3.4449,-0.29397 -5.17318,-0.34404 -1.93964,0.0352 -3.87532,0.20051 -5.80675,0.37473 -1.01205,0.0512 -2.02585,0.10844 -3.03964,0.10931 -0.75211,6.5e-4 -1.50714,-0.0312 -2.25911,-0.05 -0.8905,-0.0204 -1.77749,0.0562 -2.66748,0.049 0,0 -11.30775,8.28496 -11.30775,8.28496 v 0 c 0.92583,-0.0762 1.85406,-0.0934 2.78153,-0.14761 0.87848,-0.0696 1.75714,-0.16032 2.63616,-0.22006 0.78344,-0.0532 1.25868,-0.0533 2.04464,-0.0728 0.34028,-0.008 0.68053,-0.0179 1.0208,-0.0269 0.32404,-0.003 0.64824,3.9e-4 0.97213,-0.0103 1.5325,-0.0504 3.05411,-0.28386 4.58853,-0.30722 1.69351,0.0227 3.38603,0.0981 5.07262,0.25879 0.33796,0.0455 1.26606,0.1664 1.61328,0.2281 0.239,0.0425 0.47516,0.0996 0.71273,0.14935 0.21246,0.0597 0.42101,0.13574 0.63738,0.1792 0.14666,0.0295 0.88851,0.0843 1.04568,0.0969 1.02627,0.0126 2.05139,0.002 3.0771,-0.0377 1.27799,-0.0387 2.54664,-0.19779 3.82331,-0.26556 0.41905,-0.0807 0.66717,-0.13541 1.08292,-0.19067 0.64046,-0.0851 1.28496,-0.15697 1.90779,-0.34058 0.13166,-0.0302 0.97021,-0.22418 1.10204,-0.24717 0.83855,-0.14624 1.70434,-0.13116 2.51875,-0.41313 0.78807,-0.15508 1.56865,-0.35538 2.3577,-0.50301 0.79826,-0.14935 1.6099,-0.21482 2.4084,-0.36294 0.23829,-0.0319 0.47943,-0.0469 0.71487,-0.0956 0.5207,-0.10763 1.00912,-0.30966 1.51551,-0.46455 0.86286,-0.26392 1.74104,-0.48075 2.62251,-0.67195 0.2556,-0.0532 0.51121,-0.10632 0.76682,-0.15948 0.22901,-0.039 0.45927,-0.0713 0.68704,-0.11702 0.41198,-0.0827 0.81176,-0.22047 1.22427,-0.30049 1.93063,-0.37447 -0.76425,0.23733 0.99839,-0.1744 0.4649,-0.17935 0.92806,-0.37505 1.40413,-0.52353 0.17045,-0.0532 0.34706,-0.0857 0.51639,-0.14234 0.37774,-0.1263 0.71431,-0.29347 1.07589,-0.45949 1.15354,-0.52537 0.0466,-0.008 1.17645,-0.5757 0.1806,-0.0908 0.37143,-0.16161 0.54676,-0.26218 4.42043,-2.5358 9.14766,-5.08513 13.55823,-7.87136 0,0 -13.78598,5.43023 -13.78598,5.43023 z" />
  <path
     style="fill:#000000"
     id="path4341"
     d="m 363.86629,132.07853 c 0.14161,-0.0386 0.27821,-0.1087 0.42481,-0.11583 0.57535,-0.028 1.28025,0.14623 1.81926,0.27086 1.31837,0.30485 2.59898,0.71107 3.88511,1.12796 0.43558,0.17955 0.87596,0.34784 1.30672,0.53865 0.40819,0.1808 0.80228,0.39219 1.20922,0.57577 1.24672,0.56242 1.38329,0.56843 2.65678,1.11402 0.85685,0.3671 1.70358,0.75741 2.55725,1.13182 0.44214,0.18204 0.88972,0.35137 1.3264,0.54613 0.39025,0.17405 0.7656,0.37997 1.15323,0.55977 0.3481,0.16145 2.04386,0.90374 2.38593,1.03414 1.35996,0.51845 1.81708,0.59969 3.29174,1.00167 1.95688,0.58809 3.92459,1.15241 5.82263,1.91645 2.48597,1.00069 0.65784,0.39351 3.0761,1.31844 0.51335,0.19635 1.03734,0.36369 1.556,0.54553 2.6317,0.91594 0.40415,0.12009 2.80926,1.03207 0.40642,0.15411 0.82083,0.28722 1.22371,0.45035 0.32699,0.1324 0.6426,0.29135 0.96451,0.43567 0.99124,0.44442 0.64076,0.29256 1.60347,0.68211 0.50273,0.22323 1.05182,0.31028 1.56357,0.50561 0.39286,0.14995 0.5606,0.27731 0.89219,0.49043 0,0 11.78943,-8.00475 11.78943,-8.00475 v 0 c -0.39886,-0.0587 -0.98808,-0.13899 -1.36756,-0.22556 -0.5502,-0.12552 -1.08126,-0.3272 -1.636,-0.43559 -1.0756,-0.23859 -2.16289,-0.42116 -3.23758,-0.66226 -0.4606,-0.10333 -0.91619,-0.22786 -1.37487,-0.33936 -2.15063,-0.52282 -0.87505,-0.17274 -3.05944,-0.82592 -0.52831,-0.16991 -1.05402,-0.34814 -1.58494,-0.50972 -2.5256,-0.76863 -0.86539,-0.20176 -3.51792,-1.02122 -1.58942,-0.49103 -2.24163,-0.70893 -3.77026,-1.35491 -0.56531,-0.23889 -1.11815,-0.50626 -1.67722,-0.75939 -0.4709,-0.25609 -0.9361,-0.52297 -1.41272,-0.76826 -0.40766,-0.2098 -0.82422,-0.40192 -1.23931,-0.59662 -0.61943,-0.29055 -1.76825,-0.81236 -2.40694,-1.05715 -0.42449,-0.16271 -0.8662,-0.27856 -1.28869,-0.44639 -0.43763,-0.17384 -0.85945,-0.38509 -1.28917,-0.57763 -0.43346,-0.17802 -0.86636,-0.35738 -1.30036,-0.53405 -0.43976,-0.179 -0.88604,-0.34239 -1.3209,-0.53298 -0.4346,-0.19047 -0.85611,-0.40955 -1.28634,-0.60969 -1.27171,-0.5916 -2.57244,-1.11133 -3.84478,-1.70141 -0.31168,-0.1513 -1.94021,-0.93942 -2.29618,-1.121 -0.83418,-0.42551 -1.6911,-0.86155 -2.19311,-1.68895 0,0 -12.21303,8.61119 -12.21303,8.61119 z" />
  <path
     style="fill:#000000"
     id="path4343"
     d="m 381.7641,133.99273 c 2.07221,0.11593 3.99819,0.9552 5.91298,1.67704 0.75609,0.28503 1.51549,0.56117 2.27324,0.84176 1.58144,0.66173 3.14148,1.28017 4.67239,2.05606 0.65839,0.33368 1.28688,0.72336 1.93247,1.08117 1.59559,0.88431 3.2057,1.74175 4.80933,2.61128 0.82285,0.39111 2.03114,0.9815 2.87904,1.3205 0.53996,0.21589 1.09678,0.38731 1.64006,0.59469 0.52958,0.20215 1.05173,0.42325 1.57805,0.63372 1.36996,0.54783 1.76102,0.70063 3.12744,1.24034 2.66859,1.0172 5.36577,1.95752 7.98297,3.10378 1.0286,0.46199 2.09111,0.84741 3.11367,1.32303 0.29209,0.13586 0.57847,0.28368 0.8691,0.42264 0.10138,0.0558 0.21532,0.0932 0.30415,0.16742 0.0553,0.0462 0.0768,0.12181 0.11522,0.18272 4.22767,-2.57741 8.45535,-5.15481 12.68302,-7.73222 0,0 -13.23685,6.88527 -13.23685,6.88527 v 0 c 4.23414,-2.50058 8.46829,-5.00115 12.70244,-7.50173 -0.10384,0.0227 -0.20526,0.0712 -0.31152,0.0682 -0.15308,-0.004 -0.30038,-0.0599 -0.45057,-0.0898 -0.66445,-0.14743 -1.3351,-0.23356 -2.00191,-0.37177 -1.27207,-0.26366 -0.5173,-0.12056 -1.86648,-0.44454 -0.36702,-0.0881 -0.7362,-0.16705 -1.10429,-0.25058 -0.97749,-0.23772 -1.6253,-0.38452 -2.60199,-0.6681 -0.73858,-0.21444 -2.20492,-0.69471 -2.92739,-0.92364 -0.51079,-0.16185 -1.02466,-0.31403 -1.53394,-0.48059 -0.52177,-0.17065 -1.03931,-0.35397 -1.55896,-0.53096 -1.46136,-0.53939 -1.69895,-0.61589 -3.14845,-1.19596 -3.22823,-1.29189 0.0648,0.018 -3.05765,-1.31509 -0.74751,-0.31912 -2.29,-0.90968 -3.03803,-1.19972 -1.88577,-0.64661 -3.76993,-1.29573 -5.62794,-2.01962 -0.74282,-0.28941 -1.49017,-0.5692 -2.21854,-0.89325 -2.11117,-0.93928 -2.28604,-1.12076 -4.23598,-2.28448 -1.03565,-0.7785 -1.94396,-1.43791 -2.93101,-2.25998 -0.34318,-0.28581 -0.66788,-0.59314 -1.00534,-0.8857 -0.4956,-0.42965 -0.78503,-0.62814 -1.20482,-1.08404 -0.0845,-0.0917 -0.15244,-0.19746 -0.22866,-0.29619 0,0 -12.30525,8.21838 -12.30525,8.21838 z" />
  <path
     style="fill:#000000"
     id="path4345"
     d="m 406.70843,133.57269 c 0.16564,0.0741 0.32681,0.1592 0.49692,0.22239 0.35497,0.13185 0.72626,0.21876 1.07674,0.36213 0.91941,0.3761 1.87967,0.9141 2.73053,1.41056 1.54561,0.90183 1.84469,1.13104 3.37869,2.14328 2.5947,1.74105 5.03875,3.68893 7.54909,5.54553 3.14373,2.32504 0.65385,0.39543 3.53733,2.67218 1.444,1.19322 1.29075,1.07628 2.69016,2.19712 0.37794,0.3027 0.74933,0.61398 1.13696,0.90416 1.0551,0.78986 2.17939,1.47885 3.30206,2.16609 1.07702,0.72194 2.31746,1.31531 3.18132,2.31432 0.1447,0.16735 0.27221,0.34884 0.40831,0.52325 0,0 11.48243,-9.23421 11.48243,-9.23421 v 0 c 0.004,0.24478 0.15571,0.53588 0.0124,0.73434 -0.10383,0.14376 -0.3575,0.0175 -0.5318,-0.0152 -0.24961,-0.0468 -0.48826,-0.14057 -0.72903,-0.22136 -1.01061,-0.33912 -1.99233,-0.7598 -2.96413,-1.19566 -0.38281,-0.18226 -0.76883,-0.35789 -1.14841,-0.54677 -1.06317,-0.52904 -1.39863,-0.73946 -2.46225,-1.30371 -1.57291,-0.83442 -3.1666,-1.62948 -4.72807,-2.4856 -0.63189,-0.37329 -1.27949,-0.72117 -1.89567,-1.11986 -0.65001,-0.42058 -1.27066,-0.88496 -1.89991,-1.336 -2.48248,-1.77942 -4.8951,-3.66109 -7.09213,-5.78869 -0.52302,-0.50252 -2.13817,-2.04762 -2.69461,-2.60694 -0.52227,-0.52497 -1.34599,-1.35086 -1.76953,-2.00305 -0.11775,-0.18132 -0.3552,-0.76711 -0.47459,-1.05521 0,0 -12.59278,7.71687 -12.59278,7.71687 z" />
  <path
     style="fill:#000000"
     id="path4347"
     d="m 422.16378,131.03654 c 0.6365,-0.04 1.10177,0.36162 1.60803,0.67968 0.31641,0.19878 0.65446,0.3644 0.95733,0.58327 0.78105,0.56443 1.10862,0.96586 1.77294,1.65524 1.07051,0.91646 1.72687,2.16121 2.52899,3.29115 0.46761,0.65873 0.46362,0.62147 0.99932,1.22656 0.44188,0.53134 0.85961,1.0854 1.32181,1.59979 0.30953,0.34447 0.64415,0.66577 0.95501,1.00903 0.15585,0.17209 0.3052,0.34994 0.45781,0.5249 0.67162,0.87207 1.29349,1.78348 2.00479,2.62419 0.26512,0.32116 0.52375,0.64753 0.84559,0.91502 0.11711,0.0973 0.2437,0.18268 0.36345,0.27674 0.15592,0.12248 0.30899,0.24854 0.46349,0.3728 0.18048,0.14121 0.36096,0.28242 0.54144,0.42362 0.16199,0.15512 0.32629,0.30786 0.48597,0.46534 0.15472,0.15259 0.31133,0.30366 0.45714,0.46478 0.36827,0.40697 0.6678,0.86492 0.97312,1.31849 0.16444,0.24161 0.0856,0.11657 0.23575,0.37554 0,0 12.63942,-7.4448 12.63942,-7.4448 v 0 c -0.26295,-0.32839 -0.12354,-0.15745 -0.41917,-0.51207 -0.0925,-0.0767 -0.18077,-0.15872 -0.27745,-0.23003 -0.24182,-0.17837 -0.50828,-0.32136 -0.75183,-0.49736 -0.51235,-0.37026 -0.98067,-0.79808 -1.41236,-1.25907 -0.11403,-0.14566 -0.58487,-0.74402 -0.71444,-0.92042 -0.099,-0.13479 -0.18109,-0.28219 -0.28771,-0.41105 -0.25337,-0.3062 -0.60707,-0.48596 -0.88152,-0.7693 -0.77494,-0.79605 -1.61924,-1.5223 -2.35461,-2.35665 -0.89607,-1.08843 -1.81305,-2.16118 -2.86006,-3.10959 -0.55692,-0.60414 -1.1286,-1.19073 -1.74036,-1.74047 -0.25022,-0.22485 -0.51705,-0.43086 -0.76545,-0.65772 -0.88595,-0.80911 -0.85998,-0.83027 -1.67091,-1.74724 -0.60866,-0.68091 -1.02995,-1.10807 -1.548,-1.86028 -0.19553,-0.28391 -0.34285,-0.59865 -0.53196,-0.88689 -0.13427,-0.20465 -0.30538,-0.38373 -0.43704,-0.59006 -0.21999,-0.34475 -0.30266,-0.58394 -0.44991,-0.94425 0,0 -12.50862,8.13111 -12.50862,8.13111 z" />
  <path
     style="fill:#000000"
     id="path4349"
     d="m 431.86356,127.60907 c 0.52702,0.6408 1.19106,1.14387 1.72549,1.7796 0.20869,0.24824 0.39164,0.51702 0.58792,0.77519 0.22309,0.29344 0.44678,0.58641 0.67017,0.87962 0.76178,1.10472 0.58188,0.77108 1.18916,1.92971 0.15635,0.29831 0.28536,0.61116 0.45456,0.90238 0.17935,0.3087 0.91346,1.34867 1.11404,1.65826 0.15998,0.24693 0.30728,0.50184 0.46092,0.75276 0.53458,0.93628 1.15466,1.81966 1.74167,2.72281 0.14206,0.21857 0.57074,0.92006 0.71749,1.15918 0.35493,0.52435 0.65914,1.08966 1.05568,1.58534 0.33651,0.39073 0.17658,0.19658 0.481,0.58146 0.3228,0.49247 0.69033,0.95385 1.02332,1.43911 0.29319,0.36797 0.53306,0.77511 0.82024,1.14669 0.1256,0.17518 0.0611,0.0871 0.19366,0.26403 0,0 12.72068,-7.62019 12.72068,-7.62019 v 0 c -0.15737,-0.17745 -0.0754,-0.086 -0.24624,-0.27408 -0.31445,-0.31495 -0.61641,-0.64713 -0.87949,-1.00642 -0.39341,-0.48349 -0.81612,-0.9426 -1.22397,-1.41421 -0.17283,-0.19093 -0.34021,-0.38689 -0.5173,-0.57388 -0.43245,-0.45663 -0.94614,-0.82912 -1.36554,-1.30031 -0.35147,-0.37275 -0.56902,-0.58887 -0.89339,-0.9964 -0.67236,-0.84476 -1.25352,-1.75811 -1.92058,-2.60675 -0.23094,-0.29325 -0.92551,-1.17026 -1.14183,-1.46523 -0.18987,-0.25891 -0.36299,-0.52979 -0.55103,-0.79004 -0.6403,-0.88622 -1.32728,-1.74376 -1.78149,-2.74924 -0.16007,-0.32942 -0.32003,-0.65889 -0.4802,-0.98826 -0.14196,-0.29192 -0.29934,-0.57681 -0.4262,-0.8756 -0.20119,-0.47385 -0.492,-1.21684 -0.38579,-1.75865 0.0121,-0.0618 0.053,-0.11433 0.0796,-0.1715 0,0 -13.22251,7.01462 -13.22251,7.01462 z" />
  <path
     style="fill:#000000"
     id="path4351"
     d="m 459.92704,88.37535 c 0.23255,0.295812 0.35036,0.430469 0.56,0.806417 0.14415,0.258498 0.26714,0.528365 0.39167,0.796865 0.35311,0.761339 0.7317,1.647584 1.00475,2.432832 0.17049,0.490307 0.30794,0.991483 0.46192,1.487224 0.14643,0.517173 0.28875,1.035529 0.4393,1.551517 0.16043,0.549837 0.3466,1.092288 0.49361,1.645864 0.2904,1.093533 0.4947,2.207389 0.71695,3.315661 0.42402,2.11444 0.2298,1.0264 0.56023,3.10264 0.32221,1.71329 0.38178,3.4557 0.48553,5.19055 0.2469,4.1286 -0.0877,-1.9599 0.13239,2.11722 0.13425,1.30766 -0.0551,2.6036 -0.39526,3.86494 -0.0955,0.35408 -0.30045,0.96753 -0.41475,1.31804 -0.45601,1.43133 -0.96393,2.85405 -1.60662,4.21398 -0.14388,0.30445 -0.30271,0.60161 -0.45407,0.90242 -0.34881,0.8548 -0.76543,1.68433 -1.1002,2.54493 -0.29233,0.75149 -0.5042,1.52715 -0.6978,2.30823 -0.1901,0.8734 -0.56436,1.68703 -0.86349,2.5243 -0.0925,0.2588 -0.16674,0.52209 -0.24449,0.78538 -0.0807,0.6446 -0.10319,1.29347 -0.14443,1.94174 -0.11498,0.31629 -0.10907,0.65214 -0.16824,0.97787 -0.0116,0.0641 -0.0327,0.1261 -0.049,0.18915 -0.0112,0.0716 -0.0223,0.14315 -0.0335,0.21473 0,0 13.22922,-6.50171 13.22922,-6.50171 v 0 c 0.0645,-0.47705 0.0875,-0.96276 0.0684,-1.44343 0.0224,-0.5905 0.10025,-1.17126 0.20993,-1.75178 0.0462,-0.97754 0.17237,-1.95426 0.47231,-2.88946 0.43965,-1.53573 0.91018,-3.06375 1.57793,-4.51915 0.28388,-0.76515 0.37006,-1.03037 0.7086,-1.7982 0.54801,-1.24289 1.26383,-2.41236 1.66331,-3.71831 0.0887,-0.49113 0.19214,-0.94944 0.19537,-1.45298 0.002,-0.24214 -0.0446,-0.48228 -0.0604,-0.72391 -0.0676,-1.03571 -0.0452,-2.07189 -0.0865,-3.10862 -0.0606,-0.68647 -0.11562,-1.4744 -0.23397,-2.15425 -0.0625,-0.35885 -0.15159,-0.7126 -0.23464,-1.06724 -0.30203,-1.28978 -0.64867,-2.56928 -0.93118,-3.86378 -0.28095,-1.125913 -0.47158,-1.903002 -0.76661,-3.031037 -0.1143,-0.436984 -0.76214,-2.832461 -0.85422,-3.250715 -0.1275,-0.579169 -0.20568,-1.168197 -0.32102,-1.749909 -0.10669,-0.538045 -0.22999,-1.07266 -0.34499,-1.60899 -0.10172,-0.514806 -0.22941,-1.025154 -0.30517,-1.544417 -0.15325,-1.050505 -0.16627,-1.783808 -0.13428,-2.828129 0.0217,-0.70803 0.0614,-1.392276 0.41181,-2.02272 0,0 -13.33837,6.796237 -13.33837,6.796237 z" />
  <path
     style="fill:#000000"
     id="path4353"
     d="m 358.83533,67.108253 c 3.38294,1.201177 6.78108,1.561751 10.34185,1.812189 5.33023,0.198507 10.65651,0.379998 15.97802,0.754665 2.48188,0.01314 4.90486,0.43433 7.34306,0.823351 3.47406,0.398446 6.96975,0.544959 10.46296,0.647281 4.18761,0.0818 8.37525,0.137153 12.56257,0.233542 2.41583,0.05691 4.83296,0.05975 7.24949,0.07418 2.29833,0.02399 4.5962,-0.03616 6.8944,-0.03149 2.44988,-0.0099 4.7235,0.702072 6.91917,1.712078 1.92186,0.738905 3.36536,2.093576 4.85042,3.473904 1.85538,1.770254 3.91504,3.388529 5.19982,5.6416 0.81205,1.57319 1.76892,3.067231 2.71167,4.564797 1.24741,1.934379 2.40121,3.931933 3.41325,5.999734 0.98643,1.975392 1.74667,4.046184 2.56023,6.094224 0.49663,1.304102 0.77318,2.665962 1.22729,3.987372 0.7216,1.97798 1.35351,3.97915 2.10831,5.94506 0.78984,1.74862 1.32928,3.58364 1.77528,5.44413 0,0 12.78454,-6.93902 12.78454,-6.93902 v 0 c -0.54845,-1.87445 -1.16569,-3.72132 -1.80998,-5.56476 -0.67218,-2.012075 -1.33555,-4.024868 -1.86789,-6.07936 -0.50131,-1.331838 -0.70695,-2.755799 -1.35783,-4.029376 -0.96454,-1.99374 -1.72414,-4.084538 -2.76409,-6.043524 -1.01835,-2.12185 -2.0955,-4.202488 -3.3467,-6.198363 -0.89393,-1.522407 -1.80922,-3.029736 -2.74985,-4.522703 -0.55288,-0.905492 -0.6638,-1.181777 -1.39264,-1.981125 -1.28108,-1.405015 -2.8428,-2.534195 -4.17381,-3.887797 -1.03383,-1.059095 -1.04696,-1.054123 -2.00507,-2.102921 -0.26484,-0.289902 -0.49204,-0.61717 -0.78637,-0.87707 -0.60372,-0.533083 -1.45913,-0.663716 -2.12707,-1.083977 -1.04367,-0.422291 -2.08755,-0.930249 -3.16386,-1.261606 -1.37326,-0.422778 -2.81761,-0.553849 -4.21703,-0.855801 -2.27219,0.005 -4.54405,-0.05493 -6.81636,-0.02663 -2.48355,0.01891 -4.96741,0.02995 -7.45048,0.07815 -4.24011,0.07093 -8.48141,0.09531 -12.7203,-0.06143 -3.33419,-0.139678 -6.6604,-0.340612 -9.96774,-0.800704 -1.51374,-0.209396 -3.03814,-0.57014 -4.5631,-0.672121 -0.48992,-0.03276 -0.98201,-0.0056 -1.473,-0.0099 -0.58239,-0.0051 -1.16475,-0.01202 -1.74713,-0.01804 -5.37152,-0.07285 -10.74009,-0.274199 -16.10243,-0.594727 -3.10222,-0.291312 -6.66385,-0.398901 -9.39845,-2.044292 0,0 -12.38115,8.400492 -12.38115,8.400492 z" />
  <path
     style="fill:#000000"
     id="path4355"
     d="m 357.04402,18.718368 c 0.082,1.871249 0.18678,3.738118 0.31815,5.607218 0.0697,2.080476 0.29153,4.143179 0.51241,6.211168 0.25185,2.334663 0.27384,4.682145 0.28043,7.027419 0.0675,1.370619 -0.11257,2.75683 -0.0148,4.126168 0.035,0.489551 0.26716,1.704339 0.34878,2.159363 0.9893,2.608319 1.96398,5.205298 2.55249,7.936515 0.44834,2.058204 0.60513,4.159447 0.92113,6.236412 0.26862,1.537472 0.38125,3.095859 0.43241,4.653981 0.0137,1.202701 0.0212,2.405618 0.0141,3.608409 0.11327,0.829242 -5e-4,0.410516 0.37387,1.246881 0,0 13.00122,-7.280827 13.00122,-7.280827 v 0 c -0.14181,-0.420975 -0.0881,-0.184677 -0.12915,-0.715417 -0.007,-1.219091 0.003,-2.438956 -0.0878,-3.655757 -0.1102,-1.595647 -0.32005,-3.177403 -0.57669,-4.756246 -0.34848,-2.093854 -0.63713,-4.198896 -1.11993,-6.268933 -0.72836,-2.638674 -1.69612,-5.192662 -2.44344,-7.823983 -0.2024,-2.039998 -0.24125,-4.073597 -0.24885,-6.124423 -0.0577,-2.392308 -0.1033,-4.787901 -0.28555,-7.174315 -0.20862,-2.041597 -0.41887,-4.081229 -0.55354,-6.129813 -0.12388,-1.892213 -0.0978,-3.788786 0.0431,-5.680058 0,0 -13.33837,6.796238 -13.33837,6.796238 z" />
  <path
     style="fill:#000000"
     id="path4357"
     d="m 380.291,69.59987 c 4.11847,-0.228877 8.24439,-0.267219 12.36759,-0.349822 5.86337,-0.179021 11.72442,0.192631 17.58331,-0.106137 2.67479,-0.157322 5.33854,-0.459937 8.01926,-0.311184 2.55475,0.23143 5.10272,0.447529 7.63945,0.834661 1.59747,0.261936 0.82331,0.135276 2.32246,0.380078 0,0 11.96133,-8.441901 11.96133,-8.441901 v 0 c -1.55264,-0.177058 -0.7538,-0.07815 -2.39616,-0.299613 -2.53304,-0.396325 -5.06396,-0.74051 -7.61766,-0.977656 -2.85788,-0.305322 -5.67364,-0.01404 -8.51236,0.392757 -1.40672,0.133594 -3.31491,0.330801 -4.70718,0.393012 -4.3824,0.19582 -8.78054,0.06442 -13.16439,0.05098 -3.8022,-0.08062 -7.60818,-0.109626 -11.40462,-0.349822 0,0 -12.09103,8.784647 -12.09103,8.784647 z" />
  <path
     style="fill:#000000"
     id="path4359"
     d="m 390.93715,14.583926 c 2.57176,1.808934 5.0228,3.967898 7.72672,5.574905 1.55224,0.922533 3.82579,1.913793 5.45826,2.663622 6.52595,2.521046 13.32994,4.116147 20.22823,5.181488 2.54841,0.247763 3.79688,0.488354 6.39392,0.239449 2.61512,-0.250636 5.2293,-0.945706 7.75435,-1.619441 0.98381,-0.262502 6.18256,-1.760966 7.32432,-2.089047 3.544,-0.937526 7.057,-1.96318 10.54871,-3.077993 0,0 11.41127,-8.860225 11.41127,-8.860225 v 0 c -1.86281,0.633998 -3.69819,1.3633 -5.57534,1.953369 -0.85919,0.270081 -1.73414,0.487598 -2.59652,0.747322 -1.02151,0.30765 -2.03653,0.636461 -3.0548,0.954692 -2.25905,0.694536 -5.1583,1.602053 -7.41972,2.228891 -2.16974,0.601429 -5.03902,1.371708 -7.30625,1.650268 -2.71175,0.333175 -3.51702,0.129101 -6.19817,-0.09563 -6.84313,-0.787601 -13.61904,-2.11813 -19.98358,-4.850731 -1.52983,-0.705241 -3.75433,-1.682092 -5.22193,-2.545409 -2.63002,-1.547103 -5.01203,-3.5671901 -6.9757,-5.8966009 0,0 -12.51377,7.8410669 -12.51377,7.8410669 z" />
  <path
     style="fill:#000000"
     id="path4361"
     d="m 393.91705,14.528118 c 5.15126,1.693417 10.43618,2.940266 15.76456,3.928368 6.53802,1.088494 13.17631,1.316764 19.78827,1.535516 4.57743,0.157155 9.15785,0.136576 13.73717,0.156308 3.2366,0.03355 6.47209,0.08033 9.70862,0.02235 3.09449,0.01185 6.18888,0.01018 9.28319,0.02927 2.22087,0.01718 4.44254,0.07894 6.66336,0.04899 2.32005,-0.03443 4.64032,-0.0031 6.96047,-0.0084 2.1869,-0.03238 4.37388,0.01258 6.5608,0.02235 0.78532,0.0066 1.57059,0.01864 2.35586,0.02981 0,0 11.98286,-8.706056 11.98286,-8.706056 v 0 c -0.81263,0.01112 -1.62525,0.02305 -2.43793,0.02981 -2.20742,0.0097 -4.41491,0.05435 -6.62232,0.02235 -2.31237,-0.0054 -4.62487,0.02609 -6.93713,-0.0085 -2.26555,-0.03182 -4.53207,0.03397 -6.7977,0.04859 -3.12336,0.01889 -6.24681,0.0175 -9.37035,0.03271 -3.27712,-0.0565 -6.55275,0.01087 -9.8296,0.06175 -4.67658,0.04681 -9.35325,0.07393 -14.02999,0.09533 -6.62571,-0.04425 -13.27302,-0.210116 -19.83247,-1.232868 -5.02813,-0.9013862 -9.98764,-2.0208913 -14.59747,-4.2993155 0,0 -12.3502,8.1916695 -12.3502,8.1916695 z" />
  <path
     style="fill:#000000"
     id="path4363"
     d="m 484.09996,6.2642338 c 0.15201,2.1697764 0.14309,4.3421432 0.28339,6.5144262 0.11018,1.632882 0.199,3.266984 0.22732,4.903438 0.12321,1.032582 -0.071,2.095141 0.0355,3.12556 0.0698,0.675699 0.25247,1.334933 0.37754,2.002617 0.35903,2.030022 0.50785,4.089799 0.56168,6.148291 0,0 13.09817,-6.759427 13.09817,-6.759427 v 0 c -0.16179,-2.092131 -0.3874,-4.174111 -0.68985,-6.250998 -0.20567,-1.67326 -0.2079,-3.348961 -0.20646,-5.033554 -0.077,-1.6315685 -0.20427,-3.2582876 -0.40117,-4.8802619 -0.17609,-2.1754666 -0.17843,-4.3686523 0.008,-6.54393228 0,0 -13.29441,6.77384098 -13.29441,6.77384098 z" />
  <path
     style="fill:#000000"
     id="path4365"
     d="m 350.76478,12.922142 c 0.0838,1.700703 0.12942,3.404146 0.18372,5.106387 -0.009,2.673162 0.0152,5.346294 0.0106,8.019378 -0.17153,3.285755 0.46911,6.496088 1.04516,9.710727 0.62058,3.006448 1.41698,5.968897 1.90115,9.002299 0.36717,2.133917 0.78741,4.253663 1.21464,6.376104 0.59332,2.617831 0.65061,5.316961 1.22283,7.932095 0.71808,2.578755 1.40895,5.170883 1.86774,7.809659 0.0775,0.38074 0.15497,0.76148 0.23245,1.14222 0,0 12.89145,-6.901452 12.89145,-6.901452 v 0 c -0.0784,-0.377039 -0.15681,-0.754078 -0.23521,-1.131116 -0.58742,-2.60747 -1.29012,-5.181666 -1.94198,-7.772862 -0.48188,-2.641385 -0.66863,-5.334458 -1.13077,-7.982359 -0.42912,-2.114147 -0.72058,-4.252747 -1.24702,-6.346875 -0.68415,-2.975571 -1.51866,-5.918351 -2.03957,-8.929631 -0.66575,-3.136459 -1.04199,-6.293408 -0.83117,-9.507013 -0.005,-2.676687 0.0193,-5.353422 0.0106,-8.030187 0.0545,-1.7646548 0.10075,-3.5303589 0.18372,-5.2936123 0,0 -13.33836,6.7962383 -13.33836,6.7962383 z" />
</svg>
