<?xml version="1.0" encoding="UTF-8" standalone="no"?>
<svg
   id="Layer_1"
   data-name="Layer 1"
   viewBox="0 0 512 512"
   version="1.1"
   sodipodi:docname="plus15seconds.svg"
   inkscape:version="1.1 (c68e22c387, 2021-05-23)"
   xmlns:inkscape="http://www.inkscape.org/namespaces/inkscape"
   xmlns:sodipodi="http://sodipodi.sourceforge.net/DTD/sodipodi-0.dtd"
   xmlns="http://www.w3.org/2000/svg"
   xmlns:svg="http://www.w3.org/2000/svg">
  <defs
     id="defs11" />
  <sodipodi:namedview
     id="namedview9"
     pagecolor="#ffffff"
     bordercolor="#666666"
     borderopacity="1.0"
     inkscape:pageshadow="2"
     inkscape:pageopacity="0.0"
     inkscape:pagecheckerboard="0"
     showgrid="false"
     inkscape:zoom="1.463932"
     inkscape:cx="438.20341"
     inkscape:cy="92.558943"
     inkscape:window-width="1366"
     inkscape:window-height="715"
     inkscape:window-x="-8"
     inkscape:window-y="-8"
     inkscape:window-maximized="1"
     inkscape:current-layer="Layer_1" />
  <title
     id="title2">rewind1-glyph</title>
  <path
     d="m 23.33298,452.31 c -13.09,0 -23.33000041,-10.63 -23.33000041,-24.2 V 83.89 C 0.00297959,70.32 10.25298,59.7 23.34298,59.7 a -25.26,25.26 0 0 1 12.58,3.46 l 259.89,172.1 a -23.53,23.53 0 0 1 0,41.47 l -259.9,172.11 a -25.24,25.24 0 0 1 -12.58,3.46 z"
     fill="#000000"
     id="path4"
     style="fill:#000000" />
  <path
     d="m 227.12298,452.31 c -13.09,0 -23.33,-10.63 -23.33,-24.2 V 83.89 c 0,-13.57 10.25,-24.19 23.34,-24.19 a -25.26,25.26 0 0 1 12.58,3.46 l 259.88,172.1 a -23.53,23.53 0 0 1 0,41.47 l -259.89,172.12 a -25.24,25.24 0 0 1 -12.58,3.46 z"
     fill="#000000"
     id="path6"
     style="fill:#000000" />
  <path
     style="fill:#000000"
     id="path41"
     d="m 335.30817,20.24138 c 0.14491,7.350639 0.13401,14.70359 0.14852,22.055417 -6.7e-4,10.552457 0.0568,21.104782 0.0738,31.657217 -0.0609,10.779878 -0.0257,21.559864 -0.0326,32.339816 -0.11887,8.58222 0.64227,17.14332 1.14485,25.70384 0,0 12.99675,-6.72697 12.99675,-6.72697 v 0 c -0.58825,-8.51351 -1.34026,-17.03865 -1.18275,-25.579739 -0.007,-10.768881 0.0283,-21.537797 -0.0326,-32.306603 0.017,-10.577514 0.0745,-21.154918 0.0738,-31.732453 0.0146,-7.402281 0.004,-14.805644 0.14852,-22.206763 0,0 -13.33837,6.796238 -13.33837,6.796238 z" />
  <path
     style="fill:#000000"
     id="path43"
     d="m 343.03647,18.309304 c 0.0788,5.470664 0.0867,10.9425 0.0781,16.413724 0.60986,7.301195 -0.44298,14.331885 -1.78597,21.469072 -1.45011,8.591808 -1.67334,17.316988 -1.87541,26.008068 -0.1314,9.1173 -0.15839,18.234982 -0.18087,27.352952 -0.008,6.35737 -0.0307,12.71467 -0.0406,19.07203 0.12758,2.64723 -0.27239,5.78501 1,8.20916 0,0 12.96927,-7.65137 12.96927,-7.65137 v 0 c -0.86197,-0.41873 -0.72009,-6.2248 -0.75677,-7.29117 -0.0196,-6.33625 -0.0613,-12.67233 -0.0834,-19.00858 -0.0335,-9.09355 -0.0706,-18.189343 0.12438,-27.281282 0.24108,-8.646632 0.53242,-17.328496 2.09779,-25.858268 1.33379,-7.216254 2.14095,-14.376176 1.71381,-21.737307 -0.009,-5.497741 -2.8e-4,-10.996075 0.0781,-16.493267 0,0 -13.33837,6.796238 -13.33837,6.796238 z" />
  <path
     style="fill:#000000"
     id="path45"
     d="m 352.70784,28.195192 c -0.0668,6.845566 0.7683,13.650357 1.28736,20.467479 0.49988,6.632438 0.63204,13.283005 0.68561,19.931462 0.0108,5.232751 0.0301,10.465453 0.017,15.698216 0.011,6.73332 0.0139,13.466023 0.0828,20.199061 0.0383,9.6206 0.007,19.24121 0.005,28.86183 -0.9327,6.13094 0.5436,13.09813 -1.71959,19.02605 -0.31661,0.82931 -0.99933,1.46741 -1.499,2.20112 0,0 13.53615,-6.04825 13.53615,-6.04825 v 0 c 0.39139,-0.85811 0.91874,-1.66642 1.17415,-2.57433 1.74227,-6.19319 0.72947,-12.93167 1.53236,-19.24068 -0.001,-9.62277 -0.0328,-19.24553 0.008,-28.86826 0.0706,-6.763953 0.0782,-13.527665 0.10146,-20.291881 -0.005,-5.233986 0.039,-10.468358 -0.0551,-15.701836 -0.12053,-6.665445 -0.26114,-13.334842 -0.79968,-19.982367 -0.56079,-6.807219 -1.35974,-13.621422 -1.04024,-20.462654 0,0 -13.31639,6.78504 -13.31639,6.78504 z" />
  <path
     style="fill:#000000"
     id="path47"
     d="m 346.95557,34.893459 c 0.18725,9.852129 0.12353,19.708076 0.12166,29.561806 0.0404,8.619459 -0.0564,17.238552 -0.0842,25.857817 -0.0183,6.962234 0.0183,13.924288 0.0194,20.886528 0.26926,8.40749 -0.19087,16.77447 -0.87881,25.14875 0,0 13.12263,-6.55868 13.12263,-6.55868 v 0 c 0.61615,-8.41666 1.1063,-16.82739 0.87108,-25.27244 0.001,-6.968823 0.0376,-13.937451 0.0194,-20.90626 -0.0278,-8.590653 -0.12485,-17.181131 -0.0842,-25.77198 -0.002,-9.895069 -0.0648,-19.792284 0.12167,-29.685787 0,0 -13.22848,6.740246 -13.22848,6.740246 z" />
  <path
     style="fill:#000000"
     id="path49"
     d="m 386.03915,18.064876 c 6.57823,0.519462 13.0975,1.500235 19.64274,2.301273 7.01293,0.28168 13.43596,3.192721 20.07939,5.117401 7.72452,1.718292 15.70759,1.790649 23.58691,1.99873 7.82982,0.0659 15.66034,0.07609 23.49047,0.07008 3.75632,0.133892 7.60509,-0.202465 11.32494,0.09417 0,0 12.19899,-8.91916 12.19899,-8.91916 v 0 c -3.82849,0.296851 -7.7352,0.0099 -11.58551,0.146926 -7.83402,0.03074 -15.66857,0.106823 -23.50225,-0.01846 -7.7858,-0.126444 -15.65579,-0.187806 -23.3146,-1.735912 -6.74525,-1.825847 -13.20172,-4.918097 -20.26971,-5.257719 -6.49612,-0.790232 -12.95243,-1.829064 -19.47343,-2.4158047 0,0 -12.17794,8.6184767 -12.17794,8.6184767 z" />
  <path
     style="fill:#000000"
     id="path51"
     d="m 389.33947,31.711521 c 9.74345,2.528136 19.76637,3.646092 29.78266,4.351722 19.41722,0.42333 38.62304,-2.653305 57.65895,-6.110898 8.42367,-1.619278 16.84237,-3.271788 25.38985,-4.068804 0.37903,-0.03076 0.75807,-0.06152 1.13711,-0.09228 0,0 12.0216,-8.956544 12.0216,-8.956544 v 0 c -0.40678,0.06399 -0.81356,0.127973 -1.22034,0.191959 -8.74193,0.93109 -17.37515,2.467904 -25.96643,4.345188 -18.9077,3.643283 -37.9882,6.84305 -57.32275,6.322086 -9.79053,-0.742918 -19.61019,-1.728574 -29.09949,-4.38292 0,0 -12.38116,8.400492 -12.38116,8.400492 z" />
  <path
     style="fill:#000000"
     id="path53"
     d="m 420.62885,17.916851 c 10.64696,0.70139 21.30486,1.104866 31.97051,1.409483 8.92889,0.271753 17.75351,1.413014 26.55463,2.840012 3.12766,0.349315 6.21442,0.971834 9.30701,1.539385 0,0 12.1183,-8.472704 12.1183,-8.472704 v 0 c -3.10626,-0.570206 -6.19598,-1.263988 -9.34585,-1.556347 -8.94085,-1.381878 -17.8855,-2.559851 -26.95023,-2.790111 -10.53367,-0.279408 -21.08261,-0.589291 -31.56334,-1.7543641 0,0 -12.09103,8.7846461 -12.09103,8.7846461 z" />
  <path
     style="fill:#000000"
     id="path55"
     d="m 419.42004,33.351707 c 18.5137,-0.420418 36.9364,-2.747129 55.26856,-5.235768 11.08502,-1.609009 22.24015,-2.620297 33.37201,-3.826001 0,0 11.84511,-8.838717 11.84511,-8.838717 v 0 c -11.29715,1.659934 -22.69108,2.569158 -33.98494,4.266465 -18.04065,2.527262 -36.22017,5.013015 -54.46958,4.892871 0,0 -12.03116,8.74115 -12.03116,8.74115 z" />
  <path
     style="fill:#000000"
     id="path57"
     d="m 393.20362,18.186993 c 10.18777,2.788863 20.3638,5.618262 30.73674,7.6611 6.35753,1.129598 12.7713,1.864637 19.18563,2.572422 0,0 11.82456,-8.407021 11.82456,-8.407021 v 0 c -6.42889,-0.615129 -12.859,-1.257251 -19.22388,-2.38477 -10.20429,-1.992044 -20.21714,-4.793158 -30.14189,-7.8422228 0,0 -12.38116,8.4004918 -12.38116,8.4004918 z" />
  <path
     style="fill:#000000"
     id="path59"
     d="m 388.0256,26.932978 c 3.61317,0.575288 7.17645,1.364263 10.81159,1.841451 5.30942,0.604999 10.6541,0.85242 15.99205,1.045311 6.31473,0.286822 12.63629,0.235539 18.95559,0.309658 4.15514,0.114994 8.31114,0.09443 12.46724,0.11046 4.05658,0.04193 8.11091,-0.01946 12.16357,-0.195315 3.23422,0.03653 6.35307,-0.845175 9.52239,-1.329646 3.80769,-0.498451 7.65636,-0.502555 11.48969,-0.493848 2.5918,-0.08297 5.16972,-0.375702 7.75943,-0.511295 1.56829,-0.07638 3.13836,-0.110539 4.70814,-0.138454 0,0 11.91731,-8.676941 11.91731,-8.676941 v 0 c -1.57804,0.0039 -3.15599,0.0064 -4.73278,0.08029 -2.60542,0.134058 -5.20706,0.319312 -7.79963,0.615925 -3.86618,0.08836 -7.73356,0.180632 -11.59679,0.351514 -0.77135,0.08725 -2.19278,0.231893 -2.96482,0.381818 -2.2084,0.428856 -4.35395,1.261575 -6.64597,1.15805 -4.01496,0.245025 -8.02477,0.223806 -12.04598,0.201882 -4.25094,0.02231 -8.50172,0.01343 -12.75209,0.103894 -6.32117,0.02915 -12.64161,-0.05885 -18.96015,-0.241547 -5.2475,-0.236352 -10.48299,-0.622449 -15.71421,-1.092509 -3.53003,-0.435281 -6.99138,-1.098382 -10.39664,-2.139173 0,0 -12.17794,8.618477 -12.17794,8.618477 z" />
  <path
     style="fill:#000000"
     id="path61"
     d="m 424.13021,33.077161 c 6.48747,0.244633 12.98179,0.326363 19.47237,0.552324 8.17454,0.119717 16.32533,0.687537 24.47219,1.327947 5.44685,0.457859 10.90591,0.735445 16.36262,1.041273 4.1141,0.397342 8.23287,0.690161 12.35946,0.923186 1.32123,0.07587 2.64345,0.130969 3.96583,0.181646 0,0 11.96805,-8.660262 11.96805,-8.660262 v 0 c -1.36916,-9.92e-4 -2.73839,-0.0042 -4.10724,-0.03807 -4.19902,-0.118304 -8.38316,-0.4413 -12.57097,-0.760968 -5.52032,-0.218733 -11.02173,-0.720733 -16.54477,-0.879789 -8.24745,-0.43401 -16.48005,-1.136719 -24.74367,-1.183062 -6.1456,-0.22858 -12.30347,-0.46843 -18.42084,-1.115415 0,0 -12.21303,8.61119 -12.21303,8.61119 z" />
  <path
     style="fill:#000000"
     id="path63"
     d="m 396.36598,36.752894 c 0.11937,2.322121 0.095,4.648453 0.0939,6.972734 -0.15452,2.155173 0.39505,4.232129 0.83225,6.317649 0.45204,2.624637 0.5041,5.300418 0.5627,7.957163 0.0135,2.783639 -0.009,5.567132 -0.021,8.350729 -0.10495,2.421824 0.0425,4.840819 0.86252,7.132272 0.81322,1.889531 2.22868,3.063853 4.14097,3.69867 1.53357,0.386506 3.12909,0.329924 4.69812,0.327047 2.534,-0.05891 5.0683,-0.08357 7.60274,-0.113057 4.12308,-0.0839 8.24686,-0.07375 12.37014,-0.01759 3.46534,0.0088 6.93071,9.88e-4 10.3961,-0.0013 2.49638,0.01771 4.9925,0.05199 7.48888,0.06821 1.86695,0.0096 3.73837,-0.179032 5.58448,0.200917 1.46012,0.30051 2.30474,0.676786 3.69637,1.195551 3.02868,1.111242 5.20806,3.349216 7.40623,5.594382 2.52323,2.510607 4.93369,5.123393 7.29791,7.781915 1.30774,1.532392 2.36201,3.22634 3.0331,5.12523 0.44922,1.864277 0.55629,3.770944 1.11266,5.612934 1.18191,2.76035 1.91226,5.6496 2.4036,8.60251 0.17828,2.96066 0.90697,5.83141 1.36058,8.75415 0.36869,2.54561 0.38053,5.11967 0.43863,7.68513 0.21001,2.58232 -1.06242,4.83738 -2.07605,7.10994 -1.1709,2.09233 -2.21701,4.23457 -3.56018,6.22525 -1.65104,2.46044 -3.96759,4.31074 -6.10632,6.3188 -2.24385,2.24507 -4.66148,4.30165 -7.08779,6.34457 -2.66117,2.42868 -5.31359,4.95436 -8.36219,6.90204 -0.71686,0.45798 -1.4705,0.85569 -2.20574,1.28353 -7.50588,4.3455 5.99686,-3.46941 8.16341,-4.76103 0.53754,-0.32046 -1.10615,0.58663 -1.67214,0.85365 -1.54374,0.72829 -3.06719,1.17753 -4.72268,1.56308 -4.35432,0.7166 -8.78339,0.52061 -13.17479,0.76689 -4.5353,0.36107 -9.07075,0.71982 -13.61665,0.91539 -2.28578,0.11992 -4.56177,0.19592 -6.82348,-0.18722 -2.66204,-0.7662 -5.12702,-2.10868 -7.53866,-3.44822 -2.71357,-1.85166 -5.23736,-3.96791 -7.39856,-6.44198 -1.80396,-2.06719 -3.42328,-4.2735 -5.25378,-6.31789 -1.71345,-1.59962 -3.46727,-3.16599 -5.23608,-4.70732 -0.79762,-0.80465 -0.40231,-0.39816 -1.1859,-1.21951 0,0 -12.67809,7.75411 -12.67809,7.75411 v 0 c 0.8429,0.83229 0.40851,0.39126 1.29967,1.32655 1.79573,1.41239 3.47233,2.98946 5.19505,4.48655 1.85574,2.01889 3.48856,4.2144 5.35509,6.22219 0.58134,0.66916 1.73971,2.03367 2.37599,2.63791 1.63045,1.54836 3.56008,2.77423 5.25974,4.2404 2.47066,1.42486 4.9641,2.84668 7.6398,3.85594 2.35333,0.77144 4.7631,0.62821 7.21128,0.45214 4.63076,-0.29376 9.24963,-0.72677 13.87482,-1.09315 4.34435,-0.28018 8.70716,0.007 13.0407,-0.43831 2.41145,-0.35514 4.66494,-0.95161 6.80924,-2.16015 10.38272,-5.85178 10.28157,-5.80693 16.45334,-9.4732 3.84205,-2.46004 7.34065,-5.36556 10.68143,-8.4693 2.45967,-2.09043 4.90548,-4.19683 7.19549,-6.4748 2.17052,-2.06184 4.40305,-4.08166 5.99343,-6.65361 1.28379,-2.06278 2.38323,-4.22323 3.43872,-6.41081 1.12774,-2.44758 2.05276,-4.99478 1.86473,-7.73936 -0.052,-2.61518 -0.30394,-5.22143 -0.61462,-7.81765 -0.46593,-2.9175 -1.15913,-5.7958 -1.42307,-8.74507 -0.53312,-2.99263 -1.27741,-5.946242 -2.33738,-8.79868 -0.46011,-1.91026 -0.47582,-3.901364 -1.11788,-5.768587 -0.81928,-2.055368 -1.94977,-3.920216 -3.46349,-5.548022 -2.51168,-2.522953 -4.93191,-5.139836 -7.3315,-7.769377 -2.27377,-2.46845 -4.68186,-4.789222 -7.86226,-6.053794 -2.44416,-1.024734 -1.29587,-0.604164 -3.77933,-1.407583 -0.60695,-0.196352 -1.19497,-0.468072 -1.82199,-0.585498 -1.20765,-0.226166 -2.53012,0.15763 -3.74775,-0.03069 -2.55887,0.01632 -5.11748,0.05038 -7.67635,0.06802 -3.46403,-0.0025 -6.92804,-0.0106 -10.39202,-0.0018 -4.11336,0.05441 -8.22715,0.06936 -12.34041,-0.0073 -2.46856,-0.02004 -4.93723,-0.03519 -7.40583,-0.0416 -1.48908,0.02159 -2.98229,0.06482 -4.46898,-0.04125 -1.5829,-0.218504 -2.79065,-0.825245 -3.47196,-2.365364 -0.70644,-2.15969 -0.66011,-4.430354 -0.66337,-6.683072 -0.006,-2.77661 -0.0189,-5.553155 -0.0832,-8.329167 -0.0402,-2.77629 -0.058,-5.565368 -0.51336,-8.312706 -0.45301,-1.969435 -0.87863,-3.948017 -0.77647,-5.985732 -10e-4,-2.356207 -0.0236,-4.714271 0.0939,-7.068419 0,0 -13.31639,6.785039 -13.31639,6.785039 z" />
  <path
     style="fill:#000000"
     id="path65"
     d="m 378.19729,139.61585 c 1.76113,0.80005 3.64268,1.64765 5.12744,2.91179 1.28126,1.43244 2.65937,2.79568 3.87449,4.2851 1.56842,1.87053 3.04704,3.80736 4.54995,5.73076 2.13415,2.36171 4.10096,4.85833 6.06951,7.357 1.59533,1.744 3.03592,3.61285 4.73207,5.26264 1.26281,1.14737 2.56797,2.24781 3.8521,3.37194 1.79707,1.45619 3.97578,2.2255 6.06749,3.13211 1.98125,1.12621 4.07542,1.86785 6.29874,2.32946 2.33985,0.41456 4.72928,0.42204 7.09868,0.44267 2.05066,0.0225 4.10139,0.0258 6.15212,0.014 1.86227,-0.01 3.7245,-0.003 5.58676,0.006 1.80307,0.003 3.60516,0.0493 5.39824,-0.16202 2.01774,-0.36179 3.91411,-1.12032 5.77998,-1.94298 0,0 11.55974,-9.21745 11.55974,-9.21745 v 0 c -1.76375,0.9221 -3.59382,1.70813 -5.52289,2.193 -1.69715,0.53555 -3.42672,0.39095 -5.18823,0.39081 -1.87535,0.0104 -3.75067,0.019 -5.62604,0.0183 -2.06714,-9.4e-4 -4.13402,0.0252 -6.20109,0.0378 -2.31209,-0.009 -4.63262,0.0109 -6.93315,-0.25363 -2.16512,-0.31648 -4.18656,-0.88994 -6.08536,-2.01473 -1.91063,-0.93352 -4.01712,-1.46211 -5.73223,-2.79469 -1.22682,-1.19254 -2.62162,-2.19284 -3.90486,-3.32183 -1.70459,-1.55963 -3.10951,-3.36797 -4.69246,-5.04643 -1.99907,-2.45896 -4.10352,-4.82616 -6.12276,-7.26752 -1.41974,-1.99241 -2.809,-4.01029 -4.43399,-5.84424 -1.2157,-1.59198 -2.65172,-3.01195 -3.98726,-4.50005 -0.28026,-0.26983 -0.53623,-0.5674 -0.84078,-0.80947 -0.91184,-0.72476 -0.92407,-0.53815 -1.91307,-1.05758 -0.90707,-0.4764 -1.71368,-1.11287 -2.58199,-1.65133 0,0 -12.38115,8.40049 -12.38115,8.40049 z" />
  <path
     style="fill:#000000"
     id="path67"
     d="m 399.14231,30.226417 c 0.23588,3.850253 0.16193,7.709734 0.14218,11.564504 -0.25701,2.84565 0.44027,5.60759 0.85836,8.395516 0.35867,1.710623 0.16243,3.482156 0.35415,5.203403 0.0166,0.148635 0.50924,2.669997 0.5234,2.742946 0.57011,3.002281 0.74589,6.054098 0.87272,9.100831 0.0648,2.512395 0.0379,5.025779 0.0129,7.538509 -0.0438,1.886679 -0.0248,3.773203 -0.0117,5.660064 -7.6e-4,0.340547 0.0429,0.684106 -0.002,1.02164 -0.0361,0.269562 -0.47723,0.911342 -0.23902,0.780111 12.95993,-7.139651 14.97324,-3.32863 12.38807,-7.898382 0,0 -12.89381,7.298828 -12.89381,7.298828 v 0 c 0.22178,0.495073 0.16622,1.697743 0.66533,1.485221 11.09135,-4.722654 13.31898,-2.88006 13.27479,-9.408057 0.0166,-1.886274 0.0436,-3.772256 0.005,-5.658502 -0.0261,-2.509069 -0.0641,-5.018347 -0.17134,-7.525528 -0.12806,-3.109483 -0.41516,-6.208851 -0.93853,-9.278842 -0.39378,-2.644157 -0.55192,-5.300978 -0.79927,-7.96214 -0.43238,-2.686013 -1.11068,-5.344185 -0.95462,-8.090975 -0.0201,-3.903159 -0.0897,-7.810499 0.14218,-11.709392 0,0 -13.22847,6.740245 -13.22847,6.740245 z" />
  <path
     style="fill:#000000"
     id="path69"
     d="m 393.65559,30.757289 c 0.24808,4.168398 0.22948,8.348282 0.24613,12.522628 -0.0125,4.922322 0.004,9.844485 -0.0365,14.76677 8.6e-4,3.926919 0.0117,7.852239 -0.49549,11.75141 -0.50838,2.863736 -0.74685,5.760284 -0.93225,8.659371 -0.0196,0.374507 -0.0392,0.749015 -0.0588,1.123522 0,0 13.20045,-6.656721 13.20045,-6.656721 v 0 c 0.0112,-0.362644 0.0224,-0.725288 0.0335,-1.087932 0.13413,-2.851254 0.45672,-5.682721 0.81917,-8.513263 0.36187,-3.93559 0.3784,-7.875963 0.28662,-11.825434 -0.0407,-4.909878 -0.0238,-9.819635 -0.0365,-14.72955 0.0169,-4.258046 0.003,-8.520989 0.24613,-12.773444 0,0 -13.27244,6.762643 -13.27244,6.762643 z" />
  <circle
     id="path71"
     style="fill:#F5F5F5;stroke:#000000"
     cx="398.92563"
     cy="79.238655"
     r="0.34388852" />
  <circle
     id="path73"
     style="fill:#F5F5F5;stroke:#000000"
     cx="398.92563"
     cy="79.238655"
     r="0.34388852" />
  <path
     style="fill:#000000"
     id="path75"
     d="m 402.24059,76.807306 c 2.57631,-0.182165 5.13195,0.217054 7.66358,0.641126 2.37713,0.520817 4.75936,0.929962 7.1828,1.14926 3.06561,0.656381 6.14106,1.256692 9.22662,1.827553 2.45757,0.449779 4.8819,1.045436 7.33871,1.498833 2.30741,0.341208 4.55355,0.92444 6.77522,1.623397 2.27932,0.718197 4.64032,1.019014 6.90109,1.797432 2.11595,0.835483 4.1092,1.956129 5.94989,3.288304 1.73027,1.377802 2.89843,3.255927 4.15205,5.037602 1.33676,1.537244 1.98756,3.456217 2.90922,5.236512 1.39946,2.255615 2.65747,4.590985 3.982,6.891655 1.57264,1.94769 2.05142,4.19517 2.33936,6.61604 0.50477,3.74844 -0.0897,7.47023 -0.47007,11.19376 -0.18136,2.28484 -1.10738,4.39401 -1.69503,6.58355 -0.15596,0.58109 -0.63792,2.65412 -0.77644,3.24401 -1.09728,3.03902 -1.66687,6.21749 -2.80271,9.24075 -1.08413,2.54244 -2.61361,4.88784 -4.44243,6.95408 -1.58098,2.04162 -3.70808,3.55056 -5.54637,5.34147 -1.41908,0.92454 -2.62967,2.1392 -4.00252,3.12124 -0.67139,0.48026 -1.39459,0.8841 -2.07818,1.34683 -5.67934,3.33126 7.02381,-4.04621 10.50787,-6.11665 0.31287,-0.18593 -0.65525,0.31819 -0.9924,0.45529 -1.17127,0.47626 -2.41716,0.78136 -3.6291,1.13213 -2.84509,0.82394 -5.79928,1.08295 -8.74479,1.2177 -3.13749,0.15969 -6.27896,0.0988 -9.41866,0.0949 -2.57797,-0.0136 -5.19409,-0.0926 -7.70729,-0.70421 -2.53325,-0.99291 -5.09847,-1.956 -7.4103,-3.40526 -2.44068,-1.44572 -4.69116,-3.17675 -6.96418,-4.86622 -2.61339,-1.93472 -4.99104,-4.15088 -7.36162,-6.36853 -1.44857,-1.33517 -2.96016,-2.59743 -4.49023,-3.83722 0,0 -12.45281,7.8355 -12.45281,7.8355 v 0 c 1.5395,1.17717 3.0532,2.37765 4.47141,3.70165 2.39486,2.24023 4.87549,4.39211 7.39895,6.48542 2.19255,1.85112 4.64421,3.3868 7.03254,4.97442 2.35651,1.63095 5.01433,2.58714 7.60114,3.79137 2.54849,0.90374 5.31316,0.96535 7.99748,1.02573 3.15711,0.004 6.31441,-0.0368 9.47144,-0.0538 2.99092,-0.11848 5.99209,-0.234 8.91941,-0.92445 8.6014,-2.33921 5.42743,-1.64198 18.46357,-9.14562 0.35343,-0.20343 0.68167,-0.44778 1.02251,-0.67167 2.0976,-1.42766 4.07656,-3.03246 6.0007,-4.68393 1.9271,-1.73292 3.90128,-3.44553 5.46953,-5.52466 1.69856,-2.26171 3.18607,-4.66652 4.11828,-7.35588 1.05143,-3.08879 1.77231,-6.27775 2.7488,-9.39128 0.80297,-3.30449 1.97651,-6.53862 2.28729,-9.94438 0.43136,-3.83501 0.89221,-7.68524 0.45012,-11.54512 -0.28906,-2.61759 -0.79463,-5.13254 -2.56018,-7.196215 -1.35471,-2.245642 -2.59878,-4.559589 -3.89066,-6.840305 -0.93308,-1.860999 -1.60257,-3.851236 -3.00996,-5.440946 -0.82124,-1.106896 -0.41365,-0.512734 -1.20987,-1.791265 -0.92851,-1.310286 -2.092,-2.471719 -3.18759,-3.635936 -1.93578,-1.447199 -4.04008,-2.612879 -6.23509,-3.621627 -0.81239,-0.294915 -1.60607,-0.646353 -2.43535,-0.889757 -1.4548,-0.427001 -3.01667,-0.421538 -4.44678,-0.961365 -2.24472,-0.765684 -4.54153,-1.41177 -6.88782,-1.76121 -2.47104,-0.530634 -4.97644,-0.919528 -7.44854,-1.44919 -3.10344,-0.56897 -6.25692,-0.916356 -9.24241,-2.007043 -2.40305,-0.149031 -4.78735,-0.444889 -7.1247,-1.045396 -2.52799,-0.374945 -5.05022,-0.846947 -7.60652,-0.967594 0,0 -12.11098,8.799145 -12.11098,8.799145 z" />
  <circle
     id="path77"
     style="fill:#F5F5F5;stroke:#000000"
     cx="389.36234"
     cy="138.66763"
     r="0.34388852" />
  <circle
     id="path79"
     style="fill:#F5F5F5;stroke:#000000"
     cx="389.36234"
     cy="138.66763"
     r="0.34388852" />
  <path
     style="fill:#000000"
     id="path81"
     d="m 477.65391,113.94227 c 0.18821,3.04157 0.18134,6.09035 0.14321,9.13604 0.059,0.51062 0.088,1.02559 0.17691,1.53185 0.23149,1.31767 0.74038,2.56679 1.0091,3.87754 0.25937,1.26513 0.31748,1.94511 0.47726,3.23245 0.14652,3.31346 -0.45359,6.66136 -1.31214,9.8537 -0.12506,0.34026 -0.94638,2.60635 -1.10747,2.91716 -0.92624,1.78699 -2.48106,3.63739 -3.84995,5.10452 -1.91389,2.06947 -3.71112,4.24242 -5.70029,6.24011 -1.4643,1.48058 -2.6829,3.28221 -4.45547,4.43368 -0.38314,0.24889 -0.80234,0.43728 -1.20351,0.65592 -5.48252,3.04745 1.86888,-1.02837 10.09855,-5.89808 0.34953,-0.20683 -0.72773,0.36134 -1.09848,0.52717 -1.36232,0.60933 -2.738,1.00402 -4.17823,1.38573 -3.85223,0.95787 -7.73049,1.7596 -11.66927,2.25561 -2.61106,0.3144 -5.23942,0.40206 -7.86652,0.43971 -0.50574,0.005 -1.01311,-0.0255 -1.51721,0.0154 -1.65263,0.13409 -2.96315,0.43746 -4.60063,0.7492 -2.192,0.41732 -4.38432,0.80941 -6.58697,1.16581 -1.47338,0.25413 -2.95527,0.41 -4.44591,0.50313 0,0 -11.87992,8.6978 -11.87992,8.6978 v 0 c 1.59297,-0.0209 3.15639,-0.1859 4.72666,-0.47438 2.23846,-0.39099 4.47207,-0.80496 6.70616,-1.22015 1.40753,-0.26159 2.79606,-0.64925 4.21972,-0.80015 0.49605,-0.0526 0.99765,0.006 1.49647,0.009 2.68532,-6.2e-4 5.37846,0.0265 8.04451,-0.35296 3.9578,-0.51239 7.87111,-1.22453 11.75633,-2.13715 0.83281,-0.16481 2.16959,-0.40681 3.014,-0.6532 0.36362,-0.1061 2.06938,-0.72287 2.4097,-0.91231 10.70357,-5.95803 9.60927,-5.30908 15.0632,-8.62534 2.10484,-1.54028 3.77874,-3.48746 5.5274,-5.41079 1.92549,-2.06148 3.77935,-4.18881 5.64459,-6.30455 2.06507,-2.59016 3.89527,-5.34591 4.62933,-8.63077 0.75239,-3.37968 1.38854,-6.85503 1.066,-10.32838 -0.21041,-1.63815 -0.38924,-3.30849 -0.78966,-4.91486 -0.37879,-1.51958 -0.34495,-0.58745 -0.62436,-2.21141 -0.0773,-0.44954 -0.0999,-0.9068 -0.14993,-1.3602 -0.0392,-3.09442 -0.0399,-6.19144 0.14321,-9.28198 0,0 -13.31639,6.78504 -13.31639,6.78504 z" />
  <path
     style="fill:#000000"
     id="path83"
     d="m 465.34727,123.42945 c 0.1329,2.06982 0.0888,4.14609 0.067,6.21866 -0.0281,1.71533 -0.0278,3.43073 -0.0113,5.14615 0.0562,2.77027 -0.43186,5.52104 -0.73946,8.27292 -0.4412,1.95916 -0.80098,3.9923 -1.60373,5.84898 -0.31038,0.71788 -0.74507,1.3754 -1.11026,2.06701 -1.28367,2.10424 -2.44573,4.27324 -3.81326,6.32574 -1.40655,1.64757 -2.44211,3.53878 -3.64671,5.3246 -3.34811,3.44186 -12.54978,7.89235 10.75514,-6.18897 0,0 -12.00867,8.6846 -12.00867,8.6846 v 0 c 7.68016,-3.95642 11.51027,-3.37118 14.8463,-8.46691 1.11485,-1.80511 2.3141,-3.54269 3.5386,-5.27526 1.3286,-2.11316 2.55869,-4.28565 3.76477,-6.47049 1.28582,-2.61322 1.92593,-5.44148 2.3378,-8.31785 0.33135,-2.84508 0.98312,-5.66792 0.90641,-8.54383 0.0162,-1.71157 0.0171,-3.42313 -0.0113,-5.1346 -0.0222,-2.09542 -0.0635,-4.19415 0.067,-6.28699 0,0 -13.33837,6.79624 -13.33837,6.79624 z" />
  <path
     style="fill:#000000"
     id="path85"
     d="m 470.02827,131.69551 c -0.1689,2.53922 -0.31121,5.07795 -0.40475,7.6212 -0.10679,2.53461 -0.0624,5.07207 -0.0743,7.60811 0.11751,2.83837 -0.52657,4.29257 -2.17436,6.53259 -0.61716,0.96043 -1.19802,2.04417 -2.12042,2.76258 -0.24738,0.19268 -0.5629,0.2836 -0.81421,0.47114 -0.54588,0.40737 -1.01999,0.90453 -1.55895,1.32102 -5.04842,2.61135 0.30914,-0.14126 10.93224,-6.4184 0.29261,-0.1729 -0.61433,0.29099 -0.92109,0.43733 -1.14736,0.54735 -2.26333,1.14457 -3.39223,1.7285 -1.81935,0.94499 -3.8376,1.34599 -5.80682,1.84977 -7.34014,2.07405 -13.36395,7.31011 -19.54678,11.5989 -0.39796,0.31048 -0.79004,0.62866 -1.19389,0.93143 -0.34932,0.26189 -0.7009,0.52149 -1.06513,0.7622 -0.31102,0.20554 -1.28135,0.76272 -0.95897,0.57549 22.30552,-12.95447 14.9174,-8.0544 10.44414,-6.24652 0,0 -11.7857,9.09622 -11.7857,9.09622 v 0 c 6.88682,-1.43011 12.54442,-6.39138 18.15899,-10.48076 1.33739,-0.95809 2.66884,-1.92371 4.05006,-2.81848 0.35975,-0.23305 1.46387,-0.89194 1.09012,-0.68208 -6.58185,3.69553 -16.20069,9.22219 -11.01596,6.24428 0.94155,-0.168 1.80751,-0.46745 2.73304,-0.68965 1.13681,-0.27293 2.30654,-0.41875 3.37848,-0.93156 1.12564,-0.5377 2.17772,-1.20728 3.2919,-1.75474 0.30676,-0.15072 0.65852,-0.20163 0.95698,-0.36817 13.00613,-7.2574 9.46933,-4.64293 14.39335,-8.35989 0.52133,-0.44382 1.07619,-0.84881 1.57989,-1.31253 1.11358,-1.02518 1.82083,-2.38324 2.6566,-3.6231 1.45158,-2.44028 1.99937,-4.45808 1.8113,-7.30969 -0.005,-2.52006 0.0375,-5.03955 0.0884,-7.55905 0.0862,-2.53813 0.21674,-5.08669 0.64432,-7.59346 0,0 -13.37624,6.60732 -13.37624,6.60732 z" />
  <path
     style="fill:#000000"
     id="path87"
     d="m 456.64884,158.54644 c -1.2653,1.71836 -2.8563,3.1465 -4.58093,4.39948 -2.56277,1.87483 0.89444,-0.58132 -1.73762,1.05768 -0.325,0.20238 -0.61318,0.45862 -0.91977,0.68793 -0.32304,0.21091 -0.63868,0.4336 -0.96912,0.63271 -0.31284,0.18851 -1.27498,0.71323 -0.95938,0.52937 3.92591,-2.28706 7.86036,-4.55943 11.79054,-6.83914 -6.33416,3.27804 -12.25202,7.15843 -18.32051,10.84178 0,0 13.82437,-5.3352 13.82437,-5.3352 v 0 c 5.00427,-2.98303 14.62324,-9.68356 -7.07,3.75343 5.97311,-3.40614 12.50902,-6.60474 18.08887,-10.83408 1.68303,-1.46674 3.28832,-3.01908 4.54089,-4.88263 0,0 -13.68734,5.98867 -13.68734,5.98867 z" />
  <path
     style="fill:#000000"
     id="path89"
     d="m 428.19808,176.53871 c 2.18568,-0.0527 4.36833,-0.0231 6.55032,-0.17541 5.14335,-0.70938 10.07502,-2.51532 14.9667,-4.19432 3.33407,-1.16424 6.67699,-2.32636 10.16339,-2.93328 5.87887,-1.0825 10.49406,-5.29703 15.66171,-8.27576 0.87837,-0.50632 1.50766,-1.16101 2.12559,-1.94569 1.36063,-1.95188 2.36379,-4.1673 3.3393,-6.33866 1.20896,-2.25463 1.96331,-4.69677 2.91337,-7.0582 0.13645,-0.33914 1.38498,-3.07691 1.56793,-3.47941 0,0 -13.24674,6.07437 -13.24674,6.07437 v 0 c -1.48649,3.52618 -2.78833,7.131 -4.57029,10.52588 -1.05865,2.093 -2.0661,4.30055 -3.72413,5.99499 -0.65966,0.55369 -0.58835,0.52749 -1.34988,1.01757 -0.28406,0.18281 -1.16018,0.69239 -0.86579,0.52673 21.11832,-11.88407 14.7185,-7.68474 9.96211,-5.9116 -3.72703,0.53707 -7.27149,1.7605 -10.78769,3.08386 -4.68862,1.6712 -9.43844,3.36127 -14.36929,4.13836 -2.0577,0.34758 -4.14289,0.17691 -6.22563,0.15143 0,0 -12.11098,8.79914 -12.11098,8.79914 z" />
  <path
     style="fill:#000000"
     id="path91"
     d="m 405.92927,36.752894 c 0.24821,3.700305 0.20777,7.416046 0.22166,11.123455 -0.004,4.362251 0.34908,8.717183 0.48379,13.077325 0.35779,4.100091 0.61306,8.207491 0.71951,12.321779 0.0949,1.659441 0.24661,3.305972 0.48398,4.950191 0,0 12.97752,-6.861191 12.97752,-6.861191 v 0 c -0.25294,-1.574993 -0.44792,-3.154575 -0.51271,-4.750735 -0.21558,-4.102215 -0.51498,-8.19773 -0.77277,-12.297475 -0.22225,-4.3307 -0.5372,-8.660419 -0.50625,-12.999048 0.0141,-3.782874 -0.0217,-7.573042 0.22166,-11.34934 0,0 -13.31639,6.785039 -13.31639,6.785039 z" />
  <path
     style="fill:#000000"
     id="path93"
     d="m 389.12676,84.968501 c 2.27538,0.7356 4.58513,1.355619 6.90964,1.917344 2.44095,0.55776 4.94072,0.706804 7.43563,0.748744 3.28225,0.01855 6.5646,-0.0025 9.84693,0.02027 3.3108,0.144946 6.60955,0.405366 9.92442,0.489131 4.4233,0.04078 8.83954,0.122158 13.25424,0.412417 0.59234,0.04269 1.18468,0.08539 1.77703,0.128085 0,0 11.83646,-8.496569 11.83646,-8.496569 v 0 c -0.61521,-0.02653 -1.23041,-0.05305 -1.84562,-0.07958 -4.41729,-0.213441 -8.82914,-0.450232 -13.25335,-0.457809 -3.28436,-0.126749 -6.56165,-0.348372 -9.8378,-0.611989 -3.26351,0.0324 -6.52735,0.03871 -9.79064,-0.02004 -2.4176,-0.06167 -4.84825,-0.09741 -7.23496,-0.532458 -2.25266,-0.461621 -4.52919,-0.997654 -6.64083,-1.918044 0,0 -12.38115,8.400492 -12.38115,8.400492 z" />
  <path
     style="fill:#000000"
     id="path95"
     d="m 463.63373,83.806298 c -1.09938,-0.794231 -2.17671,-1.851349 -3.45896,-2.357702 -2.97873,-1.17628 -6.37006,-1.357696 -9.50427,-1.703295 -6.75008,-0.639337 -13.51403,-1.110723 -20.29294,-1.260877 -4.11694,-0.06606 -8.23399,-0.142052 -12.35157,-0.145236 -2.56535,-0.002 -5.13051,-0.01653 -7.69576,-0.0412 -1.60311,-0.02296 -3.20624,-0.01802 -4.80941,-0.01525 -1.53329,0.0015 -3.06657,-0.01284 -4.59983,-0.0013 0,0 -12.03703,8.745377 -12.03703,8.745377 v 0 c 1.53431,0.01187 3.06865,-0.0028 4.603,-9.9e-4 1.61939,0.0028 3.23875,0.0074 4.85805,-0.01818 2.61831,-0.02982 5.23659,-0.05385 7.85498,-0.07164 4.2043,-0.02519 8.40835,-0.124223 12.61294,-0.08058 6.83186,0.09019 13.67548,0.200639 20.47397,0.948376 2.66023,0.367365 6.02626,0.6673 8.58027,1.633261 1.14733,0.433938 2.18838,1.307968 3.02506,2.177221 0,0 12.7415,-7.808 12.7415,-7.808 z" />
  <path
     style="fill:#000000"
     id="path131"
     d="m 477.92869,26.222604 c 3.20504,0.959369 6.2063,2.453736 9.28393,3.740432 3.53504,1.558809 7.2909,2.286215 11.09917,2.757433 1.33825,0.165106 2.68512,0.228845 4.03078,0.295037 0,0 11.95757,-8.633642 11.95757,-8.633642 v 0 c -1.36133,-0.01415 -2.72292,-0.03437 -4.08171,-0.128566 -3.74488,-0.300962 -7.45996,-0.868504 -10.94202,-2.359845 -3.04996,-1.214888 -5.99473,-2.689782 -8.96656,-4.071341 0,0 -12.38116,8.400492 -12.38116,8.400492 z" />
  <path
     style="fill:#000000"
     id="path133"
     d="m 388.98062,19.02559 c 0.45332,2.350177 0.49556,4.741809 0.92266,7.097362 0.61762,2.539772 0.77807,5.147047 1.11799,7.728176 0.45056,3.280176 0.56419,6.591464 0.63999,9.897438 0.33843,3.514519 0.58819,7.031799 0.68063,10.561689 0.0649,3.369218 0.0532,6.739099 0.0837,10.108572 0.062,3.367245 -0.0267,6.734198 -0.034,10.101285 -0.20995,3.049474 -0.40995,6.099566 -0.59413,9.150843 -0.084,1.554272 -0.005,0.81145 -0.2207,2.230277 0,0 13.25645,-6.575181 13.25645,-6.575181 v 0 c 0.10001,-1.483918 0.0648,-0.727103 0.10213,-2.270613 0.10619,-3.070088 0.37207,-6.12792 0.52852,-9.195095 -0.004,-3.357661 -0.086,-6.715207 -0.0295,-10.073012 0.0171,-3.374835 -0.0142,-6.750351 -0.15848,-10.122615 -0.14746,-3.538187 -0.27012,-7.077954 -0.58402,-10.606556 -0.13082,-3.345586 -0.34202,-6.688613 -0.6638,-10.02145 -0.25265,-2.625422 -0.51495,-5.246651 -1.14608,-7.815679 -0.41186,-2.39084 -0.38939,-4.805268 -0.67882,-7.210066 0,0 -13.22251,7.014625 -13.22251,7.014625 z" />
  <path
     style="fill:#000000"
     id="path135"
     d="m 347.19436,129.0464 c 0.32455,3.55444 -0.17094,7.10932 -0.6299,10.62863 -0.51443,4.1536 -1.19513,8.2808 -2.0963,12.36652 -1.39967,6.89017 -4.92983,5.53152 11.40109,-4.71795 0,0 -11.79745,9.28017 -11.79745,9.28017 v 0 c 11.95504,-7.36402 12.1427,-3.49361 13.49354,-10.89494 0.8338,-4.1093 1.38887,-8.26187 1.9483,-12.41664 0.49976,-3.65852 0.91093,-7.32483 0.97513,-11.01963 0,0 -13.29441,6.77384 -13.29441,6.77384 z" />
  <path
     style="fill:#000000"
     id="path137"
     d="m 351.27093,18.233305 c 0.33814,3.914124 0.20313,7.855968 0.22899,11.781807 -0.0327,3.890655 -0.0255,7.781399 -0.0526,11.67187 0.0153,4.453689 0.15176,8.909777 0.004,13.361447 -0.14185,4.481042 -0.44425,8.954835 -0.63566,13.433711 -0.0203,0.493031 -0.0405,0.986062 -0.0608,1.479093 0,0 13.09222,-6.633978 13.09222,-6.633978 v 0 c 10e-4,-0.480502 0.003,-0.961004 0.005,-1.441506 0.0566,-4.440163 0.16521,-8.879691 0.4134,-13.313925 0.14295,-4.499547 0.11028,-9.000167 0.16765,-13.501295 -0.0272,-3.872615 -0.0197,-7.745503 -0.0526,-11.618304 0.0262,-4.003979 -0.10287,-8.021825 0.22899,-12.015158 0,0 -13.33837,6.796238 -13.33837,6.796238 z" />
  <path
     style="fill:#000000"
     id="path139"
     d="m 333.279,16.682957 c 2.64662,0.774098 5.23703,1.748895 7.90591,2.479543 2.04503,0.494625 4.07078,1.044731 6.15692,1.335694 1.983,0.233184 3.98339,0.246949 5.9775,0.255864 1.22426,0.0063 2.44853,0.01202 3.6728,0.01661 0,0 12.02325,-8.739475 12.02325,-8.739475 v 0 c -1.23743,0.01002 -2.47485,0.02229 -3.71232,0.02371 -1.95588,-0.0074 -3.91431,0.0046 -5.86658,-0.132825 -2.09092,-0.189895 -4.10768,-0.680779 -6.15966,-1.1021 -2.6844,-0.601084 -5.40139,-1.3366742 -7.78479,-2.7482164 0,0 -12.21303,8.6111894 -12.21303,8.6111894 z" />
  <path
     style="fill:#000000"
     id="path141"
     d="m 334.24858,20.663132 c 0.47054,6.247689 0.45044,12.528298 0.57363,18.792524 0.0477,0.804411 0.0953,1.608823 0.143,2.413235 0,0 12.78157,-6.638034 12.78157,-6.638034 v 0 c -0.0749,-0.770922 -0.14978,-1.541844 -0.22467,-2.312767 -0.40527,-6.322068 -0.65907,-12.67613 -0.0451,-18.995204 0,0 -13.22848,6.740246 -13.22848,6.740246 z" />
  <path
     style="fill:#000000"
     id="path143"
     d="m 444.87841,89.015934 c 2.30499,1.975479 4.53396,4.036301 6.84686,6.002389 1.96809,1.448192 3.62639,3.264372 5.22525,5.099417 1.81005,1.96503 3.37545,4.12267 5.03037,6.21376 2.22106,2.67139 3.37504,5.94075 4.90049,9.00413 1.36897,2.54659 2.12386,5.28766 2.49363,8.1366 0.12234,2.46455 0.45877,4.90873 0.6413,7.36901 0.19127,2.63006 0.19057,5.26857 0.24303,7.90357 -0.17872,1.84213 -0.16972,3.72987 -0.45726,5.56121 -0.19442,1.23824 -0.44007,1.83994 -0.82483,3.04474 -0.48651,1.61198 -1.28412,3.05567 -2.14679,4.48619 0,0 13.32581,-5.95273 13.32581,-5.95273 v 0 c 0.807,-1.54307 1.5511,-3.09738 2.02071,-4.7844 0.36885,-1.32597 0.60611,-2.01433 0.8046,-3.37653 0.27137,-1.86244 0.18702,-3.77883 0.34796,-5.65001 0.0139,-2.67994 -0.0396,-5.36045 -0.23018,-8.03447 -0.22586,-2.48684 -0.4772,-4.97075 -0.68214,-7.4591 -0.50304,-2.9607 -1.42852,-5.7991 -2.85527,-8.45209 -1.5318,-3.16615 -2.84562,-6.45971 -4.95167,-9.310291 -1.60768,-2.158934 -3.27142,-4.261401 -5.03255,-6.297895 -1.61141,-1.940306 -3.33632,-3.834505 -5.40658,-5.294817 -2.31888,-1.846304 -4.61066,-3.766443 -6.55125,-6.016682 0,0 -12.74149,7.807999 -12.74149,7.807999 z" />
  <path
     style="fill:#000000"
     id="path145"
     d="m 448.16227,161.35716 c 0.80331,0.95264 0.38541,0.44064 1.24733,1.54118 0,0 12.72006,-7.53962 12.72006,-7.53962 v 0 c -0.80412,-1.14647 -0.4307,-0.58632 -1.12613,-1.67654 0,0 -12.84126,7.67498 -12.84126,7.67498 z" />
  <circle
     id="path147"
     style="fill:#F5F5F5;stroke:#000000"
     cx="458.35461"
     cy="162.57587"
     r="0.34388852" />
  <circle
     id="path149"
     style="fill:#F5F5F5;stroke:#000000"
     cx="458.35461"
     cy="162.57587"
     r="0.34388852" />
  <path
     style="fill:#000000"
     id="path151"
     d="m 464.31682,157.58022 c -1.11072,-1.11031 -2.23405,-2.20725 -3.35663,-3.30567 0,0 -12.54438,7.69893 -12.54438,7.69893 v 0 c 1.09817,1.09235 2.23565,2.16634 3.15951,3.41474 0,0 12.7415,-7.808 12.7415,-7.808 z" />
  <circle
     id="path153"
     style="fill:#F5F5F5;stroke:#000000"
     cx="451.52371"
     cy="155.06184"
     r="0.34388852" />
  <circle
     id="path155"
     style="fill:#F5F5F5;stroke:#000000"
     cx="451.52371"
     cy="155.06184"
     r="0.34388852" />
  <path
     style="fill:#000000"
     id="path157"
     d="m 460.09317,153.4289 c -1.11281,-0.86992 -2.14513,-1.82396 -3.16401,-2.79991 0,0 -12.45846,7.64801 -12.45846,7.64801 v 0 c 0.99985,1.01096 2.02407,2.0009 2.96774,3.06543 0,0 12.65473,-7.91353 12.65473,-7.91353 z" />
  <circle
     id="path159"
     style="fill:#F5F5F5;stroke:#000000"
     cx="446.74207"
     cy="150.2802"
     r="0.34388852" />
  <circle
     id="path161"
     style="fill:#F5F5F5;stroke:#000000"
     cx="446.74207"
     cy="150.2802"
     r="0.34388852" />
  <path
     style="fill:#000000"
     id="path163"
     d="m 501.31,19.487529 c -0.66924,2.879737 -1.15403,5.787994 -1.41936,8.731832 -0.19604,2.584157 -0.31005,5.172365 -0.31909,7.763675 0.035,1.760026 -0.008,0.868349 0.13292,2.67481 0,0 13.06924,-6.76078 13.06924,-6.76078 v 0 c -0.077,-1.734886 -0.0675,-0.86289 -0.027,-2.616007 0.0251,-2.527309 0.016,-5.059762 0.25975,-7.578177 0.33121,-2.922739 0.77242,-5.851286 1.79735,-8.624254 0,0 -13.4938,6.408901 -13.4938,6.408901 z" />
  <circle
     id="path165"
     style="fill:#F5F5F5;stroke:#000000"
     cx="506.85413"
     cy="39.619328"
     r="0.34388852" />
  <circle
     id="path167"
     style="fill:#F5F5F5;stroke:#000000"
     cx="506.85413"
     cy="39.619328"
     r="0.34388852" />
</svg>
